{"glyphs":{":":{"x_min":0,"x_max":180,"ha":180,"o":"m 82 77 b 77 76 71 72 66 70 b 65 63 64 57 63 51 b 61 41 62 31 65 21 b 69 7 86 3 96 12 b 103 18 109 25 113 33 b 117 42 118 53 112 62 b 105 72 95 79 82 77 z m 108 151 b 113 152 119 156 124 158 b 125 165 134 169 135 175 b 137 185 136 195 133 205 b 129 219 104 225 94 216 b 87 210 81 203 77 195 b 73 186 72 175 78 166 b 85 156 95 149 108 151 z"},"$":{"x_min":0,"x_max":378,"ha":378,"o":"m 407 491 b 401 512 389 532 370 548 b 356 561 343 568 328 573 b 306 577 283 583 256 580 b 248 579 241 579 234 579 l 208 573 b 210 590 213 606 218 622 b 219 627 219 630 220 635 b 222 639 221 644 218 646 b 211 653 205 661 194 662 b 178 666 175 663 176 646 b 176 644 177 641 177 638 b 177 634 178 630 177 625 b 176 611 175 598 173 582 b 171 575 170 569 170 562 b 151 556 135 549 117 541 b 98 534 76 522 57 507 b 31 489 10 466 -7 439 b -12 430 -16 423 -18 416 b -23 405 -27 389 -23 374 b -15 343 -6 322 9 305 b 28 282 45 265 65 252 b 71 246 79 242 86 236 b 91 233 96 229 101 227 b 101 226 102 224 104 223 l 114 215 b 113 203 113 189 111 177 b 105 128 101 79 96 30 b 90 29 84 30 79 30 b 76 30 74 30 73 31 b 66 33 61 35 56 38 b 51 41 48 43 45 46 b 37 54 32 61 28 67 b 24 74 23 82 23 92 b 23 93 23 96 23 99 l 22 107 l 14 103 b 6 99 -3 94 -4 82 b -4 77 -4 74 -5 69 b -5 67 -6 64 -6 62 l -6 60 l -5 59 b 11 28 36 8 70 -2 b 73 -2 75 -4 79 -5 b 79 -5 79 -5 79 -5 l 79 -5 b 79 -5 84 -7 92 -7 b 90 -18 89 -29 82 -38 b 83 -42 85 -44 86 -46 b 89 -57 96 -62 105 -63 b 110 -63 114 -64 121 -65 b 126 -54 126 -54 125 -47 b 123 -34 123 -20 125 -7 b 125 -7 125 -7 126 -7 b 128 -6 130 -6 131 -5 b 138 -5 145 -4 152 0 b 159 3 167 6 175 9 b 180 11 186 12 191 14 b 210 21 224 30 237 43 b 254 62 260 82 255 105 b 250 123 242 139 229 157 b 210 182 188 204 163 220 b 159 222 154 227 149 232 b 152 246 154 261 157 277 b 158 281 159 284 159 289 b 157 300 161 312 162 323 b 165 337 170 350 170 365 b 170 375 173 387 176 395 b 179 404 181 411 180 419 b 180 429 182 439 185 449 b 187 462 191 472 194 485 b 197 501 200 517 202 534 b 217 538 229 538 229 538 b 248 543 269 549 291 544 b 307 541 319 537 327 530 b 347 512 357 496 358 475 b 359 458 356 443 347 429 b 347 428 347 428 346 428 b 345 425 342 422 342 419 b 341 415 342 409 346 405 b 350 400 355 397 359 393 b 363 391 370 390 374 391 b 384 392 390 397 394 405 b 394 406 395 407 396 409 b 398 413 400 416 402 420 b 412 445 414 468 407 491 z m 234 96 l 234 94 b 234 94 233 94 233 93 b 232 94 232 94 232 95 b 232 95 233 96 234 96 z m 112 255 b 78 277 53 300 33 325 b 25 340 18 355 17 370 b 15 389 18 404 28 417 b 30 419 31 421 32 422 b 33 423 33 424 33 425 l 37 429 l 33 432 l 34 432 l 41 438 l 41 439 b 41 440 42 441 42 442 b 43 445 44 446 45 447 b 54 456 65 466 78 471 l 78 471 b 80 472 82 473 85 475 b 97 486 110 494 124 501 b 129 502 132 505 136 507 b 138 509 141 509 144 511 b 150 515 156 518 162 521 b 161 511 159 501 157 493 b 151 451 144 409 138 367 b 132 328 126 289 120 250 z m 101 -31 b 100 -30 99 -30 99 -29 b 99 -29 99 -29 99 -28 b 99 -21 99 -14 100 -8 b 101 -8 104 -8 105 -8 b 105 -15 103 -23 101 -31 z m 123 154 b 121 126 117 99 114 72 b 113 59 111 45 110 31 b 107 31 105 30 103 30 b 104 43 105 56 106 67 b 112 116 117 163 122 210 l 130 205 b 129 198 129 191 128 184 b 126 173 125 164 123 154 z m 144 20 b 148 25 154 25 159 25 b 155 21 151 20 144 20 z m 160 26 b 162 29 166 29 170 28 b 168 25 164 25 160 26 z m 178 34 b 180 34 182 35 185 35 b 183 33 181 34 178 34 z m 185 36 b 186 37 186 38 186 39 b 192 44 199 46 206 49 b 198 39 198 39 185 36 z m 149 193 b 177 173 197 152 210 128 b 213 123 215 116 217 107 b 220 95 217 84 209 74 b 199 65 192 60 184 56 b 168 45 149 38 130 34 b 131 57 132 79 134 101 b 135 113 136 124 138 134 b 139 146 143 158 141 171 b 141 172 142 176 143 178 b 145 183 145 188 146 195 b 147 194 148 193 149 193 z m 130 135 l 132 136 l 131 135 z m 134 158 b 134 158 133 157 133 157 b 133 157 132 158 132 158 b 132 158 133 159 133 159 b 133 159 134 158 134 158 z m 134 170 b 134 171 134 172 134 172 b 134 172 135 172 135 172 b 135 172 135 171 134 170 z m 145 265 b 145 267 145 268 146 268 b 146 268 146 268 147 268 b 146 267 146 266 145 265 b 145 265 145 265 145 265 z m 150 293 l 149 293 l 150 294 z m 157 334 b 157 333 157 330 157 327 b 156 331 155 331 157 334 z m 158 338 b 158 340 157 341 157 341 b 157 342 158 342 159 343 b 158 341 158 340 158 338 z m 150 341 b 145 311 138 282 135 251 b 135 248 134 245 134 243 l 127 246 b 127 252 128 259 129 266 b 132 294 138 323 143 352 b 148 384 154 415 159 447 b 160 454 161 462 164 467 b 165 464 167 461 167 457 b 167 450 166 443 165 436 b 160 405 154 373 150 341 z m 167 402 b 167 403 167 404 168 405 b 168 405 169 405 169 405 b 169 404 168 403 167 402 z m 171 486 b 170 480 169 474 165 469 b 162 475 164 482 165 488 b 168 501 170 513 172 526 b 174 527 175 527 176 528 b 175 514 173 501 171 486 z"},"?":{"x_min":0,"x_max":287,"ha":287,"o":"m 442 566 b 435 572 431 580 424 586 b 408 599 392 610 371 612 b 350 614 328 614 306 611 b 252 601 202 579 157 549 b 84 498 15 445 -42 376 b -50 367 -53 359 -52 348 b -34 326 -23 322 1 335 b -1 358 -1 358 15 379 b 26 393 37 405 48 418 b 59 429 70 440 83 450 b 109 470 134 489 160 508 b 204 541 253 565 306 577 b 330 583 353 585 377 584 b 383 584 388 583 393 581 b 399 579 403 575 403 567 b 403 546 393 528 379 512 b 363 494 347 477 329 461 b 279 414 226 368 180 318 b 142 277 106 236 75 190 b 65 176 61 159 58 144 b 56 137 57 130 60 123 b 66 112 72 101 77 91 b 85 86 93 81 101 77 b 106 74 112 73 119 74 b 128 76 131 84 125 91 b 123 95 119 100 115 103 b 102 113 100 127 103 141 b 105 148 106 155 109 161 b 105 161 103 159 100 158 b 103 166 105 174 109 181 b 122 201 137 219 155 236 b 155 236 155 236 155 236 b 155 236 155 236 155 236 l 155 236 b 155 240 156 244 159 248 b 171 262 184 275 196 288 b 219 312 242 337 266 360 b 283 376 302 391 319 406 b 323 411 328 414 333 414 b 326 406 320 400 313 393 b 307 387 301 382 297 375 b 306 374 311 381 316 385 b 342 410 367 433 393 458 b 403 469 413 480 423 493 b 433 506 441 522 447 540 b 450 549 448 558 442 566 z m 99 157 b 97 155 96 152 95 149 b 95 153 96 155 99 157 z m 112 221 b 115 235 121 241 136 249 b 132 244 130 238 127 232 b 123 227 119 223 112 221 z m 202 314 b 185 299 169 283 156 264 b 151 257 147 250 137 250 b 137 256 140 262 143 266 b 164 287 184 310 204 331 b 206 333 211 335 213 337 b 212 331 211 327 210 322 b 207 319 204 317 202 314 z m 220 342 b 220 345 221 346 223 346 b 223 343 222 342 220 342 z m 277 390 b 267 383 259 376 251 367 b 246 359 238 354 230 347 b 229 347 226 347 224 347 b 226 350 228 355 231 357 b 251 377 270 398 295 414 b 295 414 296 414 296 414 b 294 403 286 395 277 390 z m 303 421 b 308 428 314 436 324 437 b 319 429 313 422 303 421 z m 342 423 b 340 421 338 419 334 415 b 334 421 338 423 342 423 z m 371 452 b 374 459 378 462 384 465 b 383 458 378 453 371 452 z m 76 -27 b 70 -28 64 -33 58 -35 b 57 -43 56 -49 55 -56 b 53 -67 54 -79 57 -90 b 61 -104 81 -110 92 -100 b 100 -93 106 -85 111 -76 b 115 -66 116 -54 110 -44 b 102 -33 91 -25 76 -27 z m 218 299 b 214 295 211 292 207 287 b 207 287 209 286 209 286 b 215 292 221 297 228 304 b 225 304 224 304 222 303 b 221 302 219 301 218 299 z m 228 304 b 228 304 229 304 229 304 b 229 304 229 304 229 305 b 229 304 229 304 229 304 b 228 304 228 304 228 304 z m 146 213 b 155 218 158 226 158 236 b 157 236 156 236 155 236 b 154 232 152 229 151 227 b 149 222 148 218 146 213 z m 159 237 b 159 237 159 237 158 237 b 158 236 158 236 158 236 b 158 236 159 236 159 236 b 159 236 159 236 159 237 z m 177 253 b 168 250 164 244 159 237 b 169 238 174 245 177 253 z m 296 373 b 296 374 297 374 297 374 b 297 374 297 375 297 375 b 297 375 297 375 296 375 b 296 374 296 374 296 373 z m 296 373 b 293 369 288 365 285 361 b 292 363 295 366 296 373 z m 110 163 b 109 163 109 162 109 162 b 109 162 109 162 109 161 b 109 161 109 162 110 162 b 110 162 110 162 110 163 z m 118 175 b 111 173 109 168 110 163 b 113 166 116 169 118 175 z m 237 318 b 237 319 237 319 237 319 l 238 319 l 237 319 b 237 319 237 319 237 318 z m 229 305 b 233 309 237 312 237 318 b 232 314 228 311 229 305 z m 123 182 b 124 184 125 186 125 189 b 123 186 123 184 123 182 z m 279 356 b 277 354 276 352 275 351 b 273 349 271 348 270 347 b 268 345 267 343 265 342 b 264 340 262 339 260 338 b 259 336 258 333 256 332 b 256 332 255 331 255 331 b 256 331 256 331 257 331 b 258 333 259 335 261 337 b 262 338 264 340 266 341 b 267 342 269 345 270 346 b 271 348 274 349 275 350 b 276 352 278 354 279 355 b 280 357 283 358 284 360 b 284 360 284 360 285 361 b 284 361 284 360 283 360 b 281 359 280 357 279 356 z m 123 181 b 123 181 123 182 123 182 b 123 182 123 182 123 181 b 121 180 119 177 118 176 b 118 175 118 175 118 175 b 118 175 118 175 118 175 b 120 177 121 178 123 181 z m 132 194 l 132 194 b 132 194 132 194 132 194 b 132 195 132 196 133 199 b 132 196 132 195 132 194 l 132 194 b 130 193 128 191 127 190 b 127 190 127 189 125 189 b 127 189 127 189 127 189 b 129 191 131 192 132 194 z m 145 212 b 145 212 146 212 146 213 b 146 213 146 213 146 213 b 146 213 146 213 146 213 b 146 213 145 212 145 212 z m 183 258 b 183 258 183 259 183 259 b 183 259 183 259 182 259 b 180 257 178 256 177 254 b 177 254 177 254 177 253 b 177 254 177 254 177 254 b 179 255 180 257 183 258 z m 184 260 b 184 260 184 259 183 259 b 183 259 184 259 184 259 b 184 259 184 260 184 260 z m 195 272 l 196 272 l 196 273 l 195 273 l 195 272 z"},"<":{"x_min":0,"x_max":353,"ha":353,"o":"m 255 313 b 255 313 255 313 255 313 l 255 313 b 255 313 255 313 255 313 z m 21 177 b 19 164 23 157 31 152 b 35 151 39 150 41 148 b 72 135 102 123 132 109 b 172 89 214 69 254 47 b 266 42 276 35 289 28 b 294 30 297 32 301 33 b 314 40 321 67 307 72 b 301 74 295 79 288 81 b 274 88 260 95 244 101 b 209 114 178 130 144 146 b 129 152 113 157 99 164 b 93 166 86 167 83 175 b 87 177 91 180 94 182 b 136 201 177 226 217 252 b 243 268 267 289 289 312 b 298 323 302 332 301 343 b 294 346 289 344 284 339 b 274 330 264 322 255 313 b 256 312 257 312 259 311 b 249 300 238 290 227 282 b 208 270 189 258 170 247 b 164 242 157 240 149 238 b 152 239 154 242 156 244 b 172 255 190 265 207 277 b 221 286 233 295 248 305 b 249 305 249 307 250 309 l 250 308 b 250 309 250 309 250 309 b 250 309 250 309 250 309 b 250 310 250 311 250 312 b 250 312 250 312 250 313 b 250 314 249 315 249 315 b 241 311 233 306 226 301 b 207 290 190 277 171 266 b 136 246 101 227 65 214 b 58 211 50 208 41 204 b 29 198 24 199 21 177 z m 145 236 b 146 236 147 237 148 237 b 147 236 147 235 146 234 b 146 234 145 235 144 235 b 145 235 145 236 145 236 z m 255 313 b 255 313 254 313 254 313 b 255 313 255 313 255 313 b 255 313 255 313 255 313 z m 251 313 b 251 313 251 313 251 313 b 251 313 251 313 250 313 b 250 313 250 313 251 313 b 251 313 251 313 251 313 z m 254 313 b 253 313 252 313 251 313 b 251 312 250 311 250 309 b 251 311 253 312 254 313 z"},"'":{"x_min":0,"x_max":169,"ha":169,"o":"m 133 525 b 131 525 128 525 124 525 b 112 527 104 521 103 513 b 102 505 102 497 101 491 b 100 460 98 430 96 400 b 96 393 97 387 102 381 b 102 380 104 379 105 378 b 109 378 113 378 117 378 b 128 387 132 398 134 409 b 135 420 136 429 138 439 b 141 452 142 464 146 475 b 152 486 153 497 153 507 b 155 517 145 524 133 525 z"},"=":{"x_min":0,"x_max":382,"ha":382,"o":"m 336 135 b 333 142 329 148 323 153 b 319 158 314 157 307 158 b 259 159 183 158 98 158 b 79 158 61 157 44 163 b 32 167 24 162 25 149 b 25 147 25 146 25 144 b 27 133 36 125 48 125 b 63 125 79 126 95 126 b 126 126 159 126 195 130 b 179 130 179 130 171 135 b 188 137 278 138 302 138 b 304 138 306 138 306 134 b 304 130 298 131 293 130 b 288 130 283 135 276 130 b 284 128 291 130 297 129 b 304 128 309 127 316 126 b 321 125 328 120 335 122 b 336 126 338 131 336 135 z m 245 133 b 245 132 245 132 246 131 b 246 131 247 132 247 132 b 247 132 247 133 247 133 b 246 133 246 133 245 133 z m 331 245 b 329 247 327 249 323 249 b 326 252 328 254 329 255 b 324 262 318 267 309 267 b 292 266 276 266 259 266 b 214 267 167 264 123 262 b 118 262 115 262 112 262 b 85 260 61 259 35 264 b 32 261 29 257 25 253 b 26 250 28 248 28 245 b 27 236 32 232 39 229 b 48 226 56 225 65 225 b 90 225 113 234 138 235 b 164 236 191 239 217 240 b 232 241 247 240 262 240 b 283 240 305 241 327 235 b 329 235 332 236 335 236 b 336 236 336 238 337 241 b 335 241 333 243 331 245 z m 195 250 b 201 251 208 252 214 253 b 230 253 246 253 263 253 b 272 253 283 252 292 252 b 298 252 303 251 307 249 b 288 246 210 245 195 250 z"},"a":{"x_min":0,"x_max":282,"ha":282,"o":"m 282 73 b 283 73 283 73 283 74 b 283 73 282 74 282 73 b 281 73 281 72 280 72 b 281 72 282 73 282 73 z m 284 75 b 285 75 285 76 286 76 b 286 77 287 78 287 78 b 287 78 286 77 285 76 b 285 76 285 76 284 75 z m 293 85 b 292 83 291 82 290 81 b 289 80 289 79 288 79 b 289 79 290 80 290 80 b 292 81 293 83 294 84 b 295 85 297 87 298 88 b 297 87 295 86 293 85 z m 389 190 b 387 191 386 189 386 187 b 387 188 388 188 388 188 b 389 188 389 190 389 190 z m 278 68 b 278 69 279 70 280 71 b 279 70 278 69 277 69 b 277 69 277 69 277 68 b 277 68 277 68 278 68 z m 298 88 b 299 89 301 90 302 91 b 303 93 304 94 306 96 b 305 94 303 93 302 92 b 300 91 299 89 298 88 z m 379 183 b 358 164 336 148 314 130 b 297 115 278 100 262 85 b 239 64 215 47 189 32 b 187 31 186 30 183 30 l 183 30 b 182 30 179 32 179 33 b 178 35 177 37 177 39 b 176 51 172 70 175 82 b 176 85 176 89 175 92 b 174 95 173 98 171 101 b 170 103 168 106 166 106 b 159 109 154 113 149 119 b 146 123 142 124 138 123 b 133 123 128 120 123 117 l 74 85 l 33 58 b 27 54 21 52 15 49 l 12 47 b 10 47 7 48 7 49 l 7 53 b 15 69 23 83 34 96 b 39 102 44 109 50 115 b 52 119 55 123 58 126 b 69 136 79 148 91 157 b 102 165 113 174 126 180 b 132 182 139 186 144 191 b 146 193 148 194 150 195 b 155 197 160 195 162 189 b 164 184 163 178 160 174 l 150 162 l 149 161 b 150 160 150 158 151 158 b 155 156 159 156 163 154 b 166 153 169 154 171 156 l 182 163 b 185 166 187 169 188 173 b 189 175 190 178 192 180 b 195 185 194 190 191 195 b 185 205 178 213 168 217 b 158 220 148 221 137 222 b 135 222 131 221 129 219 b 125 215 121 214 116 213 b 111 213 106 211 101 208 b 89 203 78 195 68 186 b 55 174 43 161 30 150 b 22 143 14 135 8 126 b -4 111 -15 95 -23 77 b -29 65 -33 52 -32 38 b -30 34 -28 30 -27 25 b -25 20 -22 16 -18 13 l -4 4 b 2 0 7 0 13 2 b 17 4 22 6 26 9 b 35 14 43 21 52 26 b 65 35 77 45 89 56 b 102 68 117 76 131 86 b 133 87 136 85 137 82 b 137 75 138 68 139 60 b 141 46 149 28 158 18 b 160 16 162 14 164 12 b 169 8 173 3 178 0 b 185 -4 193 -4 200 0 b 218 9 235 18 251 31 b 259 38 267 44 272 53 b 273 54 273 55 272 56 b 273 58 272 60 273 62 b 274 64 276 66 277 68 b 274 68 272 67 269 65 b 264 62 259 59 253 56 b 253 56 251 57 250 57 b 250 58 250 59 250 59 b 253 64 256 67 259 70 b 268 76 275 83 282 91 b 291 100 300 110 310 119 b 327 133 344 148 362 161 b 368 167 375 173 381 178 b 384 180 385 183 386 187 b 384 186 381 185 379 183 z m 88 186 b 86 184 85 184 83 183 b 84 185 86 185 88 186 z m -18 66 b -18 66 -18 66 -19 66 l -17 68 b -17 67 -18 66 -18 66 z m 2 95 l -12 74 b -13 72 -14 70 -17 69 l -17 73 b -12 85 -7 98 1 107 l 36 147 l 47 159 b 57 169 67 176 78 182 b 79 182 80 182 81 183 b 80 181 80 179 79 178 b 74 174 69 170 65 165 b 42 144 21 121 2 95 z m 133 95 b 132 95 131 93 130 93 b 117 82 103 74 89 67 l 79 65 b 81 71 85 72 89 74 b 92 75 94 77 94 79 b 94 83 95 85 98 87 l 106 94 b 111 99 117 102 124 100 b 125 99 127 101 128 102 l 128 101 b 129 101 130 101 131 100 b 133 99 134 97 133 95 z m 306 96 b 308 96 309 97 310 99 b 310 100 310 100 310 100 b 310 100 310 100 309 99 b 308 98 307 97 306 96 z"},"L":{"x_min":0,"x_max":232,"ha":232,"o":"m 419 -41 b 410 -39 400 -38 390 -36 b 365 -31 341 -28 315 -26 b 303 -26 290 -23 278 -23 b 252 -21 226 -20 201 -19 b 195 -19 188 -18 182 -19 b 150 -20 118 -21 86 -22 b 82 -22 77 -22 71 -22 b 72 -13 72 -6 73 1 b 73 9 74 16 72 24 b 71 27 70 30 70 34 b 70 41 71 47 70 53 b 70 67 70 100 70 114 b 70 115 70 117 70 118 b 71 130 72 161 71 173 b 71 173 70 173 69 173 b 67 169 65 166 63 161 b 61 164 60 166 60 168 b 60 175 61 182 61 190 b 63 194 62 197 59 200 b 54 190 59 180 53 172 b 52 178 51 185 51 191 b 53 207 54 223 55 239 b 56 250 57 260 56 271 b 56 274 55 278 61 281 b 62 276 64 272 62 268 b 59 258 59 248 59 238 b 59 237 59 235 60 233 b 66 238 65 244 64 249 b 63 262 66 275 68 288 b 68 290 68 291 68 292 b 68 293 67 294 66 295 b 64 295 62 294 60 293 b 59 295 58 296 58 296 b 61 304 61 311 59 318 b 58 320 60 323 61 326 b 64 324 66 323 68 321 b 71 334 73 346 76 358 b 76 364 76 370 78 375 b 79 388 82 400 85 412 b 89 427 92 442 101 456 b 104 461 108 467 108 474 b 110 481 113 488 121 494 b 117 479 112 466 107 452 b 103 439 99 426 96 412 b 93 398 91 384 90 370 b 89 357 84 343 88 329 b 93 332 91 336 91 339 b 92 347 92 355 94 363 b 96 374 98 385 101 395 b 104 407 107 420 109 431 b 114 445 120 457 120 471 b 120 473 122 475 122 476 b 128 488 134 500 138 513 b 141 523 147 532 154 539 b 165 550 177 561 189 571 b 196 577 205 579 214 577 b 232 571 245 560 253 543 b 262 525 261 505 260 485 b 259 475 257 465 254 455 b 252 447 250 440 248 433 b 245 421 243 408 230 401 b 228 402 227 404 225 406 b 224 403 223 400 224 400 b 230 394 232 386 241 383 b 249 380 270 388 274 396 b 275 398 276 400 276 403 b 279 408 280 414 283 420 b 286 432 289 445 298 455 b 300 458 300 462 302 466 b 304 477 304 488 303 500 b 302 514 301 529 296 542 b 290 560 282 576 265 585 b 258 588 250 592 242 594 b 228 597 214 600 199 597 b 172 593 147 581 126 562 b 119 555 113 548 110 539 b 109 533 107 528 104 523 b 90 497 82 469 72 442 b 69 433 67 423 65 414 b 60 388 57 363 54 337 b 50 307 47 276 45 246 b 43 216 43 165 42 135 b 41 112 40 68 40 45 b 39 26 41 6 42 -13 b 41 -16 41 -20 41 -23 b 28 -24 18 -24 8 -25 b -19 -29 -49 -32 -77 -41 b -83 -43 -90 -44 -93 -50 b -95 -58 -103 -66 -93 -74 b -91 -75 -93 -78 -92 -80 b -91 -83 -88 -85 -84 -84 b -76 -83 -67 -81 -59 -79 b -42 -75 -25 -72 -9 -71 b 23 -69 56 -66 89 -63 b 102 -62 116 -60 129 -60 b 149 -59 169 -60 188 -59 b 208 -58 227 -55 247 -57 b 255 -58 262 -57 271 -56 b 269 -55 268 -54 268 -54 b 253 -53 238 -51 223 -51 b 208 -50 194 -50 180 -50 b 151 -50 122 -47 94 -53 b 91 -53 88 -54 85 -50 b 96 -48 106 -47 117 -45 b 119 -45 119 -46 121 -46 b 123 -47 125 -47 127 -47 b 149 -46 171 -45 192 -45 b 219 -45 244 -46 271 -47 b 292 -48 313 -50 334 -52 b 347 -53 360 -55 373 -56 b 376 -56 380 -56 384 -56 b 389 -57 393 -57 397 -57 b 407 -59 415 -63 427 -59 b 427 -54 427 -48 428 -43 b 425 -42 422 -41 419 -41 z m 131 513 b 132 513 132 513 132 513 b 132 512 132 512 131 511 b 131 511 131 512 130 512 b 131 512 131 513 131 513 z m 90 463 b 90 463 91 463 91 463 b 91 462 90 462 90 462 b 90 462 90 462 90 462 b 90 462 90 462 90 463 z m 87 454 b 87 454 88 454 89 454 b 88 450 86 446 85 442 b 82 447 86 450 87 454 z m 83 435 b 83 435 83 435 83 435 b 83 435 83 435 83 434 b 83 435 83 435 83 435 z m 74 401 b 74 401 74 401 74 401 b 74 400 74 399 74 398 b 74 398 73 398 73 398 b 73 399 73 400 74 401 z m 69 364 b 69 363 70 363 71 362 b 70 361 69 360 69 360 b 68 361 68 361 68 362 b 67 363 68 363 69 364 z m 66 352 b 66 352 66 352 67 352 b 67 351 68 350 67 349 b 67 348 67 347 66 346 b 66 346 65 346 65 347 b 65 348 65 350 66 352 z m 63 336 b 63 336 63 336 64 336 b 64 335 64 334 64 333 b 63 333 63 333 63 333 b 63 334 63 335 63 336 z m 50 56 b 47 79 52 143 51 166 b 52 166 53 166 54 166 b 53 143 53 80 52 57 b 52 57 51 56 50 56 z m 63 156 b 67 147 64 118 63 110 b 64 101 62 73 62 63 b 55 73 56 140 63 156 z m 61 58 b 65 46 64 35 61 23 b 59 34 58 46 61 58 z m 63 -9 b 62 -1 62 6 61 14 b 64 9 66 0 63 -9 z m 247 -35 b 247 -34 247 -34 247 -33 b 249 -33 250 -33 252 -33 b 252 -33 252 -34 252 -35 b 251 -35 249 -35 247 -35 z m 279 -36 b 279 -36 279 -36 279 -36 b 281 -36 283 -36 284 -36 b 284 -36 284 -36 284 -36 b 283 -36 281 -36 279 -36 z m 328 -40 b 328 -40 328 -40 328 -40 b 328 -40 328 -40 329 -40 b 328 -40 328 -40 328 -40 z m 341 -42 b 340 -43 340 -42 339 -42 b 340 -41 340 -41 341 -40 b 341 -41 342 -41 342 -41 b 342 -42 341 -42 341 -42 z m 388 -49 b 388 -49 388 -48 388 -48 b 388 -48 389 -48 389 -48 b 389 -48 389 -49 389 -49 b 389 -49 388 -49 388 -49 z m 84 281 b 84 281 84 282 83 283 b 79 275 78 262 80 252 b 85 259 82 268 84 275 b 85 277 84 279 84 281 z m 85 317 b 85 317 84 317 83 317 b 82 310 80 303 83 296 b 84 303 84 310 85 317 z m 60 209 b 63 215 63 221 61 227 b 60 221 55 215 60 209 z m 400 -66 b 407 -66 414 -66 421 -66 b 421 -66 421 -65 421 -65 b 414 -65 407 -65 400 -65 b 400 -65 400 -66 400 -66 z m 66 309 b 66 309 67 309 67 309 b 67 311 68 312 69 314 b 68 314 67 314 67 314 b 67 313 66 311 66 309 z m 69 185 b 70 184 71 183 72 183 b 72 184 71 185 71 188 b 70 186 69 185 69 185 z"},"3":{"x_min":0,"x_max":394,"ha":394,"o":"m 352 485 b 350 501 351 521 341 534 b 340 540 336 543 330 548 b 327 550 325 554 322 557 b 320 559 318 563 315 565 b 306 573 294 577 283 579 b 268 581 250 581 234 577 b 208 572 185 563 160 552 b 141 542 121 531 103 517 b 86 505 70 495 55 482 b 46 474 37 466 27 461 b 18 457 12 450 6 442 b 4 439 3 433 3 429 b 4 424 5 420 6 414 b 7 411 9 409 10 407 b 12 404 15 402 19 404 b 24 405 27 405 31 406 b 33 410 35 413 37 416 b 41 421 45 423 49 426 b 54 430 58 435 62 441 b 66 448 71 452 77 457 b 87 465 99 475 111 485 b 125 499 143 510 160 522 b 166 525 171 527 177 530 b 188 533 197 536 207 540 b 218 543 229 548 239 550 b 248 553 258 555 268 556 b 285 558 300 553 310 537 b 313 531 316 526 315 517 b 315 506 315 497 314 487 b 313 479 311 470 306 462 b 304 460 302 458 301 456 b 290 433 276 415 259 400 b 257 398 253 394 251 390 b 247 382 239 375 233 367 b 223 351 210 340 198 330 b 190 323 182 318 171 314 b 165 310 160 307 155 303 b 140 288 121 278 104 264 b 98 260 93 257 87 256 b 79 254 74 249 67 245 b 62 240 60 235 60 229 b 60 226 62 223 65 222 b 68 221 69 217 71 214 b 77 204 83 202 94 205 b 103 207 109 210 116 214 b 125 224 135 228 147 230 b 153 232 159 234 165 235 b 170 236 173 238 174 244 b 174 247 176 249 181 249 b 185 250 189 250 193 250 b 202 250 210 248 219 245 b 208 241 198 244 187 239 b 196 239 203 238 209 237 b 216 236 224 235 231 234 b 237 232 243 230 249 228 b 251 227 254 225 255 223 b 260 213 264 205 264 196 b 263 192 257 163 253 160 b 252 157 251 155 249 153 b 241 145 235 135 229 127 b 226 124 223 121 220 118 b 204 105 190 91 172 81 b 164 74 156 69 148 62 b 130 52 112 45 92 39 b 84 38 77 37 70 37 b 66 37 60 39 56 42 b 50 46 46 50 44 56 b 44 58 42 60 41 62 b 40 66 37 66 36 62 b 31 56 30 50 33 45 b 39 33 47 24 58 16 b 72 6 87 3 104 5 b 117 6 129 9 141 14 b 151 20 162 25 172 30 b 174 31 177 32 181 34 b 204 51 228 68 248 89 b 259 99 270 110 277 123 b 284 134 288 147 292 159 b 297 170 298 180 296 193 b 293 204 289 213 279 221 b 275 224 272 227 270 233 b 268 238 263 240 258 242 b 242 250 226 255 208 257 b 202 258 196 259 190 260 b 188 260 186 263 186 264 b 187 266 187 269 188 269 b 193 275 199 280 205 284 b 211 288 216 294 222 299 b 239 316 253 336 272 355 b 279 362 285 374 291 382 b 292 384 292 387 292 390 b 290 389 288 388 285 387 b 282 386 280 387 280 388 b 280 390 280 391 280 392 b 287 403 292 413 300 422 b 306 431 312 442 316 453 b 317 456 319 459 321 462 b 322 462 324 462 325 462 b 325 462 326 461 326 460 b 326 455 322 450 324 444 b 325 439 324 434 321 431 b 319 429 316 428 315 425 b 311 414 304 406 299 397 b 300 397 301 397 302 397 b 307 394 311 392 314 400 b 316 404 318 407 321 410 b 332 426 340 444 347 461 b 350 469 353 476 352 485 z m 233 106 b 220 89 204 73 186 60 b 183 58 180 56 175 54 b 166 47 155 41 145 35 b 132 28 120 25 107 20 b 102 18 95 18 88 17 b 87 17 85 17 83 18 b 82 18 82 19 82 19 b 81 21 81 22 82 24 b 96 27 108 31 120 35 b 138 43 156 53 172 63 b 185 72 195 81 204 89 b 212 97 222 103 230 110 b 232 111 233 110 234 109 b 234 108 234 106 233 106 z m 263 135 b 263 135 262 135 261 135 b 260 137 261 138 262 138 b 263 138 263 137 264 137 b 264 136 263 135 263 135 z m 215 324 b 207 315 199 306 190 298 b 181 290 169 283 159 277 b 155 273 151 268 146 264 b 143 262 140 262 136 261 b 135 260 134 261 134 261 b 133 262 132 263 133 265 b 135 268 137 270 140 273 b 156 285 173 298 192 311 b 208 326 224 339 239 356 b 242 359 245 362 248 366 b 249 367 251 367 253 368 b 254 362 252 360 249 357 b 238 346 227 334 215 324 z m 254 370 b 254 371 255 372 258 373 b 257 371 255 370 254 370 z m 292 390 b 292 390 292 390 292 390 b 293 390 293 390 293 390 b 293 390 293 390 293 390 b 293 390 293 390 293 390 b 294 391 297 394 298 395 l 298 395 b 298 395 298 395 299 397 b 298 397 298 397 298 397 b 296 394 294 392 292 390 z"},";":{"x_min":0,"x_max":184,"ha":184,"o":"m 101 64 b 93 71 82 73 71 76 b 67 78 62 75 61 70 b 59 60 58 49 55 39 b 45 -1 35 -39 24 -77 b 23 -80 22 -83 20 -86 b 25 -88 29 -89 35 -91 b 46 -83 55 -72 62 -60 b 69 -47 76 -34 82 -21 b 87 -13 91 -3 97 5 b 102 11 104 17 106 24 b 108 29 108 35 110 40 b 112 51 108 57 101 64 z m 122 204 b 107 209 88 205 76 191 b 75 184 74 178 73 172 b 80 156 98 143 117 142 b 136 157 137 152 142 166 b 144 167 140 185 140 186 b 141 191 126 203 122 204 z"},"J":{"x_min":0,"x_max":415,"ha":415,"o":"m 220 62 b 220 62 220 62 220 62 b 220 62 220 62 220 62 b 220 62 220 62 220 62 z m 347 528 b 339 535 327 534 318 539 b 317 539 316 539 314 538 b 304 537 299 530 299 521 b 299 510 298 498 300 487 b 300 484 301 480 301 476 b 303 449 303 423 303 396 b 303 377 303 359 303 340 b 303 335 303 329 303 324 b 301 308 300 292 299 276 b 298 267 297 259 295 251 b 293 244 291 237 291 230 b 291 225 290 220 290 214 b 289 212 290 209 290 207 b 290 204 291 200 290 197 b 289 186 286 176 281 166 b 280 165 279 164 278 163 b 278 160 277 156 277 152 b 276 151 275 150 274 150 b 273 150 271 151 271 152 b 270 153 270 154 270 155 b 265 151 264 146 262 142 b 261 138 260 134 258 131 b 252 121 247 110 239 101 b 237 98 235 95 233 91 b 230 84 226 76 221 69 b 220 67 220 64 220 62 b 221 62 222 62 224 62 b 226 62 228 61 227 59 b 225 51 220 44 213 39 b 208 36 202 32 197 29 b 194 27 191 25 189 21 b 186 16 183 11 179 7 b 176 3 174 -2 169 -5 b 165 -7 164 -11 163 -15 b 163 -15 162 -16 161 -16 b 160 -16 159 -16 158 -14 b 158 -13 158 -11 157 -10 b 157 -9 154 -8 154 -9 b 143 -17 130 -19 118 -22 b 106 -24 94 -25 83 -25 b 71 -26 61 -22 52 -16 b 37 -6 26 7 19 23 b 17 27 16 31 14 34 b 11 39 9 43 10 49 b 10 52 9 55 9 58 b 4 85 3 113 2 140 b 2 143 2 146 3 149 b 5 164 7 178 9 192 b 11 201 13 210 17 218 b 18 222 19 226 19 229 b 19 231 19 232 18 233 b 16 232 15 231 14 229 b 9 223 5 216 0 210 b -7 203 -12 194 -14 184 b -15 179 -17 174 -19 169 b -25 147 -28 125 -29 102 b -29 71 -21 42 -3 15 b 5 3 13 -9 23 -20 b 31 -28 40 -35 51 -40 b 79 -53 109 -56 140 -48 b 145 -46 150 -45 155 -42 b 177 -32 196 -19 214 -3 b 224 9 237 19 247 32 b 256 45 264 57 273 70 b 290 96 302 124 311 153 b 319 180 324 206 329 233 b 331 240 331 247 332 255 b 334 271 335 287 337 303 b 339 322 342 342 341 361 b 340 364 341 366 341 369 b 344 381 344 393 344 406 b 344 419 345 432 347 445 b 348 450 349 456 349 462 b 349 478 350 494 352 511 b 353 514 353 517 352 520 b 352 524 350 526 347 528 z m -7 145 b -9 133 -7 121 -11 110 b -11 104 -10 97 -10 91 b -10 84 -6 77 -9 70 b -10 69 -10 68 -10 68 b -12 68 -13 69 -13 70 b -14 71 -14 71 -14 72 b -19 85 -19 100 -22 113 b -21 116 -21 119 -21 121 b -20 128 -20 136 -19 143 b -17 155 -15 167 -9 178 b -8 178 -7 178 -7 178 b -6 178 -5 178 -5 177 b -5 175 -4 173 -5 172 b -5 163 -6 153 -7 145 z m 128 -34 b 127 -34 126 -34 125 -34 b 125 -31 127 -33 128 -33 b 128 -33 128 -34 128 -34 z m 146 -25 b 146 -25 147 -25 148 -25 b 147 -25 147 -26 146 -26 b 146 -26 146 -26 146 -25 z m 328 311 b 327 311 326 311 326 311 b 326 313 325 315 325 317 b 325 317 327 318 327 319 b 328 318 330 317 330 316 b 329 315 329 313 328 311 z m 330 366 b 330 366 329 367 329 367 b 329 369 329 370 329 372 b 329 372 331 372 331 372 b 331 371 332 370 332 369 b 332 368 331 367 330 366 z m 334 385 b 334 386 333 386 333 387 b 334 389 335 389 335 386 b 334 386 334 386 334 385 z m 278 163 l 278 163 l 278 163 l 278 163 b 278 163 278 163 278 163 b 278 163 278 163 278 164 b 278 164 278 163 278 163 b 278 163 278 164 278 164 b 278 163 278 163 278 163 b 278 163 278 163 278 163 l 278 163 z m 521 578 b 518 586 511 589 504 591 b 495 592 486 593 477 594 b 447 598 416 599 386 599 b 359 598 332 598 305 595 b 292 594 279 592 265 592 b 241 591 216 588 191 587 b 175 587 159 584 143 582 b 140 582 137 581 133 580 b 132 579 130 578 129 576 b 128 573 127 570 126 567 b 125 564 125 562 127 560 b 129 556 132 553 134 550 b 138 546 143 545 149 544 b 152 544 155 544 157 544 b 171 545 185 545 199 547 b 221 549 244 550 267 553 b 280 555 293 556 306 557 b 316 558 325 559 335 561 b 346 564 358 565 370 564 b 380 564 389 564 399 566 b 413 569 428 569 442 569 b 462 569 481 569 500 569 b 506 569 511 570 517 571 b 520 571 522 575 521 578 z m 277 169 b 276 169 275 171 274 170 b 273 170 271 169 271 168 b 271 164 270 160 270 156 b 272 158 275 161 278 163 b 277 165 277 167 277 169 z m 270 156 b 270 156 269 156 269 155 b 269 155 269 155 270 155 b 270 155 270 155 270 155 b 270 155 270 156 270 156 z m 178 8 l 178 7 b 178 7 178 7 179 7 b 179 7 179 7 179 7 l 178 8 z m 211 50 l 211 50 l 212 51 l 211 50 z m 220 62 b 220 62 220 62 220 62 l 220 62 b 220 62 219 62 220 62 z m 218 60 b 219 60 220 61 220 62 b 219 62 219 61 218 61 b 218 61 218 60 218 60 z"},"V":{"x_min":0,"x_max":411,"ha":411,"o":"m 517 703 b 514 706 510 706 506 705 b 504 704 502 705 500 705 b 490 705 482 701 478 692 b 474 681 468 670 463 660 b 454 641 444 623 437 603 b 437 600 435 598 434 595 b 419 563 403 530 388 498 b 379 479 370 460 362 441 b 355 425 349 409 342 393 b 338 382 333 371 329 360 b 317 324 303 289 290 253 b 275 213 261 172 247 132 b 238 103 228 74 219 45 b 215 32 210 20 204 8 b 199 1 195 -7 191 -15 b 189 -19 186 -22 183 -25 b 181 -28 177 -28 175 -24 b 171 -16 167 -8 164 0 b 159 14 155 28 150 42 b 148 47 145 53 146 59 b 147 61 145 63 144 65 b 143 67 141 68 140 70 b 138 82 135 93 132 104 b 131 106 131 108 131 110 b 131 117 130 124 128 131 b 125 147 120 163 122 180 b 122 183 121 187 120 190 b 116 199 114 207 115 216 b 116 218 115 220 114 222 b 113 227 112 232 111 236 b 110 241 109 244 107 248 b 102 257 102 267 107 276 b 108 279 108 283 106 286 b 106 287 105 288 104 289 b 98 294 97 301 97 308 b 96 319 96 330 96 341 b 96 347 98 352 98 358 b 98 364 95 370 95 376 b 94 383 94 391 94 399 b 92 432 91 465 89 498 b 89 501 88 504 87 506 b 85 510 83 513 80 517 b 79 520 75 522 72 522 b 68 522 65 522 62 522 b 57 523 53 522 50 519 b 48 518 46 517 44 516 b 41 514 39 512 38 508 b 35 497 36 485 37 473 b 40 450 43 426 47 403 b 51 372 55 342 63 311 b 64 309 64 307 64 305 b 64 291 70 278 69 264 b 69 262 70 260 71 258 b 75 249 76 240 77 230 b 78 221 78 212 80 203 b 84 185 86 166 89 148 b 91 135 93 122 95 109 b 96 99 98 90 101 81 b 102 76 104 71 105 67 b 109 45 115 24 122 3 b 126 -9 132 -20 138 -31 b 143 -41 151 -48 158 -55 b 161 -57 164 -58 167 -59 b 171 -60 174 -60 177 -61 b 184 -63 191 -63 198 -62 b 201 -61 203 -61 206 -60 b 212 -59 216 -56 219 -51 b 224 -40 228 -29 235 -19 b 237 -16 238 -13 239 -10 b 241 -3 244 3 246 10 b 249 17 252 25 254 33 b 256 38 255 39 251 42 b 247 43 246 45 246 49 b 247 52 247 55 247 59 b 243 54 239 50 236 47 b 240 68 245 88 251 108 b 257 129 265 150 272 171 b 280 195 289 219 298 243 b 300 245 300 248 301 250 b 311 279 321 308 332 336 b 333 341 335 345 337 350 b 346 372 356 395 364 417 b 370 431 377 444 385 457 l 386 456 l 386 457 l 385 457 b 386 464 388 471 392 478 b 397 487 401 497 405 506 b 411 518 416 530 422 542 b 427 552 432 562 436 572 b 448 601 465 629 479 657 b 481 663 485 667 489 672 b 489 668 490 665 490 661 b 493 662 494 665 498 664 b 498 662 498 659 497 656 b 495 652 492 648 490 644 b 486 631 481 619 475 607 b 474 607 474 606 474 605 b 473 602 475 598 478 597 b 480 595 486 596 488 599 b 490 601 491 604 493 607 b 497 616 499 624 504 632 b 513 647 518 664 523 680 b 524 682 524 684 524 686 b 524 693 522 698 517 703 z m 73 380 b 73 379 72 379 72 379 b 71 380 71 382 71 384 b 71 384 72 385 72 385 b 72 385 73 384 73 384 b 73 382 73 381 73 380 z m 136 7 b 130 19 126 32 123 46 b 122 56 118 65 115 74 b 114 76 113 78 113 80 b 112 94 107 107 105 121 b 104 128 103 136 102 143 b 102 147 101 151 100 155 b 95 179 92 203 89 227 b 88 235 88 242 86 250 b 82 272 81 295 77 318 b 75 331 73 345 74 359 b 74 359 75 360 75 361 b 76 360 77 359 78 358 b 79 352 81 345 82 338 b 84 317 88 296 91 274 b 93 261 96 247 98 233 b 101 214 104 194 107 174 b 110 150 113 126 119 102 b 123 86 125 68 129 51 b 130 45 131 39 133 33 b 137 21 140 10 144 -2 b 145 -4 144 -6 145 -8 b 144 -7 142 -7 142 -6 b 140 -2 138 3 136 7 z m 145 -10 b 145 -10 145 -10 145 -9 b 145 -10 146 -10 146 -10 b 146 -11 147 -12 147 -12 b 146 -13 145 -12 145 -10 z m 234 43 b 234 43 235 44 235 44 b 235 44 235 43 235 42 b 235 42 234 42 234 43 z m 498 665 b 498 666 498 668 500 668 b 500 668 500 667 500 667 b 500 666 499 665 498 665 z m 331 295 b 324 281 317 266 312 251 b 306 234 299 216 292 199 b 287 186 281 172 278 158 b 277 155 277 153 275 150 b 269 138 267 124 263 111 b 262 110 263 108 264 107 b 266 109 269 111 270 115 b 272 120 273 125 275 130 b 278 140 280 149 286 157 b 288 159 289 161 290 164 b 294 175 299 186 302 197 b 304 206 308 214 312 222 b 312 223 314 223 315 224 b 315 230 316 236 319 241 b 320 242 322 243 323 245 b 324 249 324 254 327 257 b 327 262 327 266 329 271 b 331 276 333 281 335 287 b 336 290 336 294 336 298 b 334 297 332 296 331 295 z m 336 298 b 336 298 336 298 336 298 b 336 299 336 299 336 299 b 336 299 336 299 336 299 b 336 298 336 298 336 298 z m 315 224 b 315 224 315 224 315 223 b 315 223 315 224 315 224 b 315 224 315 224 315 224 b 315 224 315 224 315 224 z m 386 424 b 386 424 385 424 385 424 b 385 424 385 423 385 423 b 385 423 386 423 386 424 b 386 424 386 424 386 424 z m 394 432 b 401 448 409 464 417 480 b 421 487 423 495 426 503 b 427 505 427 508 427 510 b 424 510 423 507 422 505 b 414 489 405 472 397 456 b 397 455 396 453 396 452 b 394 445 391 438 387 431 b 386 429 386 427 386 424 b 390 425 392 428 394 432 z m 385 423 b 385 423 384 423 384 422 b 369 404 361 382 357 359 b 357 358 358 358 358 357 b 359 357 359 357 360 358 b 367 373 374 388 382 404 b 384 410 386 416 385 423 z m 449 527 b 439 515 435 500 428 487 b 426 482 423 477 423 471 b 423 471 423 470 423 469 b 427 470 429 473 430 476 b 439 491 445 508 452 525 b 452 525 451 526 451 527 b 451 527 450 527 449 527 z m 401 430 b 396 420 392 410 387 400 b 386 398 386 394 386 391 b 393 398 395 407 401 415 b 405 421 407 428 406 435 b 404 434 402 432 401 430 z m 406 435 b 406 435 407 435 407 435 b 407 436 407 436 407 436 b 407 436 407 436 406 436 b 406 436 406 435 406 435 z m 348 327 b 341 327 338 325 338 319 b 338 312 334 306 336 299 b 337 300 338 300 339 301 b 343 309 347 318 348 327 z m 323 232 b 323 232 323 232 324 232 b 324 232 324 232 324 233 b 323 232 323 232 323 232 b 323 232 323 232 323 232 z m 315 224 b 316 218 314 212 312 206 b 311 206 312 204 313 203 b 313 203 314 203 314 204 b 318 213 323 221 323 232 b 322 231 320 230 319 229 b 318 227 317 225 315 224 z m 419 453 b 422 457 424 463 423 469 b 416 462 413 457 411 445 b 415 447 416 450 419 453 z m 423 469 b 423 469 423 469 423 469 b 423 469 423 469 423 469 b 423 469 423 469 423 469 b 423 469 423 469 423 469 z m 381 380 b 381 381 382 381 382 381 b 382 382 382 382 382 382 b 382 382 382 382 381 382 b 381 381 381 381 381 380 z m 379 371 b 380 374 381 377 381 380 b 376 375 373 369 374 362 b 377 364 378 368 379 371 z m 331 247 b 334 252 335 258 336 264 b 332 263 331 259 328 257 b 328 253 328 249 328 245 b 329 246 330 246 331 247 z m 328 257 b 328 257 328 257 328 258 b 327 257 327 257 327 257 b 327 257 327 257 327 257 b 327 257 328 257 328 257 z m 328 244 b 328 245 328 245 328 245 b 328 245 327 245 327 245 l 328 244 z m 463 558 b 462 555 461 552 460 549 b 464 550 466 552 467 555 b 468 556 468 558 467 560 b 467 562 464 560 463 558 z m 460 548 b 460 548 460 548 460 549 b 460 549 460 549 460 549 b 460 549 460 549 460 549 b 460 549 460 548 460 548 z m 457 539 b 457 539 458 539 458 539 b 460 542 460 545 460 548 b 458 546 456 543 455 540 b 455 540 456 539 457 539 z m 356 322 b 356 323 357 323 357 323 b 357 323 357 324 357 324 b 357 324 357 324 356 324 b 356 323 356 323 356 322 z m 356 322 b 353 320 353 316 353 313 b 355 316 356 319 356 322 z m 348 299 b 351 301 352 303 352 306 b 352 307 352 309 352 311 b 348 308 348 304 348 299 z m 352 311 b 352 311 352 311 353 311 b 353 312 353 312 353 313 b 352 313 352 312 352 312 b 352 311 352 311 352 311 z m 337 266 b 337 265 336 265 336 265 b 336 264 336 264 336 264 b 336 264 336 264 337 264 b 337 265 337 265 337 266 z m 337 272 b 337 272 337 271 337 270 b 337 269 337 267 337 266 b 337 267 338 269 338 270 b 339 272 338 273 337 272 z m 327 244 b 327 244 328 244 328 244 l 327 245 b 327 245 327 245 327 244 z m 324 244 b 324 245 324 245 324 245 b 323 245 323 245 323 245 b 323 244 323 244 323 244 b 323 244 323 244 324 244 z m 324 233 b 326 234 327 236 327 239 b 327 241 327 243 327 244 b 326 244 325 244 324 244 b 324 240 324 236 324 233 z m 303 180 b 303 179 303 177 302 176 b 306 178 306 182 307 185 b 305 184 304 182 303 180 z m 307 185 b 307 185 307 185 307 185 b 307 186 307 186 307 187 b 307 187 307 186 307 186 b 307 186 307 185 307 185 z m 382 382 b 384 384 385 387 385 390 b 382 388 382 385 382 382 z m 385 390 b 386 390 386 390 386 390 b 386 391 386 391 386 391 b 386 391 386 391 385 391 b 385 390 385 390 385 390 z m 373 361 b 373 361 373 361 374 361 b 374 361 374 361 374 362 b 373 362 373 361 373 361 b 373 361 373 361 373 361 z m 369 353 b 372 355 373 358 373 361 b 369 359 369 357 369 353 z m 365 346 b 368 347 368 350 369 352 b 366 351 365 348 365 346 z m 369 352 b 369 352 369 353 369 353 b 369 353 369 353 369 353 b 369 353 369 353 369 353 b 369 353 369 353 369 352 z m 354 346 l 354 344 l 355 346 l 354 346 z m 363 341 b 364 342 364 343 364 343 b 364 343 363 342 363 342 b 363 342 363 341 363 341 z m 364 343 b 364 344 364 344 365 345 b 365 345 365 345 365 346 b 365 346 364 345 364 345 b 364 345 364 344 364 343 z m 349 331 b 349 330 349 330 349 329 b 349 329 349 328 349 327 b 348 327 348 327 348 327 b 349 327 349 327 349 327 b 349 328 349 329 349 331 z m 357 324 b 358 325 359 326 358 328 b 358 327 358 326 357 324 z m 348 298 b 348 298 348 299 348 299 b 348 299 348 299 348 299 b 348 299 348 299 348 299 b 348 299 348 299 348 298 z m 344 292 b 348 293 348 293 348 298 b 344 297 344 294 344 292 z m 343 287 b 343 288 343 289 343 290 b 343 290 343 289 343 289 b 342 287 342 286 343 287 z m 343 290 b 343 290 344 291 344 291 b 344 291 344 291 344 292 b 344 292 344 292 343 291 b 343 291 343 291 343 290 z m 307 189 b 307 189 307 188 307 187 b 308 188 309 188 307 189 z m 301 173 b 301 171 301 171 302 173 b 302 173 302 174 302 175 b 302 175 302 175 302 176 b 302 175 302 175 302 175 b 302 174 302 174 301 173 z m 292 144 l 293 145 l 292 145 l 292 144 z m 410 444 b 410 444 411 444 411 444 b 411 445 411 445 411 445 b 411 445 411 445 410 445 b 410 444 410 444 410 444 z m 410 444 b 408 442 407 439 407 436 b 409 438 410 441 410 444 z m 431 519 b 428 517 427 514 427 511 b 431 512 432 515 431 519 z m 427 511 b 427 511 427 511 427 511 b 427 511 427 510 427 510 b 427 510 427 510 427 510 b 427 511 427 511 427 511 z m 478 585 b 478 585 479 584 479 584 b 480 585 480 586 479 586 b 479 586 478 585 478 585 z m 489 660 l 490 660 b 490 660 490 661 490 661 b 490 661 490 661 490 661 l 489 660 z m 432 520 l 431 519 b 431 519 431 519 431 519 b 431 519 431 519 431 519 l 432 520 z"},"\"":{"x_min":0,"x_max":218,"ha":218,"o":"m 114 568 b 112 568 109 568 105 568 b 93 570 85 564 84 556 b 83 548 83 540 82 534 b 81 503 79 473 77 443 b 77 436 78 430 83 424 b 83 423 85 422 86 421 b 90 421 94 421 98 421 b 109 430 113 441 115 452 b 116 463 117 472 119 482 b 122 495 123 507 127 518 b 133 529 134 540 134 550 b 136 560 126 567 114 568 z m 219 566 b 209 572 197 574 186 574 b 182 574 179 572 181 567 b 182 563 183 559 179 555 b 177 553 176 550 177 549 b 174 531 172 514 170 497 b 169 492 168 487 167 482 b 167 467 167 453 168 438 b 168 434 167 430 173 426 b 178 426 183 426 190 426 b 197 431 199 438 199 446 b 205 476 211 505 223 534 b 225 540 226 548 228 555 b 229 560 225 564 219 566 z"},"7":{"x_min":0,"x_max":330,"ha":330,"o":"m 380 579 b 374 583 367 586 359 586 b 340 587 321 586 301 587 b 287 588 272 588 258 588 b 233 588 208 586 183 583 b 157 580 131 576 105 572 b 87 568 70 565 52 562 b 31 559 11 554 -8 547 b -16 544 -18 541 -17 533 b -17 530 -16 527 -16 525 b -15 520 -5 508 0 506 b 3 505 6 505 10 506 b 12 507 13 508 15 509 b 21 514 28 517 36 518 b 56 523 76 527 96 532 b 111 535 126 538 141 541 b 158 545 175 549 192 550 b 197 550 202 551 207 552 b 217 553 227 556 237 556 b 248 556 258 556 268 557 b 274 558 279 558 285 558 b 286 558 286 558 287 558 b 288 557 290 557 290 556 b 291 554 291 551 290 550 b 283 543 275 536 268 528 b 242 501 217 473 199 440 b 197 437 195 435 193 432 b 179 411 165 391 151 370 b 130 336 109 303 91 268 b 79 243 67 218 55 193 b 54 191 53 189 52 188 b 46 172 40 157 33 141 b 24 119 17 96 12 72 b 9 59 6 45 6 31 b 6 27 6 23 8 19 b 10 15 12 12 14 8 b 15 6 16 4 18 3 b 24 1 28 -4 33 -7 b 36 -9 40 -11 44 -13 b 47 -14 49 -14 52 -13 b 63 -7 63 1 59 8 b 54 14 53 22 54 30 b 54 42 56 54 59 66 b 64 81 68 96 73 110 b 81 132 90 154 98 176 b 99 179 101 182 102 185 b 111 199 116 214 124 228 b 126 231 127 235 129 239 b 130 245 133 249 136 254 b 141 260 144 267 148 273 b 149 274 150 276 150 277 b 150 278 150 280 149 280 b 148 281 146 281 145 280 b 140 275 135 268 131 260 b 127 254 123 248 118 241 b 118 241 117 241 117 240 b 116 240 115 240 115 241 b 115 241 114 242 114 242 b 114 244 114 246 115 248 b 117 254 120 258 124 262 b 128 265 130 269 132 274 b 134 282 137 290 142 296 b 145 299 146 302 148 305 b 155 317 162 329 170 340 b 173 344 176 348 180 351 b 187 354 189 361 192 367 l 193 366 b 193 366 193 367 193 367 b 195 367 196 368 196 370 b 195 371 194 371 193 371 b 193 371 193 371 193 371 b 194 372 195 374 196 375 b 197 374 197 374 197 374 b 197 374 197 375 197 375 l 196 375 b 205 383 213 391 220 401 b 233 422 248 442 263 462 b 278 483 296 501 316 518 b 323 524 330 529 337 534 b 343 539 350 542 355 548 b 356 550 359 550 361 550 b 363 550 365 550 367 549 b 379 546 383 549 384 562 b 385 563 384 565 385 566 b 387 572 385 575 380 579 z m 253 486 b 253 486 253 485 252 485 b 253 485 253 486 253 486 z m 50 84 b 50 84 49 85 48 85 b 49 86 48 88 49 90 b 49 91 51 92 52 92 b 52 93 53 92 53 91 b 52 89 51 87 50 84 z m 60 107 b 59 106 59 106 58 106 b 57 106 56 107 57 109 b 60 126 66 142 73 157 b 74 160 76 162 77 165 b 78 165 79 166 80 166 b 80 156 78 146 74 137 b 69 127 67 116 60 107 z m 112 224 b 102 210 98 194 90 180 b 87 175 85 171 81 167 b 80 171 81 175 82 179 b 85 184 87 189 89 193 b 94 201 97 209 100 218 b 101 223 103 227 107 230 b 108 230 110 230 111 230 b 112 229 112 227 112 226 b 112 225 112 225 112 224 z m 217 434 b 205 419 195 403 185 386 b 180 379 176 372 171 366 b 168 363 166 360 165 357 b 153 332 137 309 125 285 b 123 281 121 277 118 274 b 110 265 105 255 101 244 b 97 232 91 221 84 211 b 82 207 80 203 78 200 b 75 192 72 184 69 177 b 59 155 50 132 42 109 b 40 102 37 95 33 88 b 32 90 31 91 31 92 b 31 96 32 100 33 104 b 40 131 49 157 61 182 b 70 203 79 224 89 244 b 100 265 109 286 122 304 b 125 309 128 314 131 319 b 133 323 135 327 138 331 b 147 346 156 360 166 375 b 182 399 200 423 218 447 b 222 452 226 456 231 461 b 231 461 233 462 234 462 b 234 459 233 457 231 455 b 227 448 222 441 217 434 z m 238 465 b 237 463 236 462 234 462 b 234 464 234 466 236 467 b 236 468 237 468 237 468 b 239 468 239 467 238 465 z m 197 372 b 197 373 197 373 197 374 b 197 373 197 372 197 371 b 197 372 197 372 197 372 z m 196 370 b 197 370 197 370 197 370 b 197 371 197 371 197 371 b 197 371 197 371 197 371 b 196 371 196 371 196 370 z"},"S":{"x_min":0,"x_max":365,"ha":365,"o":"m 101 505 b 102 505 102 505 102 505 b 102 505 102 505 101 505 b 101 505 101 505 101 505 b 101 505 101 505 101 505 z m 629 519 b 626 527 624 534 623 543 b 623 545 622 547 621 548 b 616 555 611 561 605 567 b 586 588 563 602 536 608 b 510 613 485 618 459 618 b 455 618 452 617 449 615 b 447 614 444 613 443 613 b 432 615 422 614 412 612 b 404 611 397 611 390 611 b 386 611 382 611 379 610 b 338 605 299 596 260 582 b 236 573 212 566 190 554 b 188 552 185 552 182 550 b 175 547 169 544 162 541 b 145 533 129 521 113 511 b 109 509 106 506 101 505 b 97 498 91 493 84 492 b 80 486 76 483 69 485 b 68 485 65 484 64 482 b 49 469 37 454 27 438 b 24 433 21 428 20 422 b 17 410 14 398 13 385 b 13 374 14 363 18 352 b 24 338 31 325 43 313 b 50 306 58 299 66 293 b 87 276 113 265 136 250 b 142 246 149 243 155 240 b 183 228 210 214 236 199 b 242 196 248 192 253 188 b 268 177 276 161 278 143 b 278 140 278 137 278 134 b 276 127 274 121 270 115 b 262 101 252 89 239 78 b 227 68 215 60 202 51 b 195 47 187 43 180 40 b 165 35 149 29 134 25 b 112 19 90 11 67 10 b 67 8 67 7 69 7 b 71 6 74 6 76 6 b 92 9 108 8 123 15 b 126 16 131 15 134 15 b 139 16 143 16 147 18 b 165 25 184 30 201 37 b 209 41 216 43 223 49 b 230 56 238 61 248 62 b 252 63 255 66 258 70 b 261 75 265 79 270 83 b 272 85 276 86 279 88 b 280 88 281 87 281 87 b 282 86 282 85 281 85 b 275 77 269 69 262 61 b 262 60 261 60 261 59 b 254 54 247 48 240 42 b 236 39 232 36 227 35 b 221 34 216 31 210 28 b 199 20 184 18 173 9 b 161 8 151 2 139 1 b 131 1 124 -1 117 3 b 115 4 112 4 110 3 b 102 0 92 0 84 -5 b 84 -5 84 -5 84 -5 b 71 -6 57 -6 44 -5 b 39 -4 34 -4 29 -1 b 28 1 27 3 29 5 b 30 6 32 7 34 8 b 29 10 25 13 21 15 b 17 18 14 21 13 25 b 10 37 10 47 18 57 b 22 61 25 66 29 71 b 35 77 40 85 42 94 b 42 95 41 97 40 98 b 40 99 38 100 37 99 b 24 95 12 89 2 80 b -4 73 -9 67 -12 58 b -14 51 -14 43 -13 36 b -11 17 2 -9 20 -19 b 34 -26 47 -31 62 -32 b 69 -33 77 -33 84 -33 b 106 -31 128 -29 150 -22 b 158 -19 166 -16 175 -14 b 187 -11 197 -4 208 0 b 230 14 255 24 274 43 b 279 47 284 51 288 54 b 294 58 295 66 300 71 b 303 74 306 78 308 83 b 314 98 316 113 313 129 b 308 152 290 181 272 197 b 250 216 225 232 198 245 b 174 258 150 270 126 283 b 105 294 96 298 77 312 b 68 319 61 327 56 337 b 53 342 52 347 52 352 b 53 371 59 388 71 403 b 81 415 91 427 101 439 b 104 442 108 445 111 448 b 120 455 130 462 139 469 b 148 477 157 485 168 490 b 170 491 172 492 173 494 b 178 500 185 503 191 506 b 218 521 247 531 273 547 b 275 548 278 549 281 550 b 295 554 308 558 321 562 b 335 566 349 570 362 573 b 368 574 374 576 380 576 b 402 579 424 580 445 585 b 450 586 454 585 459 585 b 461 585 463 585 465 585 b 471 583 477 582 483 581 b 489 580 496 581 502 579 b 509 576 514 580 520 579 b 523 579 526 579 529 578 b 565 568 573 561 593 534 b 594 532 596 529 597 527 b 600 523 592 528 591 523 b 591 521 591 519 591 517 b 590 511 593 506 597 503 b 600 501 603 499 607 497 b 610 495 616 497 619 500 b 622 503 625 507 627 510 b 629 513 630 516 629 519 z m 68 -13 b 67 -13 67 -12 66 -12 b 67 -12 67 -11 68 -11 b 69 -11 69 -12 70 -12 b 69 -12 69 -13 68 -13 z m 84 -10 b 84 -8 84 -7 84 -6 b 85 -6 87 -6 87 -9 b 87 -9 85 -9 84 -10 z m 284 113 b 284 113 285 114 286 114 b 287 113 288 113 288 112 b 289 110 289 109 289 108 b 288 106 288 105 288 103 b 287 102 286 101 285 101 b 284 100 281 103 282 105 b 282 108 283 110 284 113 z m 71 456 b 75 460 81 463 87 464 b 84 461 81 458 78 455 b 75 453 73 454 71 456 z m 167 531 b 167 531 166 530 165 530 b 164 529 163 529 161 528 b 162 529 163 530 164 532 b 165 532 166 532 167 533 b 167 532 167 532 167 531 z m 305 604 b 317 608 329 611 341 612 b 342 613 344 615 345 616 b 344 616 343 617 341 617 b 328 616 302 610 289 604 b 289 604 289 603 289 603 b 294 602 300 602 305 604 z m 289 603 b 288 603 288 603 288 603 b 288 603 288 603 288 603 b 288 602 288 602 288 602 b 288 603 288 603 289 603 z m 346 616 b 346 617 345 617 345 617 b 345 616 345 616 345 616 b 345 616 345 616 346 616 b 346 616 346 616 346 616 z m 380 617 b 380 617 381 619 381 619 b 380 620 379 621 378 622 b 368 624 358 624 349 619 b 348 619 347 617 346 616 b 357 614 368 615 380 617 z m 249 585 b 251 586 252 587 251 589 b 250 590 249 591 248 590 b 240 589 233 585 227 581 b 231 581 235 581 239 582 b 242 582 246 584 249 585 z m 108 513 b 109 514 109 516 110 518 b 102 517 96 513 93 505 b 96 505 99 505 101 505 b 103 509 106 510 108 513 z m 93 505 b 93 505 93 505 92 505 b 92 505 92 505 92 504 b 92 505 92 505 93 505 b 93 505 93 505 93 505 z m 262 591 b 265 591 266 592 266 594 b 266 594 266 595 265 595 b 263 596 261 594 261 592 b 261 592 262 591 262 591 z m 397 619 b 398 619 400 619 401 620 b 401 620 401 621 401 621 b 401 622 400 623 400 623 b 398 623 397 624 396 624 b 395 624 394 622 394 622 b 395 621 396 620 397 619 z m 83 492 b 83 492 83 492 83 491 b 83 491 84 491 84 492 b 84 492 84 492 84 492 b 84 492 84 492 83 492 z m 79 494 b 79 492 81 492 83 492 b 83 493 83 495 83 496 b 81 496 79 496 79 494 z m 199 570 l 198 570 l 199 569 l 199 570 z m 223 579 b 224 579 224 580 225 580 b 224 580 223 580 223 579 z m 227 580 b 227 580 227 581 227 581 b 227 581 226 581 226 581 b 226 581 225 580 225 580 b 226 580 226 580 227 580 z m 286 600 b 287 600 287 602 288 603 b 287 603 286 603 284 603 b 284 603 283 602 283 602 b 283 602 283 601 283 601 b 284 600 285 600 286 600 z m 115 522 l 115 523 l 114 523 l 114 523 b 113 521 111 520 110 518 b 110 518 110 518 110 518 b 110 518 110 518 110 518 b 112 519 113 521 115 522 z m 89 502 b 89 501 88 501 88 501 b 88 501 88 500 88 500 b 88 500 88 500 89 500 b 89 501 89 501 89 502 z m 92 504 b 91 504 90 503 89 502 b 90 502 91 503 92 504 z m 88 500 b 86 500 85 499 84 497 b 86 497 87 498 88 500 z m 84 497 b 84 497 84 496 83 496 b 83 496 83 496 83 496 b 84 496 84 496 84 496 b 84 496 84 496 84 497 z m 35 7 l 35 8 b 34 8 34 8 34 8 b 34 7 34 7 34 7 l 35 7 z"},"}":{"x_min":0,"x_max":243,"ha":243,"o":"m 190 640 b 193 645 194 651 195 657 b 198 666 198 675 197 685 b 194 702 188 719 180 735 b 173 746 163 753 154 761 b 154 762 153 762 153 762 b 149 764 146 767 142 769 b 139 772 136 774 131 773 b 130 773 128 773 126 774 b 119 778 112 781 103 780 b 97 779 95 778 97 772 b 99 767 100 762 103 757 b 104 755 106 753 109 751 b 111 750 113 749 116 748 b 126 745 134 738 140 729 b 145 721 149 713 149 704 b 149 702 149 700 149 699 b 150 694 150 689 149 684 b 148 679 148 674 148 668 b 147 662 147 656 146 650 b 145 639 144 628 142 617 b 139 600 137 584 132 567 b 131 561 129 555 127 549 b 124 538 121 526 117 515 b 112 500 109 484 103 469 b 102 469 102 469 102 469 b 99 454 94 441 92 426 b 90 416 88 407 88 397 b 87 382 87 368 87 354 b 87 342 88 330 94 320 b 95 318 96 316 98 314 b 102 312 105 309 107 305 b 109 302 111 300 113 297 b 114 296 115 295 116 295 b 121 296 124 293 127 291 b 131 287 131 285 128 281 b 125 277 122 274 121 270 b 118 265 115 261 112 257 b 108 253 106 248 105 242 b 104 236 104 230 102 224 b 98 206 98 188 99 170 b 99 163 101 156 102 149 b 104 136 105 123 106 110 b 108 95 109 80 111 65 b 112 56 112 46 113 37 b 113 31 114 25 114 19 b 114 8 113 -3 113 -14 b 112 -19 112 -24 110 -29 b 109 -31 109 -34 108 -36 b 106 -47 103 -58 100 -70 b 98 -76 95 -82 93 -88 b 90 -96 87 -103 83 -110 b 77 -123 69 -136 62 -148 b 57 -156 52 -163 47 -170 b 44 -174 41 -177 37 -179 b 35 -180 33 -182 31 -183 b 33 -185 33 -186 33 -187 b 35 -191 38 -192 42 -192 b 53 -191 64 -191 74 -184 b 78 -181 81 -178 86 -178 b 87 -178 87 -178 88 -177 b 92 -171 99 -167 103 -160 b 107 -151 111 -143 115 -135 b 119 -128 122 -121 125 -113 b 126 -108 128 -103 131 -99 b 133 -95 135 -92 134 -88 b 133 -87 134 -85 135 -83 b 137 -79 141 -75 142 -71 b 143 -67 143 -61 143 -57 b 143 -54 143 -51 143 -48 b 145 -37 146 -25 148 -14 b 149 -11 148 -8 146 -5 b 144 -2 143 1 142 4 b 142 6 145 9 146 10 b 144 15 142 20 141 25 b 141 26 142 28 143 29 b 143 29 145 29 148 29 b 146 31 145 33 143 33 b 141 34 140 35 140 37 b 139 40 138 42 138 45 b 138 50 136 56 141 61 b 142 61 142 63 142 65 b 141 70 141 76 140 81 b 139 88 138 95 137 102 b 136 124 135 146 134 167 b 134 175 134 183 135 192 b 137 205 139 219 144 232 b 149 243 153 255 165 261 b 166 262 166 262 167 263 b 169 266 172 267 175 265 b 176 265 178 265 179 265 b 182 265 185 265 188 265 b 190 266 191 266 193 266 b 191 271 192 276 188 279 b 181 283 175 287 168 291 b 161 295 154 298 146 302 b 145 303 143 304 143 306 b 141 310 138 315 137 320 b 135 335 135 351 137 366 b 139 379 141 392 142 405 b 143 417 146 428 149 440 b 150 444 151 449 149 452 b 151 458 153 463 155 467 b 158 479 163 490 162 502 b 162 503 162 504 162 505 b 165 514 168 524 170 533 b 170 534 171 535 170 536 b 170 540 171 544 173 547 b 176 552 177 557 176 563 b 174 560 171 557 171 553 b 171 546 167 540 164 534 b 164 532 163 531 162 530 b 162 531 161 531 160 532 b 160 537 159 543 162 548 b 163 550 163 552 164 554 b 165 561 166 569 168 577 b 170 589 173 602 175 615 b 176 619 177 622 181 623 b 182 624 183 625 184 626 b 185 627 190 638 190 640 b 190 640 190 640 190 640 z m 71 -162 b 71 -162 70 -161 70 -161 b 70 -161 71 -161 71 -160 b 71 -160 71 -161 72 -161 b 71 -161 71 -162 71 -162 z m 105 357 b 102 365 102 373 105 382 b 108 378 107 364 105 357 z m 106 386 b 103 389 103 391 107 398 b 109 394 109 391 106 386 z m 123 75 b 125 67 125 59 126 51 b 125 51 125 51 124 51 b 124 51 123 52 123 52 b 121 56 121 71 123 75 z m 79 -169 b 79 -169 79 -168 79 -168 b 79 -168 79 -168 79 -168 b 79 -168 79 -168 79 -168 b 79 -168 79 -169 79 -169 z m 81 -150 b 80 -151 78 -152 77 -153 b 74 -149 75 -147 78 -145 b 81 -142 82 -139 83 -135 b 85 -128 88 -121 91 -115 b 95 -104 100 -94 105 -84 b 106 -81 107 -79 107 -76 b 108 -74 109 -72 112 -72 b 113 -75 111 -78 111 -81 b 110 -85 109 -88 108 -92 b 107 -92 107 -93 107 -93 b 101 -102 101 -114 94 -122 b 94 -123 93 -124 93 -124 b 92 -134 84 -141 81 -150 z m 125 -78 b 122 -87 119 -97 115 -107 b 110 -120 105 -132 98 -144 b 96 -146 94 -149 91 -151 b 90 -151 90 -150 89 -150 b 90 -147 91 -144 93 -142 b 97 -132 102 -122 106 -112 b 109 -105 111 -97 114 -90 b 115 -85 118 -80 118 -74 b 118 -71 121 -69 122 -66 b 126 -70 125 -74 125 -78 z m 123 -56 b 123 -55 123 -54 123 -53 b 124 -53 124 -54 125 -54 b 125 -54 125 -55 125 -56 b 124 -56 124 -56 123 -56 z m 128 -45 b 127 -46 125 -46 124 -45 b 122 -44 121 -41 122 -38 b 123 -37 124 -35 125 -32 b 127 -36 128 -39 128 -43 b 129 -44 128 -45 128 -45 z m 126 -21 b 126 -21 126 -21 126 -20 b 126 -21 126 -21 126 -21 b 126 -21 126 -21 126 -21 b 126 -21 126 -21 126 -21 z m 128 -15 b 128 -15 127 -15 127 -16 b 124 -15 124 -13 124 -11 b 127 -4 125 3 125 9 b 126 14 126 18 126 23 b 126 25 125 27 125 29 b 124 32 124 36 125 39 b 128 39 128 36 128 35 b 129 32 129 30 128 27 b 128 26 128 25 128 24 b 131 17 128 10 130 3 b 131 -3 130 -9 128 -15 z m 132 418 b 131 418 131 419 129 419 b 131 420 131 420 132 420 b 132 420 132 419 133 419 b 133 419 132 418 132 418 z m 138 446 b 137 446 137 446 137 446 b 137 446 137 447 137 447 b 138 447 138 446 138 446 b 138 446 138 446 138 446 z m 138 450 b 138 456 138 462 142 467 b 147 462 146 455 138 450 z m 148 478 b 145 483 145 488 149 492 b 149 493 151 494 153 494 b 154 494 155 491 155 490 b 154 486 153 481 148 478 z m 154 569 b 150 560 148 550 148 540 b 148 539 147 538 147 537 b 147 534 146 532 146 529 b 143 525 141 521 140 516 b 140 511 138 507 137 503 b 137 499 135 496 138 492 b 138 491 138 489 137 487 b 133 484 132 479 131 475 b 130 468 127 462 126 456 b 125 453 124 449 124 446 b 124 442 123 438 121 433 b 119 430 118 425 117 421 b 115 417 115 412 114 407 b 113 405 112 404 108 401 b 106 403 106 406 107 408 b 108 412 109 416 106 420 b 104 422 105 425 107 427 b 109 433 110 439 108 445 b 108 446 108 448 108 449 b 110 457 112 465 114 472 b 116 481 119 489 122 497 b 127 513 132 530 137 546 b 139 553 142 560 144 567 b 145 569 145 572 145 575 b 145 580 147 585 150 589 b 152 592 153 595 152 599 b 152 601 153 604 154 607 b 154 608 156 609 157 609 b 158 608 158 607 159 605 b 159 605 159 605 159 605 b 156 594 157 583 155 572 b 155 571 154 570 154 569 z m 162 526 b 164 518 163 516 158 512 b 154 517 155 522 162 526 z m 162 579 b 159 583 159 584 163 587 b 166 584 166 582 162 579 z m 180 628 b 179 634 178 638 182 642 b 187 636 186 631 180 628 z m 182 607 b 183 607 183 607 183 607 b 184 611 187 615 184 622 b 183 616 183 611 182 607 z m 115 456 b 115 456 115 457 115 457 b 115 457 115 456 115 456 z"},"Z":{"x_min":0,"x_max":490,"ha":490,"o":"m 65 66 b 66 66 66 67 66 67 b 65 67 65 67 65 66 z m 252 290 l 252 289 l 253 290 l 252 290 z m 336 539 b 345 540 354 542 364 541 b 364 541 364 541 365 541 l 366 543 b 365 543 365 544 364 544 b 354 545 343 545 331 543 l 331 542 b 332 540 334 539 336 539 z m 506 551 b 503 559 497 566 490 569 l 474 578 b 471 580 467 580 464 578 l 454 576 l 428 574 b 415 574 401 574 386 573 b 369 571 352 571 335 569 b 296 568 256 567 217 567 l 172 567 b 159 566 148 565 136 567 b 116 567 96 573 77 574 b 71 573 68 570 68 563 l 67 555 l 69 543 b 71 541 73 538 76 537 l 85 534 b 91 529 99 529 106 528 b 117 528 126 529 136 527 b 138 526 141 528 144 528 b 152 528 158 530 166 531 b 193 531 221 531 247 533 b 259 533 268 535 278 535 b 279 535 281 536 282 537 l 296 541 b 287 542 281 543 276 542 b 261 543 247 542 233 543 b 226 543 219 543 214 545 l 194 547 b 191 546 189 547 187 548 l 186 549 b 186 550 187 551 188 551 l 220 553 b 229 554 237 554 246 554 l 270 556 b 278 557 287 558 296 559 b 302 559 310 561 318 559 b 321 558 324 559 327 560 l 349 561 b 361 561 372 562 384 564 b 384 564 386 564 388 564 b 394 563 401 564 407 563 b 421 563 434 563 447 564 b 452 565 457 564 462 563 b 463 563 465 562 466 562 b 468 561 468 559 469 558 b 470 557 470 554 469 553 b 463 550 456 551 449 552 b 447 553 443 554 439 552 b 436 550 433 550 431 550 b 420 549 408 548 397 547 b 396 547 396 546 395 546 b 395 545 396 544 396 544 b 406 544 414 543 424 544 b 425 544 427 544 427 542 l 428 542 b 429 539 429 537 429 537 b 419 529 417 521 409 511 b 396 498 384 483 371 467 l 338 424 l 271 338 b 266 333 262 326 257 320 b 240 301 224 281 206 264 b 206 264 206 263 205 263 b 184 238 162 212 140 188 b 126 171 112 154 97 137 b 76 110 53 83 30 56 l 23 48 l 18 39 b 16 36 14 35 12 35 b 4 34 8 31 1 34 b -2 35 -4 34 -5 32 l -9 27 b -13 23 -14 20 -16 15 b -19 5 -17 0 -8 -5 b -6 -7 -4 -8 -2 -8 b 9 -11 12 -7 14 -7 b 30 -7 44 -5 58 -2 b 66 -1 75 0 83 0 b 98 0 113 2 127 0 b 130 0 134 1 137 1 b 150 2 164 5 178 5 b 197 5 216 8 234 7 b 244 6 255 6 265 7 b 269 7 274 6 279 6 b 288 6 297 5 307 5 b 321 5 334 6 349 6 b 360 6 371 5 383 -1 b 385 -2 388 -2 391 -1 b 392 -1 393 -1 395 0 b 401 3 408 4 413 4 b 423 4 434 4 443 2 b 446 1 449 0 452 0 b 453 0 455 0 455 0 b 455 1 455 1 456 2 l 456 3 b 455 7 452 7 450 9 b 446 11 444 14 444 19 b 445 22 442 25 439 27 b 437 28 435 28 434 28 b 419 31 404 35 389 37 b 381 38 374 39 368 42 b 366 42 363 43 360 43 b 346 42 332 44 318 42 l 310 42 b 279 45 248 45 217 45 b 202 44 186 43 170 43 b 144 43 118 42 94 41 b 87 40 81 41 76 41 b 75 41 73 43 74 44 b 74 45 74 46 75 47 b 85 63 97 78 108 93 b 116 105 126 114 135 125 b 141 133 149 141 156 149 b 162 159 171 166 177 176 b 178 178 179 179 181 180 b 183 184 187 187 191 190 b 199 199 205 209 214 216 b 218 220 222 224 223 230 l 228 237 b 235 243 240 250 245 256 b 253 265 262 273 268 284 b 277 296 288 307 295 321 l 301 328 b 308 333 311 339 316 346 l 323 357 b 328 362 331 368 336 374 b 338 376 339 378 341 379 b 345 380 347 383 350 386 l 368 409 l 385 431 b 399 448 413 464 430 480 b 432 482 434 484 435 486 b 443 497 453 505 462 514 l 472 525 b 474 526 474 529 474 532 b 474 534 473 536 473 538 b 473 540 474 541 476 544 b 479 543 482 542 486 540 b 491 534 498 536 504 540 b 505 540 506 542 506 544 b 507 546 507 549 506 551 z m 145 22 b 146 23 147 24 148 24 b 157 26 165 28 173 31 b 176 32 179 32 181 31 b 186 30 191 30 196 31 b 204 34 213 36 223 35 b 225 35 227 36 230 36 b 233 36 236 37 238 36 b 246 34 255 32 264 34 b 265 34 267 33 269 31 b 272 29 275 28 279 29 b 284 30 289 31 294 30 b 299 29 303 28 308 29 b 316 31 326 30 334 27 b 338 26 343 26 347 26 b 350 27 354 26 358 24 b 358 24 358 23 358 22 b 358 22 358 21 357 21 b 352 21 347 20 340 21 l 332 21 b 313 21 295 19 276 20 b 264 21 251 19 240 19 b 237 19 235 18 233 18 b 222 20 209 17 198 19 b 195 20 192 19 190 19 b 177 16 163 18 150 17 b 148 17 147 18 145 19 l 144 20 b 144 21 145 22 145 22 z m 67 13 b 66 13 65 13 65 14 b 65 14 65 15 67 14 b 67 14 67 14 67 13 z m 78 77 b 79 78 79 79 81 79 b 80 78 79 77 78 77 z m 333 384 b 331 382 330 382 330 386 b 329 387 329 387 329 387 l 335 387 b 335 386 334 385 333 384 z m 336 388 b 336 390 336 392 337 394 b 337 394 338 394 339 394 b 339 392 338 390 336 388 z m 363 434 b 356 424 350 414 342 404 b 340 401 336 399 336 395 b 332 394 330 391 329 388 l 323 379 b 322 378 321 377 322 375 b 325 370 322 369 319 367 b 317 369 317 369 315 367 b 309 365 306 360 305 354 b 306 354 307 353 308 353 l 305 351 l 305 354 b 303 354 302 352 301 350 b 300 350 299 349 298 347 b 300 347 301 348 302 350 l 305 350 b 304 345 302 341 298 340 l 298 347 b 294 345 292 341 290 337 b 293 337 295 338 297 339 b 295 334 292 329 287 327 l 287 334 l 283 329 b 282 328 282 327 283 326 b 283 326 284 326 285 326 l 286 326 l 286 321 l 274 307 b 272 305 270 305 268 306 b 265 306 263 303 264 300 b 265 295 264 293 261 290 b 258 287 255 285 252 283 l 252 289 b 248 287 246 283 245 279 b 246 279 247 279 248 278 b 247 276 247 273 245 273 b 241 268 236 263 233 256 b 232 254 230 252 228 251 b 217 238 206 226 196 211 b 192 207 187 203 183 198 b 180 193 176 189 171 184 b 170 182 169 180 167 178 b 160 172 154 165 148 157 b 132 136 115 116 97 96 l 84 81 b 84 80 82 80 81 80 l 81 81 b 79 84 77 84 76 83 b 75 82 74 80 72 79 b 71 77 71 75 75 73 l 77 76 b 76 74 76 73 75 73 b 74 72 74 70 74 69 b 67 61 60 52 54 43 b 53 42 52 41 50 41 b 49 40 48 41 48 42 b 48 42 47 42 48 43 b 48 44 49 46 50 47 b 55 54 61 59 64 66 b 64 66 64 67 63 67 b 61 69 60 72 61 75 b 63 80 65 84 68 87 b 73 92 76 98 80 104 b 83 106 85 110 88 113 b 108 136 127 160 147 184 l 160 199 b 180 221 198 242 217 264 l 251 303 b 262 316 272 330 284 343 b 291 353 300 362 308 372 b 314 381 322 390 329 399 b 335 408 344 417 350 425 l 362 438 b 363 438 364 439 365 439 b 364 437 364 435 363 434 z m 387 464 l 380 457 b 380 461 382 463 385 465 b 385 466 386 465 387 465 l 387 464 z m 319 543 l 317 543 l 318 542 l 320 542 b 319 543 319 543 319 543 z"},"x":{"x_min":0,"x_max":366,"ha":366,"o":"m 386 91 b 387 91 387 91 387 91 l 388 92 l 386 92 b 386 91 386 91 386 91 z m 363 64 b 363 64 364 63 364 63 b 365 62 366 62 366 62 b 374 69 381 76 386 86 b 387 87 386 89 386 91 b 384 89 381 88 378 86 b 374 82 366 71 363 64 z m 6 -89 b 4 -91 3 -94 3 -97 b 5 -95 6 -92 6 -89 z m 382 129 b 355 92 331 69 298 37 b 280 20 260 5 236 -4 b 229 -6 223 -8 216 -9 b 209 -9 204 -7 199 -3 b 197 -2 196 0 194 1 b 158 33 138 90 133 104 b 132 107 132 109 133 112 b 140 124 147 136 156 146 b 167 158 177 170 191 179 b 192 180 194 182 195 183 b 203 191 202 199 191 204 b 182 208 174 207 166 201 b 162 197 157 194 154 190 b 151 187 148 184 144 182 b 139 179 135 175 132 171 b 129 167 126 163 123 159 b 121 156 116 157 115 160 b 113 165 111 170 110 176 b 108 186 103 194 97 201 b 95 203 92 205 90 205 b 82 207 76 207 65 203 b 65 200 65 197 63 194 b 61 187 62 181 64 175 b 71 156 78 136 85 117 b 86 113 87 109 88 105 b 84 96 79 86 74 77 b 68 66 60 55 54 43 b 44 23 33 3 25 -19 b 24 -22 23 -25 21 -28 b 16 -38 13 -49 10 -59 l 10 -59 l 10 -60 l 10 -60 b 13 -63 13 -66 12 -70 b 10 -76 7 -82 6 -88 b 9 -88 11 -86 12 -84 b 17 -76 22 -68 29 -61 b 33 -57 35 -52 38 -47 b 40 -43 42 -38 44 -34 b 61 -5 78 25 95 54 b 98 58 100 62 103 66 b 104 67 105 68 106 69 b 107 69 109 69 110 69 b 114 68 132 18 159 -4 b 174 -16 190 -25 207 -31 b 210 -32 214 -32 217 -33 b 232 -34 246 -31 261 -29 b 263 -28 266 -26 268 -25 b 282 -18 295 -8 309 -1 b 311 0 313 1 314 3 b 318 9 323 15 329 20 b 336 25 338 34 342 40 b 343 43 346 45 347 47 b 349 49 347 52 346 54 b 346 54 346 54 346 54 b 348 60 349 66 354 70 b 362 76 365 84 370 92 b 374 98 370 93 375 99 b 377 101 380 104 383 105 b 391 106 395 113 402 115 b 400 128 400 128 405 137 b 411 147 407 141 415 150 b 417 153 406 158 404 155 z m 204 -20 b 204 -20 204 -20 204 -20 b 204 -20 204 -20 204 -20 b 205 -20 205 -20 204 -20 z m 224 -14 b 220 -16 216 -17 212 -18 b 212 -18 211 -18 211 -17 b 211 -17 211 -17 212 -17 b 216 -15 220 -13 224 -13 b 225 -12 226 -13 226 -13 b 225 -13 225 -14 224 -14 z m 320 45 b 319 43 317 41 315 39 b 311 35 307 31 302 27 b 300 26 299 24 297 22 b 295 21 294 20 293 19 b 286 15 280 10 273 6 b 270 5 267 3 264 2 b 260 0 257 -2 253 -4 b 251 -4 249 -5 247 -6 b 243 -8 239 -9 235 -11 b 233 -12 230 -13 228 -13 b 227 -13 227 -13 226 -12 b 227 -11 229 -10 231 -10 b 236 -8 242 -6 247 -3 b 248 -2 249 -2 249 -2 b 256 -1 261 3 266 6 b 276 12 285 19 295 25 b 299 29 303 33 308 37 b 311 40 314 43 317 46 b 322 51 325 56 329 62 b 329 62 330 62 330 62 b 331 62 331 62 331 62 b 331 61 331 61 331 61 b 328 55 325 49 320 45 z m 342 51 b 343 52 344 53 345 53 b 344 52 343 51 342 51 z m 6 -89 b 6 -89 6 -89 6 -89 b 6 -88 6 -88 6 -88 b 6 -88 6 -88 6 -88 b 6 -89 6 -89 6 -89 z m 3 -97 b 3 -97 3 -97 3 -97 b 2 -97 2 -97 2 -97 z"},")":{"x_min":0,"x_max":334,"ha":334,"o":"m 255 540 b 249 575 241 609 234 644 b 231 658 227 672 223 686 b 218 705 198 710 182 709 b 177 708 174 703 175 698 b 176 694 177 690 179 686 b 188 659 195 632 202 604 b 211 563 216 522 215 480 b 214 439 211 398 206 358 b 201 320 194 282 185 245 b 173 196 156 149 136 102 b 121 66 105 31 85 -2 b 78 -15 70 -28 62 -41 b 57 -51 62 -64 72 -65 b 78 -65 80 -66 84 -70 b 89 -78 95 -78 102 -72 b 104 -70 107 -67 108 -64 b 118 -45 129 -26 139 -6 b 150 16 161 38 172 60 b 173 63 175 65 176 68 b 187 98 199 128 212 157 b 214 163 214 168 211 172 b 218 185 224 199 224 214 b 225 227 235 238 231 252 b 230 254 234 256 234 259 b 238 269 241 280 238 291 b 237 294 238 298 240 300 b 242 304 244 307 242 312 b 239 318 248 318 248 323 b 248 325 247 327 246 329 b 245 331 243 333 242 335 b 244 343 252 346 252 355 b 254 380 257 406 259 432 b 261 468 261 504 255 540 z m 228 377 b 234 366 229 356 227 346 b 225 329 223 312 221 295 b 219 281 216 266 213 251 b 211 238 208 226 205 213 b 200 192 196 171 187 151 b 182 140 180 129 176 118 b 166 86 150 56 136 26 b 128 9 119 -8 110 -25 b 105 -33 100 -40 96 -46 b 89 -47 87 -44 87 -39 b 88 -37 89 -34 90 -32 b 101 -16 106 3 115 19 b 134 53 145 90 162 124 b 168 136 171 149 175 162 b 181 177 186 193 191 208 b 201 248 210 288 216 328 b 220 360 225 392 230 424 b 232 411 231 399 230 387 b 229 384 227 379 228 377 z"},"&":{"x_min":0,"x_max":458,"ha":458,"o":"m 523 549 b 518 588 481 613 446 616 b 414 617 382 608 353 593 b 352 593 352 592 352 591 b 354 591 356 591 358 590 b 357 589 357 588 356 587 b 342 580 327 572 313 565 b 309 576 312 587 315 597 b 316 607 320 618 322 629 b 324 634 324 640 324 644 b 321 646 319 648 318 650 b 310 659 300 660 289 660 b 285 660 281 657 280 654 b 280 652 279 650 279 648 b 278 634 278 621 276 608 b 272 586 267 564 264 542 b 263 535 259 530 253 527 b 221 503 189 480 158 453 b 124 423 93 391 69 353 b 68 349 66 346 63 344 b 63 344 63 344 63 344 b 63 344 63 344 63 344 l 64 344 b 63 342 62 340 61 339 b 59 336 58 336 56 340 b 50 332 47 322 45 314 b 43 303 41 291 46 280 b 51 271 56 261 61 252 b 68 235 81 225 98 219 b 112 214 126 211 141 210 b 143 210 147 211 149 207 b 145 204 141 200 136 197 b 117 185 99 171 85 152 b 64 124 45 94 36 60 b 27 23 25 25 43 -19 b 53 -45 75 -52 99 -58 b 102 -58 105 -57 106 -57 b 125 -54 142 -52 161 -50 b 163 -50 165 -50 166 -50 b 171 -56 169 -62 169 -69 b 168 -93 169 -117 173 -140 b 176 -156 192 -167 208 -163 b 213 -162 216 -159 216 -154 b 217 -152 217 -149 217 -147 b 216 -129 216 -111 213 -95 b 210 -79 212 -64 212 -50 b 212 -45 214 -39 214 -35 b 215 -27 218 -23 226 -19 b 246 -8 266 3 286 15 b 295 21 304 26 309 37 b 306 36 303 37 301 36 b 298 35 295 30 290 33 b 294 36 297 38 299 41 b 307 50 318 58 324 69 b 325 72 325 74 320 75 b 307 60 290 46 273 34 b 255 23 238 10 216 3 b 218 20 216 36 220 49 b 222 53 222 57 222 61 b 224 90 229 119 233 148 b 236 164 238 181 240 197 b 241 209 246 215 256 218 b 273 223 290 229 306 234 b 313 236 318 238 325 239 b 327 246 328 254 336 257 b 344 259 345 266 345 272 b 333 284 320 283 306 276 b 305 275 304 274 303 274 b 289 269 275 262 261 258 b 258 257 255 257 253 257 b 252 259 251 260 251 261 b 260 308 267 356 277 403 b 285 441 291 480 298 518 b 300 528 304 535 313 541 b 327 550 341 559 357 567 b 383 579 410 591 438 594 b 444 594 450 595 453 593 b 464 589 474 582 480 572 b 485 564 488 554 486 543 b 482 529 477 514 470 501 b 459 483 445 468 435 449 b 429 439 420 430 411 420 b 406 414 406 407 413 402 b 420 395 432 395 440 401 b 448 407 455 411 462 418 b 466 421 470 427 474 432 b 476 434 477 438 480 441 b 496 462 509 485 518 510 b 523 523 524 535 523 549 z m 218 477 b 216 477 214 477 212 477 b 215 481 216 481 218 477 z m 200 470 b 203 474 206 476 210 476 b 208 472 205 469 204 465 b 200 466 197 467 200 470 z m 142 412 b 142 412 141 412 140 412 b 141 413 142 414 142 415 b 142 414 142 413 142 412 z m 145 188 b 144 184 141 182 136 181 b 140 184 142 185 145 188 z m 130 176 b 127 174 124 172 121 171 b 123 173 126 175 130 176 z m 116 164 b 113 161 110 159 105 159 b 108 161 111 164 116 164 z m 86 97 b 86 94 86 92 86 89 b 86 89 86 89 86 89 b 84 87 83 85 82 83 b 80 82 77 81 74 80 b 76 87 79 93 86 97 z m 71 72 b 72 74 73 75 74 78 b 74 75 73 74 71 72 z m 59 37 b 58 31 56 24 53 14 b 53 27 54 37 59 44 b 59 42 60 39 59 37 z m 59 46 b 60 55 61 64 70 70 b 69 61 68 51 59 46 z m 182 -93 l 183 -91 l 183 -93 l 182 -93 z m 184 -79 b 179 -65 179 -65 185 -58 b 185 -65 184 -73 184 -79 z m 203 -98 b 204 -106 203 -114 203 -122 b 202 -106 194 -90 200 -72 b 204 -82 203 -90 203 -98 z m 201 -47 l 202 -46 l 202 -47 l 201 -47 z m 205 -135 b 205 -135 204 -135 204 -135 b 204 -134 204 -134 204 -133 b 205 -133 205 -133 205 -134 b 205 -134 205 -135 205 -135 z m 210 37 b 210 36 209 36 209 36 b 208 37 208 37 208 38 b 208 39 209 39 210 40 b 210 38 210 37 210 37 z m 211 181 b 205 175 202 171 208 163 b 211 160 209 158 205 156 b 203 156 200 155 201 151 b 202 150 204 149 206 148 b 206 142 205 135 205 128 b 205 114 206 114 196 105 b 199 104 204 104 202 98 b 201 96 200 94 200 90 b 202 83 200 76 192 74 b 191 74 190 70 191 68 b 192 65 194 64 196 61 b 195 50 197 38 193 27 b 191 17 193 5 186 -4 b 185 -2 184 0 183 1 b 181 -1 179 -4 177 -7 b 173 -13 168 -16 162 -18 b 139 -25 116 -29 92 -30 b 82 -31 76 -27 71 -20 b 67 -13 63 -7 63 1 b 63 6 62 12 63 16 b 66 34 69 52 77 69 b 80 73 81 77 82 82 b 85 84 85 86 86 89 b 93 95 93 95 90 101 b 90 101 90 101 90 101 b 90 109 92 114 100 116 b 102 118 104 122 105 123 b 115 126 121 132 127 138 b 142 157 163 169 183 183 b 192 188 198 188 212 185 b 212 184 212 182 211 181 z m 213 64 b 211 74 212 83 216 93 b 222 81 212 74 213 64 z m 220 103 b 216 102 216 105 216 108 b 217 112 218 118 221 126 b 224 116 222 110 220 103 z m 224 135 b 224 136 223 136 223 137 b 223 139 223 142 223 144 b 224 143 226 143 226 142 b 225 140 225 138 224 135 z m 228 159 b 228 160 227 161 227 162 b 227 163 228 164 228 165 b 229 164 229 162 229 161 b 229 160 229 160 228 159 z m 231 173 b 229 176 228 177 228 179 b 228 181 228 183 228 185 b 228 185 229 186 229 187 b 229 189 229 191 230 193 b 231 195 231 197 232 199 b 233 190 235 183 231 173 z m 247 289 b 247 290 247 290 248 291 b 248 291 248 290 248 289 b 248 289 247 289 247 289 z m 254 457 b 252 439 247 420 244 402 b 241 388 241 374 238 360 b 237 355 234 349 233 343 b 230 333 230 333 235 322 b 221 305 222 282 218 260 l 218 260 b 215 247 206 242 193 239 b 168 235 143 233 118 236 b 100 239 89 250 82 266 b 79 275 77 284 80 296 b 84 314 87 333 97 351 b 101 358 105 363 109 370 b 111 372 110 375 108 378 b 109 378 109 378 109 378 b 109 379 109 381 109 382 b 115 387 121 392 124 397 b 128 405 133 407 139 411 b 139 411 139 411 139 411 b 141 409 142 409 142 411 b 158 420 170 433 181 446 b 189 452 198 456 204 465 b 209 468 215 470 218 476 b 218 476 218 476 218 476 b 224 480 229 483 236 488 b 241 492 248 496 256 496 b 259 483 257 470 254 457 z m 260 354 b 260 351 259 348 259 344 b 256 348 257 351 260 354 z m 290 507 b 290 507 289 507 289 507 b 289 510 289 513 289 516 b 289 516 290 516 290 516 b 290 513 290 510 290 507 z m 325 52 b 329 57 334 61 334 68 b 327 64 327 59 325 52 z m 62 348 b 60 347 58 347 58 346 b 56 345 56 343 56 340 b 58 342 60 343 63 344 b 63 345 62 346 62 348 z m 56 340 b 56 340 56 340 56 340 b 56 340 56 340 56 340 b 56 340 56 340 56 340 b 56 340 56 340 56 340 z m 74 374 b 75 374 75 374 75 374 b 75 374 74 374 74 374 b 73 371 72 370 71 367 l 70 366 l 71 367 b 72 369 73 371 74 374 z m 324 51 l 325 52 b 325 52 325 52 325 52 b 325 52 325 52 325 52 l 324 51 z m 310 37 b 311 37 313 38 314 39 l 314 40 l 314 40 b 312 39 311 37 309 37 b 309 37 309 37 309 37 b 309 37 310 37 310 37 l 310 37 z m 83 385 b 82 385 82 385 81 385 l 81 384 l 82 385 b 82 385 82 385 83 385 z m 187 47 l 187 49 l 186 49 l 187 47 z m 105 115 l 105 117 l 105 116 b 104 116 102 116 101 116 b 100 116 100 116 100 116 b 100 116 100 115 100 115 b 102 115 104 115 105 115 z"},"_":{"x_min":0,"x_max":690,"ha":690,"o":"m 628 -36 b 624 -28 618 -20 612 -13 b 607 -8 599 -9 592 -9 b 533 -6 474 -6 414 -7 b 309 -9 204 -9 99 -9 b 77 -9 55 -9 34 -2 b 20 3 10 -4 11 -20 b 12 -21 11 -23 12 -24 b 13 -38 25 -49 39 -49 b 59 -48 78 -48 97 -47 b 136 -46 175 -47 218 -43 b 199 -42 199 -42 190 -36 b 211 -35 229 -33 248 -33 b 273 -33 297 -33 322 -32 b 359 -31 397 -30 434 -29 b 456 -28 478 -28 500 -29 b 528 -30 557 -31 586 -33 b 588 -33 591 -33 591 -38 b 587 -42 581 -41 575 -41 b 569 -42 562 -37 554 -42 b 564 -45 572 -43 580 -44 b 587 -45 594 -46 602 -47 b 610 -48 616 -55 626 -52 b 627 -47 630 -40 628 -36 z m 516 -39 b 517 -39 517 -40 517 -40 b 517 -40 518 -40 518 -40 b 518 -39 518 -39 518 -39 b 518 -39 517 -39 516 -39 z"},"v":{"x_min":0,"x_max":275,"ha":275,"o":"m 234 234 b 231 235 228 237 226 237 b 214 237 202 235 192 230 b 183 226 175 219 168 212 b 156 201 148 188 140 174 b 131 156 124 138 119 119 b 117 112 115 105 111 99 b 111 98 110 98 109 98 b 108 98 107 99 107 100 b 107 104 107 107 106 111 b 104 129 99 148 94 166 b 93 172 91 177 89 182 b 87 189 83 194 77 197 b 70 200 64 202 57 205 b 56 205 56 205 55 205 b 49 204 43 203 38 200 b 36 199 34 193 35 190 b 37 187 40 183 42 179 b 48 162 54 145 59 127 b 66 100 72 72 78 45 b 78 31 85 21 96 12 b 96 12 97 11 98 10 b 105 8 113 6 122 4 b 124 3 127 5 128 7 b 130 11 131 16 133 20 b 139 32 142 44 145 57 b 148 72 151 87 155 102 b 158 111 159 121 166 127 b 167 129 167 131 168 133 b 170 139 172 144 175 150 b 177 154 179 158 179 163 b 179 171 182 178 187 183 b 189 185 190 188 191 190 b 197 203 207 211 219 218 b 223 220 227 222 231 225 b 233 226 234 227 235 229 b 236 230 235 234 234 234 z m 149 136 b 146 128 144 120 141 112 b 141 111 139 110 138 110 b 138 110 137 111 137 112 b 139 121 140 130 142 139 b 143 142 146 142 148 142 b 149 140 149 138 149 136 z m 149 143 b 149 145 149 146 148 148 b 148 153 150 156 153 158 b 155 160 157 161 159 163 b 157 155 154 148 149 143 z m 162 165 b 162 164 160 164 159 164 b 157 170 162 175 161 181 b 160 185 163 187 168 188 b 170 188 172 188 173 187 b 171 179 167 172 162 165 z"},"O":{"x_min":0,"x_max":443,"ha":443,"o":"m 412 497 b 412 497 412 498 412 498 b 411 499 411 499 411 499 b 411 499 411 498 411 498 b 411 497 411 497 412 497 z m 418 470 b 418 479 416 488 412 497 b 412 493 412 490 412 486 b 410 474 411 461 414 449 b 417 432 415 416 413 399 b 412 386 408 374 409 360 b 409 359 408 358 408 356 b 403 338 401 320 398 301 b 397 296 396 290 394 285 b 389 275 387 264 381 255 b 378 249 377 243 377 237 b 376 233 376 230 374 227 b 370 220 368 211 365 204 b 359 185 350 168 340 151 b 335 143 330 135 326 126 b 319 111 310 97 299 84 b 298 83 297 83 296 84 b 296 84 296 85 296 86 b 299 94 303 102 303 111 b 303 115 305 118 306 121 b 310 130 314 139 319 147 b 328 164 337 180 346 197 b 347 198 348 200 348 202 b 353 220 362 237 368 254 b 370 258 371 262 374 265 b 380 270 381 277 383 284 b 390 312 393 341 396 370 b 396 376 397 382 403 386 b 405 388 405 391 404 394 b 403 397 403 399 402 402 b 400 407 400 413 402 418 b 403 421 404 423 405 426 b 406 429 406 431 407 434 b 407 439 406 444 400 446 b 397 448 395 450 394 454 b 393 469 392 484 391 499 b 391 500 392 500 392 501 b 393 501 394 501 395 499 b 395 495 395 491 395 487 b 397 478 399 470 401 462 b 401 463 402 463 403 463 b 406 472 404 481 402 489 b 396 508 391 527 384 544 b 383 547 383 550 383 552 b 384 552 385 552 386 553 b 384 562 378 568 371 574 b 364 580 357 585 350 590 b 343 595 335 599 328 602 b 319 606 309 608 300 611 b 274 618 248 618 223 608 b 213 605 203 601 194 597 b 165 587 140 572 118 551 b 113 546 107 541 101 535 b 82 517 66 496 54 473 b 50 464 48 455 50 445 b 51 446 52 446 53 447 b 56 453 59 459 62 465 b 67 474 71 483 79 491 b 85 498 91 506 96 513 b 107 528 120 542 135 553 b 140 557 146 559 153 560 b 151 558 150 556 148 554 b 144 551 140 547 136 543 b 119 525 105 511 84 479 b 83 477 82 476 80 474 b 73 465 68 455 64 445 b 59 434 55 422 50 411 b 48 406 47 401 46 397 b 42 376 38 354 35 333 b 34 329 34 324 35 319 b 38 297 44 276 59 258 b 62 254 65 250 69 248 b 76 245 78 239 75 232 b 74 229 73 226 73 222 b 66 192 59 162 57 130 b 56 117 55 103 57 89 b 58 83 58 77 59 70 b 59 56 63 43 69 30 b 72 21 78 14 84 6 b 91 -3 101 -8 110 -15 b 122 -25 136 -31 150 -36 b 159 -39 168 -40 177 -38 b 186 -35 196 -34 205 -31 b 223 -27 239 -18 251 -5 b 260 4 268 13 274 24 b 273 24 273 24 273 25 b 269 27 268 28 270 31 b 272 34 275 37 278 40 b 279 42 280 42 281 41 b 282 40 282 39 282 38 b 286 38 289 40 291 43 b 304 60 317 77 324 98 b 325 100 326 103 328 105 b 338 121 347 139 355 156 b 365 178 376 199 381 222 b 382 224 383 227 384 230 b 389 238 391 248 393 257 b 397 268 400 280 403 291 b 406 303 408 315 411 327 b 416 353 418 380 419 406 b 420 427 420 449 418 470 z m 52 364 l 51 365 l 52 365 z m 157 563 b 157 561 155 561 154 561 b 155 562 155 563 156 563 b 156 563 157 563 157 563 z m 224 23 b 218 17 212 12 206 6 b 203 4 199 2 195 0 b 182 -5 168 -7 155 -7 b 146 -8 138 -5 132 2 b 120 14 111 28 107 46 b 105 56 103 65 103 75 b 103 92 101 109 104 127 b 107 145 109 164 115 182 b 118 191 120 202 122 212 b 126 225 127 226 141 226 b 160 227 178 228 197 229 b 209 230 222 231 234 233 b 235 234 236 235 237 236 b 238 237 236 239 233 240 b 230 240 226 240 223 241 b 221 241 219 242 217 242 b 214 243 213 245 216 248 b 216 249 217 250 218 252 b 208 252 197 252 187 252 b 174 252 162 252 150 252 b 147 252 144 253 141 254 b 139 254 137 258 138 260 b 139 263 139 266 140 268 b 147 282 153 296 159 310 b 161 315 160 320 156 323 b 153 326 149 330 145 333 b 139 337 133 339 126 339 b 120 339 115 336 112 331 b 108 327 105 322 103 317 b 99 306 95 295 91 284 b 89 281 88 277 87 274 b 86 272 83 272 82 273 b 81 274 79 274 78 275 b 69 285 64 297 61 310 b 58 328 59 346 62 364 b 66 390 70 402 81 429 b 86 448 98 464 107 481 b 109 485 111 488 114 492 b 130 510 147 529 168 543 b 170 546 173 548 176 550 b 189 560 189 560 197 575 b 199 575 201 576 203 576 b 215 576 226 579 237 585 b 248 592 261 593 275 593 b 295 592 312 582 328 571 b 339 563 349 553 356 541 b 367 531 371 517 376 503 b 382 483 384 462 385 441 b 385 439 385 437 385 435 b 384 421 383 408 383 394 b 381 348 372 304 359 261 b 357 253 354 244 351 235 b 347 221 340 207 335 193 b 324 168 311 144 298 121 b 278 85 253 53 224 23 z m 395 539 b 395 540 395 540 395 540 b 395 540 395 540 395 540 b 395 540 395 540 395 540 b 395 540 395 539 395 539 z m 396 530 b 401 522 404 514 407 505 b 408 502 409 500 411 499 b 412 503 412 508 410 512 b 404 520 404 532 395 539 b 394 536 395 533 396 530 z m 49 441 b 49 442 49 443 49 444 b 48 443 47 442 49 441 z m 49 444 b 49 444 50 444 50 445 b 50 445 50 445 50 445 b 50 445 49 445 49 445 b 49 444 49 444 49 444 z m 391 547 b 391 548 391 548 391 548 b 390 549 390 549 389 549 b 389 549 390 548 391 548 b 391 548 391 547 391 547 z m 395 540 b 394 543 393 545 391 547 b 391 544 391 542 395 540 z m 388 551 b 387 551 387 552 387 553 b 386 553 386 553 386 553 b 386 552 386 552 386 552 b 387 552 387 551 388 551 z m 389 549 b 388 550 388 550 388 551 b 388 550 388 550 389 549 z m 282 37 b 282 38 282 38 282 38 b 282 38 282 38 282 38 z m 275 25 b 275 25 274 25 274 24 b 274 24 274 24 274 24 b 274 24 274 24 275 24 b 275 24 275 25 275 25 z m 277 261 b 278 261 278 261 278 261 l 279 262 l 278 261 b 278 261 278 261 277 261 z m 265 259 b 269 258 273 259 277 261 b 273 261 269 261 265 259 z m 246 257 b 245 256 243 255 241 255 b 242 254 243 254 244 253 b 245 253 247 253 248 254 b 248 254 249 254 249 255 b 249 256 248 257 246 257 z m 307 268 l 307 267 l 309 267 z"},"(":{"x_min":0,"x_max":272,"ha":272,"o":"m 323 664 b 316 669 308 673 299 672 b 293 671 287 669 281 667 b 274 666 269 662 264 656 b 245 633 227 608 209 583 b 197 565 184 549 173 531 b 162 512 151 494 141 474 b 118 425 96 375 79 323 b 74 308 68 293 65 278 b 55 234 48 190 46 144 b 45 111 45 77 53 45 b 59 22 66 -1 72 -24 b 77 -42 83 -59 88 -77 b 92 -79 97 -81 100 -84 b 108 -92 117 -92 127 -91 b 135 -91 139 -84 134 -77 b 132 -73 128 -70 126 -65 b 116 -42 106 -19 101 6 b 100 11 99 17 97 22 b 93 34 92 46 91 58 b 91 65 90 73 89 80 b 89 94 88 108 88 121 b 88 135 88 148 88 162 b 88 163 87 163 87 164 b 87 164 86 164 85 164 b 85 156 84 149 83 142 b 83 139 83 136 77 138 b 80 159 80 180 86 202 b 91 198 89 194 88 190 b 88 186 85 181 89 175 b 93 193 96 209 100 225 b 103 239 105 254 109 269 b 111 278 116 288 119 298 b 124 317 131 337 139 355 b 144 365 148 375 152 385 b 162 411 169 437 188 458 b 188 459 189 459 189 460 b 214 506 245 549 274 592 b 279 599 285 605 290 611 b 298 618 306 625 314 633 b 318 637 322 642 326 647 b 329 652 328 660 323 664 z m 79 116 b 80 116 80 115 81 115 b 80 115 80 114 79 114 b 79 114 79 114 79 115 b 78 115 79 116 79 116 z m 81 295 b 81 296 81 297 82 297 b 82 298 82 298 83 298 b 83 297 83 297 83 296 b 83 296 82 296 81 295 z m 96 331 b 95 330 94 328 93 327 b 93 328 94 330 94 332 b 95 332 95 332 96 331 z m 90 215 b 90 216 89 217 89 218 b 89 220 90 222 91 226 b 91 222 92 220 92 218 b 92 217 91 216 90 215 z m 92 244 b 96 250 97 253 99 256 b 101 251 99 249 92 244 z m 98 306 b 98 305 96 305 95 305 b 95 306 95 306 95 307 b 96 308 97 310 98 312 b 99 311 99 311 100 311 b 99 309 99 307 98 306 z m 112 300 b 112 299 111 299 111 299 b 111 299 110 300 110 301 b 111 301 111 301 112 302 b 112 301 112 300 112 300 z m 109 371 b 110 375 111 378 112 381 b 113 383 115 384 117 385 b 117 379 115 374 109 371 z m 118 387 b 118 389 118 391 118 393 b 119 393 120 393 120 392 b 120 391 119 389 118 387 z m 127 410 l 128 411 l 128 410 z m 137 431 b 134 436 138 437 139 440 b 143 435 140 434 137 431 z"},"C":{"x_min":0,"x_max":476,"ha":476,"o":"m 94 388 l 99 391 l 102 399 b 103 399 103 400 103 400 b 102 401 102 401 102 399 l 99 392 b 93 388 93 387 93 387 b 94 386 94 386 94 388 z m 115 417 l 120 420 l 120 422 l 119 421 b 114 417 114 416 114 416 b 114 415 115 415 115 417 z m 161 470 l 165 474 l 169 478 b 170 479 172 480 173 482 l 174 483 l 173 482 l 168 478 l 164 474 b 163 473 162 471 160 470 l 156 466 l 155 465 l 156 466 z m 438 108 b 436 112 448 127 440 128 b 432 130 421 120 423 130 b 425 140 417 124 400 106 b 382 86 359 61 338 43 b 321 29 307 16 289 2 b 277 -7 264 -15 250 -21 b 236 -28 222 -37 208 -43 b 191 -51 164 -50 145 -51 b 141 -52 137 -52 133 -52 b 116 -52 101 -48 86 -38 b 73 -30 63 -18 56 -5 b 50 5 46 15 41 25 b 33 40 30 56 28 72 b 26 91 26 110 30 128 b 30 132 31 136 31 140 b 33 158 40 175 42 193 l 62 246 b 75 276 89 306 106 335 b 131 379 161 420 195 457 l 216 477 b 223 482 230 488 237 494 b 251 508 266 520 282 530 l 289 535 b 294 539 297 544 297 551 l 315 554 l 333 560 b 342 563 350 565 359 567 b 370 569 381 570 392 564 l 400 562 b 404 561 407 559 409 555 b 412 547 416 540 422 533 b 430 524 432 513 429 500 b 427 494 426 487 425 480 b 424 477 427 475 430 476 l 442 481 b 445 482 448 484 450 487 b 453 492 455 497 456 503 b 456 507 457 511 458 515 b 459 522 458 529 455 535 l 445 558 l 441 563 b 439 565 436 567 434 570 b 418 586 399 592 378 594 b 370 595 363 594 355 594 b 341 593 327 591 315 584 b 312 582 309 581 306 580 b 291 574 277 567 262 560 b 259 558 255 556 252 553 l 220 526 l 234 531 b 234 531 235 531 235 530 b 236 530 236 529 236 528 b 230 521 223 516 216 510 b 207 504 198 497 191 489 b 178 477 167 464 156 451 b 136 427 117 402 98 378 b 94 372 90 366 87 360 b 76 341 66 321 56 302 b 45 280 36 258 27 235 b 20 217 13 199 8 180 b 3 162 -1 144 -3 125 b -6 103 -7 81 -1 60 l 2 41 b 4 31 7 21 11 12 l 19 -5 b 31 -29 48 -47 73 -57 l 108 -71 b 118 -74 128 -76 138 -75 b 141 -75 143 -74 145 -74 l 166 -74 b 172 -73 178 -74 183 -73 b 201 -69 219 -66 237 -61 b 254 -57 271 -49 286 -40 b 306 -29 326 -17 343 -3 b 340 -3 336 -3 333 -2 b 339 6 345 14 357 15 l 362 18 b 379 31 439 104 438 108 z m 323 -6 l 331 -3 b 328 -5 326 -6 323 -6 z m 382 61 l 382 65 l 387 65 z m 388 66 l 388 70 b 390 69 391 69 393 69 z m 399 88 l 393 80 l 387 70 b 386 68 384 67 382 65 b 379 64 379 62 382 60 b 373 46 359 38 344 30 b 343 29 342 29 341 29 b 340 29 339 29 339 30 b 338 30 338 31 338 32 l 340 36 b 357 54 372 73 390 90 b 392 91 393 92 395 92 b 396 93 397 93 398 92 b 400 91 400 90 399 88 z m 214 520 b 214 520 214 520 213 519 b 214 519 214 520 215 520 l 219 525 b 219 525 220 525 220 526 b 220 526 219 525 218 525 z m 203 513 b 208 512 211 516 213 519 b 209 519 206 516 203 513 z m 197 508 l 197 507 l 198 507 l 202 512 l 203 513 b 202 513 202 513 202 513 z m 344 -2 l 344 -3 b 343 -3 343 -3 343 -3 b 343 -4 344 -4 344 -4 z"},"W":{"x_min":0,"x_max":624,"ha":624,"o":"m 323 213 b 323 213 323 213 323 213 b 323 214 323 214 323 214 b 323 214 323 213 322 213 b 322 213 323 213 323 213 z m 585 529 b 583 528 582 525 582 523 b 581 517 581 511 581 506 b 580 503 578 500 579 497 b 578 492 578 486 577 480 b 577 476 578 472 580 468 b 581 470 582 472 583 474 b 583 479 584 484 584 489 b 585 494 586 498 586 502 b 586 510 587 517 587 525 b 588 526 588 528 585 529 z m 591 597 b 586 591 586 584 582 578 b 584 587 583 596 580 605 b 576 600 573 596 571 590 b 570 584 568 578 567 572 b 562 559 559 544 556 530 b 554 525 553 520 552 515 b 551 514 551 512 551 511 b 550 504 551 497 547 490 b 546 489 547 487 546 485 b 546 473 542 461 540 449 b 539 442 538 434 537 427 b 537 420 536 414 535 407 b 534 397 532 388 530 378 b 528 369 527 359 525 349 b 524 345 524 341 523 337 b 520 324 518 310 515 297 b 510 280 507 263 502 245 b 500 232 496 219 492 206 b 491 202 490 197 489 193 b 485 181 481 169 477 156 b 473 141 467 126 462 110 b 458 101 455 91 451 82 b 446 69 440 58 434 46 b 434 44 433 42 432 40 b 429 31 424 23 420 15 b 416 9 412 2 408 -3 b 404 -9 401 -15 396 -19 b 393 -22 390 -25 386 -27 b 379 -31 376 -30 371 -22 b 370 -21 368 -20 367 -18 b 366 -16 364 -14 363 -12 b 360 -5 357 1 355 9 b 352 15 350 21 348 28 b 348 32 346 37 343 40 b 341 42 341 45 341 47 b 344 52 342 58 341 64 b 341 65 341 67 339 69 b 338 71 337 73 337 75 b 338 77 335 79 335 80 b 335 82 337 84 336 86 b 335 91 335 95 336 100 b 336 103 335 105 332 107 b 329 103 333 99 332 95 b 329 98 328 101 328 104 b 330 108 329 113 328 117 b 328 118 328 118 329 119 b 330 119 330 119 331 118 b 333 121 332 124 332 127 b 332 128 331 129 332 131 b 333 137 332 143 329 149 b 329 150 329 152 329 153 b 330 158 330 162 329 167 b 328 169 329 170 329 171 b 329 173 330 176 330 178 b 329 182 328 187 328 191 b 330 198 325 203 325 209 b 325 209 324 209 324 209 b 322 208 322 208 321 204 b 320 204 319 204 317 205 b 317 204 317 204 317 204 b 318 200 319 196 316 193 b 315 193 316 192 315 192 b 316 188 316 185 316 182 b 315 180 316 177 316 175 b 316 173 316 172 315 170 b 315 167 314 162 316 160 b 318 157 320 155 320 152 b 320 147 320 142 320 138 b 320 136 321 134 320 132 b 319 134 317 135 317 136 b 314 139 314 143 313 147 b 313 149 314 151 314 153 b 313 158 312 164 311 169 b 312 178 311 186 309 195 b 308 199 308 203 308 207 b 308 212 309 216 308 221 b 307 225 308 229 308 232 b 308 234 307 235 307 236 b 305 243 307 249 309 256 b 308 257 309 259 311 259 b 313 259 313 257 314 255 b 314 245 318 234 316 223 b 316 220 316 216 316 213 b 316 212 318 211 318 211 b 320 212 319 215 320 217 b 325 219 326 222 323 228 b 321 227 320 227 319 226 b 319 228 318 230 320 230 b 324 231 324 234 322 237 b 321 241 322 244 322 248 b 323 251 324 254 322 257 b 321 260 321 263 322 267 b 322 271 323 276 321 281 b 321 287 320 292 320 298 b 320 303 320 309 318 315 b 317 319 315 324 315 329 b 315 340 308 349 303 359 b 299 366 289 367 283 362 b 281 361 280 360 278 358 b 277 357 276 357 275 359 b 274 359 274 361 274 362 b 274 362 275 362 275 363 b 277 364 278 366 275 368 b 273 370 271 369 269 368 b 268 367 266 367 265 366 b 264 366 262 366 262 365 b 257 362 251 360 248 357 b 243 351 239 345 234 338 b 230 331 227 323 223 315 b 220 307 216 298 213 289 b 213 288 212 288 212 287 b 209 277 206 266 203 256 b 200 247 197 238 194 229 b 192 221 190 213 188 205 b 185 192 183 178 180 165 b 179 160 178 155 176 149 b 175 141 173 134 170 126 b 169 119 167 113 166 106 b 165 102 164 97 162 92 b 161 87 158 82 157 76 b 154 67 151 58 148 49 b 145 42 143 34 139 27 b 137 22 134 18 131 14 b 130 13 130 11 129 10 b 126 7 123 5 120 3 b 119 2 117 1 115 0 b 111 0 109 0 105 4 b 101 9 97 14 94 19 b 93 20 92 22 92 24 b 88 31 86 38 83 45 b 81 49 78 54 76 59 b 76 63 74 68 72 73 b 71 77 70 82 69 86 b 69 87 69 88 69 90 b 68 94 69 99 65 103 b 65 104 64 105 64 106 b 65 113 60 120 60 127 b 61 127 60 128 60 128 b 59 132 58 136 56 139 b 55 140 55 141 55 141 b 58 145 54 149 56 153 b 55 156 56 160 56 163 b 57 169 56 174 55 180 b 54 184 53 187 53 192 b 53 193 53 194 52 195 b 50 200 50 204 52 207 b 54 211 54 214 52 218 b 51 219 51 221 51 222 b 50 227 48 233 50 238 b 50 238 50 239 50 239 b 49 242 50 245 50 248 b 50 250 50 253 50 255 b 49 259 50 262 50 266 b 50 267 50 268 50 269 b 50 276 50 283 51 290 b 51 296 51 302 51 307 b 51 310 51 312 50 314 b 50 323 52 332 50 341 b 50 342 50 342 50 343 b 50 354 50 365 51 376 b 51 383 52 389 52 395 b 53 399 53 404 53 409 b 53 414 52 419 52 424 b 51 425 51 427 52 428 b 56 433 53 438 54 443 b 54 447 53 450 54 454 b 54 457 54 460 54 463 b 54 471 55 478 56 485 b 56 488 56 491 55 494 b 55 498 54 501 56 504 b 56 505 57 506 57 507 b 58 512 58 516 57 521 b 56 528 57 534 58 541 b 58 543 59 545 58 547 b 57 552 58 557 59 561 b 62 567 59 572 54 575 b 51 577 49 577 46 578 b 44 579 42 579 42 580 b 37 584 32 583 28 584 b 24 585 21 584 18 582 b 17 579 14 576 12 573 b 11 572 11 570 12 569 b 15 564 16 559 15 553 b 14 553 14 553 14 553 b 14 540 14 528 13 515 b 14 510 14 506 14 501 b 13 494 12 487 14 480 b 15 478 14 477 14 476 b 13 471 13 466 13 461 b 14 452 14 444 13 436 b 13 430 12 424 12 417 b 13 412 12 408 12 403 b 12 394 11 385 12 375 b 13 366 13 356 13 347 b 13 342 13 338 13 334 b 13 329 13 323 13 318 b 13 311 12 303 12 296 b 13 286 13 275 13 264 b 13 259 13 254 13 248 b 13 239 13 231 14 222 b 14 216 15 210 15 205 b 16 197 17 189 17 181 b 19 169 20 158 21 146 b 21 145 21 143 21 142 b 21 140 21 139 21 137 b 22 132 22 126 23 121 b 26 106 29 91 33 76 b 36 65 39 54 43 44 b 48 25 58 8 70 -7 b 73 -9 75 -11 77 -12 b 81 -14 85 -16 89 -19 b 94 -22 99 -24 105 -26 b 109 -27 113 -29 118 -32 b 120 -32 122 -33 124 -34 b 133 -34 142 -33 146 -24 b 148 -22 150 -21 153 -20 b 159 -20 162 -16 166 -12 b 167 -9 169 -7 171 -5 b 175 0 179 6 184 12 b 184 12 183 13 183 13 b 185 20 188 25 192 31 b 193 32 194 33 195 35 b 195 37 196 39 197 41 b 199 46 201 51 200 58 b 200 60 201 62 201 63 b 203 72 205 80 207 88 b 208 94 208 99 209 105 b 211 108 211 113 212 116 b 213 120 214 123 214 126 b 214 129 215 132 217 135 b 217 137 218 139 218 141 b 219 144 220 146 219 149 b 220 153 222 156 222 160 b 222 171 225 181 227 191 b 231 203 234 215 237 227 b 238 230 240 234 240 237 b 240 240 241 242 242 243 b 244 247 246 251 247 256 b 246 261 248 266 250 270 b 251 271 252 273 252 275 b 252 281 255 284 258 289 b 259 290 260 291 260 293 b 260 300 263 305 267 310 b 268 310 268 310 269 310 b 270 307 270 304 274 303 b 275 303 275 301 276 300 b 277 295 277 290 279 286 b 280 283 280 279 282 276 b 280 277 279 277 277 278 b 277 276 277 274 277 273 b 279 265 280 257 281 249 b 282 236 282 224 284 211 b 284 202 284 192 285 182 b 286 169 289 156 290 143 b 290 139 290 136 291 133 b 291 118 293 104 295 90 b 297 86 296 82 297 78 b 298 70 300 62 302 54 b 302 50 302 47 304 43 b 307 32 310 20 314 9 b 315 1 319 -6 323 -14 b 327 -22 333 -30 340 -37 b 344 -42 350 -45 357 -46 b 358 -47 360 -48 362 -48 b 364 -49 367 -50 369 -51 b 373 -52 377 -53 382 -55 b 384 -56 387 -56 389 -57 b 392 -57 394 -57 397 -57 b 401 -58 404 -57 407 -54 b 408 -53 411 -52 413 -50 b 416 -49 419 -48 422 -46 b 429 -43 436 -40 439 -32 b 439 -31 440 -30 441 -29 b 446 -26 449 -22 451 -17 b 453 -13 455 -9 458 -6 b 460 -5 461 -4 461 -3 b 463 1 466 6 468 11 b 473 19 476 28 480 37 b 482 41 484 45 486 49 b 489 57 492 66 495 75 b 498 83 502 92 505 100 b 508 106 510 113 512 119 b 515 128 518 137 521 146 b 522 149 523 153 524 157 b 527 164 529 170 531 177 b 531 183 533 188 534 194 b 536 202 539 210 541 217 b 542 223 543 228 544 234 b 546 239 548 244 549 249 b 550 252 550 256 551 259 b 553 266 553 273 554 280 b 555 283 556 285 556 288 b 556 292 555 296 558 299 b 559 299 558 300 558 300 b 559 305 562 310 560 316 b 560 317 561 318 562 319 b 564 325 565 332 565 338 b 567 343 566 348 567 352 b 569 361 570 370 571 379 b 571 379 571 380 571 381 b 573 387 573 394 574 400 b 574 403 574 407 574 411 b 576 414 576 420 577 424 b 579 429 579 434 580 439 b 580 445 581 451 581 457 b 581 460 582 462 580 465 b 579 463 578 462 578 460 b 576 456 576 451 575 446 b 574 436 574 427 571 417 b 571 416 571 415 571 414 b 570 408 569 401 569 395 b 567 382 564 369 562 357 b 560 346 558 336 556 326 b 553 314 551 303 548 292 b 547 289 548 286 547 284 b 545 276 543 268 541 260 b 539 250 537 241 535 231 b 534 229 532 227 531 224 b 528 214 528 203 523 193 b 523 193 523 192 522 191 b 523 188 522 186 521 184 b 518 178 517 171 516 165 b 512 157 509 149 507 141 b 506 139 505 138 504 137 b 502 134 501 131 501 127 b 501 125 500 123 499 121 b 497 116 495 112 493 108 b 491 104 490 100 489 96 b 487 91 486 86 482 82 b 479 79 477 75 476 69 b 476 68 475 67 475 66 b 473 63 470 61 469 58 b 469 53 466 50 464 46 b 463 48 464 50 463 51 b 461 53 461 55 461 57 b 463 63 466 67 466 73 b 470 79 470 87 474 93 b 477 98 479 104 480 110 b 480 113 481 115 482 117 b 485 124 488 132 489 140 b 490 141 490 143 490 145 b 493 152 497 158 498 166 b 497 168 499 171 500 173 b 502 176 503 180 504 184 b 507 195 509 207 512 218 b 514 229 517 240 520 250 b 522 255 523 260 524 265 b 524 275 529 283 529 294 b 529 295 530 295 530 296 b 531 300 533 304 529 307 b 529 308 530 308 530 308 b 533 309 533 312 534 315 b 534 317 535 319 534 322 b 536 327 539 333 539 338 b 540 340 540 343 540 345 b 540 349 541 353 541 357 b 542 361 543 364 541 367 b 541 369 541 371 542 372 b 544 375 543 378 542 381 b 542 386 542 391 546 394 b 547 394 548 395 548 396 b 546 402 548 408 549 414 b 548 414 547 415 546 416 b 549 420 550 423 548 427 b 548 428 548 429 548 430 b 550 435 549 440 551 445 b 553 447 553 450 555 452 b 555 453 555 454 555 454 b 554 454 554 454 553 455 b 552 456 552 457 553 458 b 555 466 556 474 557 482 b 558 486 557 491 559 496 b 562 507 562 518 565 529 b 566 533 567 538 569 543 b 569 545 570 547 571 549 b 572 548 573 547 574 545 b 575 547 576 548 577 550 b 579 556 581 562 583 568 b 584 569 585 571 587 571 b 589 567 584 563 588 558 b 588 560 589 560 589 561 b 591 568 593 575 595 582 b 597 587 597 593 591 597 z m 45 284 b 41 271 47 257 42 245 b 42 247 41 249 41 250 b 42 257 42 264 41 271 b 40 274 41 278 41 281 b 41 285 42 288 41 292 b 41 295 41 298 43 302 b 45 295 43 290 45 284 z m 30 428 b 32 425 33 423 33 421 b 32 418 31 416 33 413 b 33 411 32 409 29 407 b 29 415 30 421 30 428 z m 26 361 b 27 366 27 372 28 377 b 28 384 28 392 29 399 b 29 401 29 403 29 406 b 33 404 34 402 33 399 b 32 395 32 391 30 387 b 29 384 28 382 31 379 b 32 377 34 373 32 370 b 33 369 34 368 34 367 b 35 360 34 359 29 355 b 27 357 26 359 26 361 z m 48 68 b 47 71 46 73 46 75 b 49 74 49 74 48 68 z m 45 78 b 41 83 43 89 41 93 b 43 94 45 94 45 93 b 47 88 49 83 45 78 z m 36 220 b 35 215 36 211 36 206 b 31 207 31 207 30 203 b 30 199 30 195 34 191 b 37 188 37 184 36 180 b 35 178 34 177 34 175 b 34 172 34 170 34 167 b 34 164 34 160 34 157 b 33 154 33 151 35 148 b 37 147 38 145 38 144 b 39 142 39 140 40 138 b 39 137 37 137 37 136 b 37 135 37 133 37 132 b 37 128 39 123 39 118 b 40 118 41 117 42 117 l 43 104 b 42 103 41 103 40 102 b 38 106 37 109 38 112 b 37 116 36 120 36 124 b 35 133 33 142 32 151 b 31 161 30 170 30 179 b 29 186 29 192 29 198 b 28 207 27 215 27 223 b 26 239 26 254 25 270 b 26 280 26 291 26 301 b 26 308 27 314 27 321 b 27 329 26 337 27 345 b 27 350 28 352 33 352 b 33 351 33 350 33 349 b 32 346 32 344 33 341 b 34 340 33 338 32 337 b 31 335 32 333 32 330 b 32 327 33 324 33 321 b 33 319 33 317 33 315 b 34 312 34 310 31 309 b 30 309 30 307 29 305 b 31 306 32 306 32 307 b 35 302 34 291 30 286 b 33 284 33 282 34 279 b 34 275 33 270 34 266 b 34 261 34 256 34 252 b 34 249 35 247 34 245 b 33 236 35 228 36 220 z m 50 64 b 53 60 54 56 55 52 b 52 56 51 60 50 64 z m 56 44 b 56 46 55 49 55 51 b 55 49 57 47 58 45 b 57 45 57 45 56 44 z m 53 105 b 53 105 52 105 52 105 l 50 125 b 53 121 54 111 53 105 z m 46 213 b 45 206 47 200 46 193 b 46 192 47 191 47 190 b 47 182 47 174 48 166 b 49 157 48 149 51 140 b 52 138 52 134 50 131 b 50 133 49 133 49 134 b 48 144 45 154 46 164 b 46 165 46 167 46 168 b 45 172 45 176 45 180 b 44 184 44 189 42 194 b 42 196 42 198 42 200 b 43 205 43 210 40 215 b 40 216 40 218 40 219 b 40 225 41 232 41 238 b 41 239 42 240 42 243 b 43 240 44 239 44 237 b 45 229 46 221 46 213 z m 263 333 b 262 331 260 329 259 327 b 257 321 254 315 253 310 b 249 302 247 294 244 286 b 244 285 244 283 243 282 b 238 272 236 260 232 249 b 229 235 224 220 220 205 b 218 198 217 190 215 183 b 212 172 211 161 207 150 b 206 144 205 138 204 132 b 202 122 200 112 196 103 b 194 96 192 88 190 80 b 190 76 186 73 182 71 b 181 72 181 73 181 74 b 182 82 181 90 184 97 b 185 98 185 99 185 100 b 185 101 184 103 184 103 b 186 109 187 114 189 119 b 190 121 190 123 190 126 b 192 134 193 143 194 152 b 194 153 194 154 195 154 b 197 158 197 162 199 166 b 199 172 201 177 201 183 b 203 190 204 198 206 205 b 208 211 208 217 210 223 b 210 225 212 227 213 229 b 214 232 214 236 215 240 b 216 243 215 247 218 250 b 219 251 220 253 220 255 b 222 260 223 266 225 271 b 226 275 229 278 230 282 b 230 283 231 285 231 286 b 232 288 232 291 233 293 b 236 299 238 305 242 311 b 243 315 246 319 246 324 b 247 325 248 327 248 327 b 252 328 253 331 255 333 b 256 336 259 339 262 340 b 263 340 263 340 264 339 b 263 337 263 335 263 333 z m 297 221 b 297 226 297 231 297 236 b 297 238 297 240 297 242 b 298 243 298 243 300 244 b 300 238 300 233 300 228 b 300 226 299 224 301 222 b 302 216 301 211 299 205 b 298 210 297 215 297 221 z m 299 172 b 300 177 299 183 299 188 b 298 192 299 196 299 201 b 299 201 299 201 299 201 b 301 195 302 189 302 183 b 303 178 303 173 303 168 b 304 165 303 163 303 160 b 301 161 301 163 301 164 b 301 167 299 170 299 172 z m 308 110 b 310 107 310 105 308 103 b 306 106 307 107 308 110 z m 310 98 b 309 91 314 85 314 77 b 313 72 315 67 316 61 b 317 52 319 43 321 34 b 313 55 308 76 310 98 z m 322 28 b 325 23 325 17 326 11 b 323 16 322 22 322 28 z m 321 122 b 322 120 323 118 320 116 b 320 119 319 120 321 122 z m 322 94 b 322 95 323 95 324 96 b 324 96 325 95 325 94 b 326 91 327 88 325 85 b 324 87 324 89 322 91 b 322 92 321 93 322 94 z m 327 77 l 327 74 b 327 74 327 74 327 74 l 327 77 b 327 77 327 77 327 77 z m 329 58 b 326 61 326 61 329 63 b 330 61 330 60 329 58 z m 333 87 b 333 88 332 89 331 90 b 331 90 332 90 332 91 b 333 90 334 89 334 88 b 334 88 334 87 333 87 z"},"A":{"x_min":0,"x_max":411,"ha":411,"o":"m 549 312 b 547 315 545 317 543 320 b 541 324 538 325 534 325 b 532 325 529 325 526 325 b 514 326 503 324 491 322 b 474 321 456 319 439 317 b 420 314 401 313 382 309 b 364 305 346 303 329 300 b 324 300 320 303 320 307 b 321 313 321 320 321 326 b 321 342 321 358 324 373 b 324 375 324 377 324 380 b 325 393 326 406 327 419 b 329 432 330 445 331 458 b 332 465 333 472 333 479 b 333 506 336 534 334 562 b 333 570 334 578 330 586 b 329 590 329 594 328 598 b 328 600 328 602 328 604 b 328 606 324 608 323 608 b 315 605 307 605 299 608 b 291 610 283 607 276 600 b 272 596 269 592 265 588 b 254 571 242 554 231 536 b 218 514 204 493 194 469 b 193 468 192 466 192 465 b 187 455 181 446 176 436 b 170 423 164 411 158 399 b 153 389 148 380 144 371 b 131 338 116 306 101 274 b 100 271 98 268 96 265 b 94 259 89 256 83 255 b 61 251 39 247 16 243 b 1 240 -14 238 -29 236 b -41 234 -54 234 -66 235 b -69 236 -72 237 -74 237 b -78 237 -81 235 -84 233 b -89 229 -93 218 -88 210 b -86 207 -84 203 -82 199 b -79 193 -74 190 -67 190 b -56 189 -45 189 -34 189 b -31 189 -28 190 -26 191 b 3 196 33 202 62 208 b 63 208 65 208 66 208 b 69 208 71 205 70 203 b 69 199 69 196 67 193 b 62 181 57 168 52 156 b 43 132 33 107 24 83 b 18 66 13 50 5 34 b 0 24 -3 14 -5 3 b -6 0 -5 -3 -3 -5 b -1 -7 2 -9 5 -11 b 7 -14 11 -15 14 -15 b 18 -15 23 -15 27 -14 b 32 -13 35 -10 36 -5 b 38 0 38 5 41 9 b 43 13 44 18 46 23 b 54 47 62 71 70 96 b 74 107 78 119 82 131 b 86 143 90 156 95 168 b 100 181 106 194 111 206 b 114 215 120 220 129 221 b 131 221 133 222 135 222 b 148 225 161 227 174 229 b 199 234 223 239 248 243 b 251 244 254 244 258 245 b 260 245 263 242 263 240 b 264 236 264 231 264 227 b 264 213 264 198 266 184 b 267 173 268 162 268 151 b 268 134 272 118 272 101 b 273 99 274 96 276 94 b 277 110 276 126 273 141 b 272 151 272 160 272 170 b 272 185 274 200 272 215 b 271 223 272 230 273 238 b 274 246 279 250 287 251 b 291 252 296 250 296 245 b 296 238 297 230 297 223 b 297 210 297 198 297 185 b 297 160 301 134 303 109 b 303 100 304 91 306 82 b 311 62 313 41 316 21 b 318 10 319 -1 323 -12 b 324 -16 325 -21 324 -26 b 324 -26 323 -27 323 -27 b 322 -27 321 -27 321 -27 b 319 -25 317 -23 316 -20 b 312 -14 310 -7 306 0 b 305 3 304 5 302 7 b 299 9 295 11 292 13 b 293 4 296 -4 299 -13 b 301 -17 305 -20 308 -23 b 308 -23 308 -24 308 -24 b 308 -25 306 -27 307 -28 b 309 -33 311 -37 314 -41 b 315 -43 317 -44 318 -45 b 323 -46 327 -49 330 -53 b 339 -68 353 -78 367 -89 b 375 -95 384 -98 393 -102 b 395 -102 398 -102 401 -101 b 401 -100 402 -98 402 -97 b 397 -91 393 -85 386 -81 b 380 -77 375 -70 372 -64 b 367 -57 363 -50 359 -42 b 354 -31 348 -21 345 -8 b 343 0 340 8 333 14 b 331 16 332 19 333 22 l 334 22 l 334 23 l 333 22 b 333 36 332 49 330 62 b 327 77 323 93 324 109 b 324 111 323 113 323 115 b 322 123 321 130 320 138 b 319 154 320 171 317 187 b 317 189 317 190 317 191 b 317 209 317 226 317 243 b 317 245 317 248 317 250 b 317 253 319 256 322 258 b 324 258 325 259 326 259 b 355 266 383 272 412 276 b 432 279 451 282 471 285 b 479 287 486 288 493 291 b 505 295 517 298 529 301 b 535 303 541 305 547 307 b 548 307 550 311 549 312 z m 55 126 b 54 125 54 124 54 123 b 52 125 54 125 55 126 z m 58 129 b 57 128 56 128 55 128 b 55 129 55 130 57 130 b 57 130 58 129 58 129 z m 119 276 b 119 276 118 275 117 276 b 116 276 115 277 115 278 b 116 280 118 282 119 283 b 119 284 120 284 120 283 b 121 283 121 282 121 281 b 121 280 120 278 119 276 z m 129 302 b 128 302 128 302 128 302 b 128 303 129 303 129 304 b 129 303 129 302 129 302 z m 233 512 b 233 510 232 507 230 506 b 231 508 231 510 233 512 z m 229 504 b 229 504 229 504 229 503 b 228 504 228 504 229 504 z m 219 486 b 219 486 218 485 218 485 b 218 485 218 486 218 486 b 219 488 219 488 219 486 z m 187 429 b 189 432 190 435 192 438 b 192 438 193 438 194 438 b 194 438 195 437 195 437 b 193 434 192 431 191 428 b 190 427 188 426 187 426 b 186 426 186 428 187 429 z m 158 249 b 158 249 157 250 156 250 b 157 251 157 253 158 253 b 164 256 171 255 180 254 b 171 252 165 251 158 249 z m 259 269 b 258 269 257 268 257 268 b 244 264 230 262 216 260 b 214 260 212 261 210 261 b 212 262 212 263 214 264 b 227 267 241 268 254 274 b 255 274 256 274 258 274 b 258 274 259 273 259 273 b 260 271 260 270 259 269 z m 271 360 b 270 345 269 331 268 316 b 267 311 267 305 266 300 b 265 292 262 290 254 288 b 221 282 189 275 156 269 b 153 268 151 268 148 268 b 145 267 140 269 140 270 b 140 272 140 274 141 276 b 153 299 162 323 173 346 b 179 357 185 369 191 381 b 194 386 197 392 199 398 b 204 409 208 421 216 431 b 217 432 218 434 219 436 b 223 448 229 459 236 470 b 247 489 259 509 270 529 b 273 533 276 538 280 541 b 282 542 283 542 284 540 b 284 540 285 539 285 539 b 286 530 286 522 287 513 b 287 510 286 507 285 504 b 282 495 279 487 281 478 b 281 476 281 473 280 471 b 278 450 277 429 275 407 b 274 391 273 376 271 360 z m 309 441 b 309 426 308 411 306 395 b 305 382 303 369 306 356 b 306 352 305 346 304 342 b 302 336 301 330 302 324 b 302 317 301 310 299 303 b 298 297 294 294 287 295 b 285 295 283 295 281 296 b 278 297 276 299 276 302 b 275 306 275 310 275 314 b 275 325 276 335 277 345 b 279 360 280 375 281 391 b 281 393 280 395 281 397 b 285 411 283 426 285 440 b 287 455 288 470 289 485 b 289 487 289 488 290 489 b 296 499 296 510 303 520 b 307 518 309 515 309 511 b 310 508 310 504 310 501 b 310 481 309 461 309 441 z m 367 277 b 367 277 366 277 366 278 b 365 278 366 279 368 279 b 370 279 371 279 376 278 b 371 278 369 277 367 277 z m 397 282 b 397 282 396 282 396 283 b 396 283 397 283 397 283 b 398 283 399 283 399 283 b 398 282 398 282 397 282 z m 409 288 b 414 288 419 288 424 288 b 419 285 418 285 409 288 z m 441 297 b 437 296 432 295 427 294 b 423 293 419 292 415 291 b 413 291 411 289 408 288 b 408 288 408 288 408 288 b 399 288 390 288 382 286 b 378 285 374 285 370 285 b 363 285 356 284 350 282 b 342 280 334 280 326 280 b 327 282 329 284 330 284 b 336 285 341 285 346 288 b 349 290 352 290 356 291 b 369 293 382 294 394 298 b 396 298 398 299 400 299 b 411 297 422 299 433 301 b 439 302 445 300 453 300 b 448 297 445 298 441 297 z m 286 44 b 288 47 287 49 287 52 b 286 59 284 65 283 72 b 282 79 280 86 276 92 b 277 79 281 66 280 53 b 280 49 283 46 286 44 z m 276 92 b 276 93 276 93 276 94 b 276 94 276 94 276 94 b 276 94 276 94 276 93 b 276 93 276 93 276 92 z m 289 30 b 289 24 288 19 292 14 b 292 20 292 25 289 30 z m 292 14 b 292 14 292 14 292 13 b 292 13 292 13 292 13 b 292 13 292 14 292 14 b 292 14 292 14 292 14 z m 288 31 l 288 30 b 288 30 288 30 289 30 b 288 30 288 30 288 31 z"},"f":{"x_min":0,"x_max":212,"ha":212,"o":"m 178 -75 b 178 -76 178 -76 178 -77 b 179 -78 179 -77 179 -76 b 179 -75 179 -75 179 -74 b 178 -74 178 -75 178 -75 z m 184 -92 b 184 -94 184 -95 185 -94 b 185 -94 185 -93 185 -92 b 184 -92 184 -92 184 -92 z m 168 -47 b 167 -48 168 -49 168 -49 b 169 -50 169 -51 170 -51 b 169 -50 169 -50 169 -49 b 169 -47 168 -46 168 -47 z m 170 -51 b 170 -52 170 -52 171 -53 b 171 -53 171 -54 171 -54 b 171 -53 171 -53 171 -52 b 171 -52 170 -52 170 -51 z m 171 -54 b 172 -55 172 -57 172 -58 b 172 -59 173 -59 173 -60 b 173 -59 173 -58 173 -57 b 172 -56 172 -55 171 -54 z m 158 -24 l 157 -24 l 157 -25 z m 296 193 b 295 193 294 193 293 193 b 275 184 257 174 240 165 b 229 159 218 154 208 148 b 185 134 160 123 136 111 b 130 108 124 104 117 101 b 113 100 108 95 103 98 b 108 109 101 106 102 118 b 103 126 104 134 107 142 b 109 149 111 156 112 164 b 114 183 118 203 124 221 b 125 228 126 235 127 241 b 128 245 128 248 130 251 b 137 264 139 278 141 292 b 142 301 144 309 146 318 b 151 332 155 346 159 360 b 166 384 174 407 188 428 b 191 435 195 441 198 448 b 198 449 198 452 196 454 b 193 457 189 461 185 464 b 176 470 167 471 157 467 b 150 464 145 460 142 452 b 139 446 136 440 134 434 b 121 399 112 363 104 327 b 100 306 95 286 91 265 b 89 259 87 252 86 246 b 81 219 75 193 69 166 b 63 137 58 123 53 94 b 52 90 51 87 50 84 b 49 83 47 81 45 81 b 43 80 40 80 37 81 b 26 86 15 83 5 79 b -1 77 -8 75 -14 73 b -17 71 -20 70 -22 67 b -25 63 -27 59 -26 54 b -26 53 -27 51 -27 50 b -27 49 -28 49 -28 48 b -29 47 -29 46 -29 45 b -28 44 -26 44 -25 44 b -17 47 -10 47 -2 41 b 5 36 13 34 22 33 b 27 33 32 33 37 32 b 39 32 44 28 42 26 b 26 9 40 12 39 4 b 36 -17 33 -38 32 -59 b 32 -76 31 -93 30 -110 b 28 -127 29 -143 30 -160 b 31 -170 32 -179 33 -189 b 35 -225 40 -261 50 -296 b 54 -308 58 -319 64 -330 b 70 -341 78 -350 87 -359 b 90 -361 94 -364 98 -364 b 104 -364 109 -366 114 -369 b 122 -372 129 -372 137 -370 b 141 -369 146 -368 151 -367 b 157 -366 160 -363 162 -357 b 167 -342 172 -326 177 -311 b 178 -307 178 -302 178 -297 b 177 -291 176 -286 176 -280 b 176 -269 178 -257 179 -246 b 180 -236 183 -227 178 -217 b 178 -216 178 -213 178 -211 b 179 -179 175 -146 168 -114 b 167 -108 166 -103 164 -98 b 158 -80 152 -63 146 -45 b 145 -41 142 -37 142 -33 b 140 -23 135 -15 130 -6 b 122 5 116 18 105 26 b 101 30 98 35 96 41 b 94 44 95 48 98 50 b 120 63 141 76 164 87 b 194 101 220 120 246 139 b 250 142 254 145 257 149 b 261 155 267 159 274 162 b 279 166 285 169 291 172 b 295 175 298 178 300 182 b 302 185 299 193 296 193 z m 102 162 b 102 162 101 163 101 164 b 101 164 101 165 101 165 b 102 166 102 166 103 167 b 103 166 103 165 103 165 b 103 164 102 163 102 162 z m 68 27 b 68 27 70 28 70 29 b 71 27 71 26 72 25 b 72 24 72 22 72 21 b 70 8 68 -5 66 -17 b 66 -18 65 -19 64 -20 b 63 -12 62 -3 62 5 b 63 6 64 7 64 9 b 66 15 67 21 68 27 z m 61 -290 b 61 -290 60 -291 60 -291 b 59 -290 59 -290 59 -289 b 56 -283 53 -277 52 -271 b 48 -247 42 -223 41 -199 b 39 -177 37 -156 36 -135 b 36 -117 37 -100 38 -83 b 40 -59 42 -35 46 -12 b 48 2 50 15 52 29 b 52 30 53 32 55 33 b 56 34 57 34 59 34 b 60 33 61 32 61 31 b 61 22 61 13 61 4 b 61 4 61 4 61 4 b 61 2 59 0 59 -3 b 56 -24 52 -45 51 -68 b 51 -77 49 -86 48 -96 b 48 -99 47 -101 47 -104 b 48 -121 47 -137 48 -154 b 49 -185 52 -216 55 -247 b 56 -257 59 -268 61 -278 b 61 -282 63 -286 61 -290 z m 57 -208 l 57 -207 l 58 -207 z m 58 -147 b 58 -157 59 -167 58 -176 b 57 -176 57 -177 56 -177 b 55 -178 53 -177 54 -175 b 55 -161 53 -146 53 -132 b 53 -129 53 -125 54 -122 b 54 -122 55 -121 55 -121 b 56 -120 58 -121 58 -123 b 58 -131 58 -139 58 -147 z m 58 -105 b 56 -106 55 -106 55 -104 b 53 -95 53 -86 54 -77 b 57 -60 58 -43 60 -26 b 60 -24 61 -22 64 -21 b 64 -25 65 -29 65 -33 b 62 -57 60 -81 58 -105 z m 99 13 b 101 9 103 5 106 2 b 135 -38 149 -83 158 -130 b 160 -141 162 -153 162 -160 b 165 -198 164 -231 158 -263 b 156 -280 152 -297 147 -313 b 144 -322 140 -331 133 -338 b 131 -340 128 -342 126 -343 b 123 -345 117 -344 115 -341 b 112 -339 110 -336 108 -333 b 105 -328 104 -322 101 -317 b 94 -307 91 -295 90 -284 b 89 -280 89 -276 88 -273 b 82 -263 82 -252 81 -241 b 80 -232 80 -223 78 -214 b 77 -203 77 -192 76 -181 b 76 -172 75 -163 74 -154 b 72 -135 74 -117 76 -98 b 76 -94 77 -89 77 -84 b 79 -63 80 -42 81 -21 b 82 -10 83 1 87 11 b 87 13 89 15 90 16 b 91 17 92 17 94 17 b 95 15 97 14 99 13 z m 85 151 b 82 133 78 114 76 96 b 73 89 66 90 67 95 b 68 103 70 111 72 119 b 72 120 72 121 72 121 b 73 137 77 152 81 167 b 82 170 82 174 83 177 b 83 181 83 184 84 187 b 92 219 101 251 109 283 b 112 296 117 309 119 323 b 119 326 120 331 124 333 b 127 328 126 324 124 321 b 122 315 120 309 121 303 b 121 299 119 295 118 291 b 112 271 106 250 102 228 b 102 224 100 220 99 217 b 98 211 96 205 95 199 b 93 183 88 167 85 151 z m 92 117 b 92 118 92 118 91 119 b 91 119 91 120 92 121 b 92 121 93 121 93 122 b 93 121 94 121 94 120 b 93 119 93 118 92 117 z m 97 138 l 97 139 l 98 139 z m 211 123 b 211 123 209 123 209 123 b 209 125 211 125 212 125 b 212 124 211 123 211 123 z m 213 126 b 214 126 214 127 215 128 b 215 128 216 127 217 127 b 216 126 215 126 213 126 z m 143 2 b 142 2 142 3 141 3 b 141 3 141 3 142 3 b 142 2 142 2 143 2 z m 141 3 b 141 4 141 4 141 5 l 140 5 l 141 4 l 141 5 b 141 5 141 4 141 4 b 141 4 141 4 141 3 z m 192 -132 b 194 -128 193 -125 191 -121 b 189 -124 191 -128 192 -132 z"},"Q":{"x_min":0,"x_max":406,"ha":406,"o":"m 411 480 b 411 480 411 479 411 479 b 411 479 411 479 411 479 b 411 479 411 479 411 480 b 411 480 411 480 411 480 z m 409 489 b 406 497 403 505 400 513 b 400 516 399 519 397 521 b 389 532 383 544 374 555 b 368 562 362 569 356 576 b 329 606 295 622 257 625 b 240 626 224 623 210 614 b 202 610 195 603 188 598 b 187 597 186 596 185 595 b 180 586 174 578 170 569 b 161 550 154 529 148 509 b 148 508 148 507 148 507 b 148 506 148 505 148 505 b 149 504 150 504 152 505 b 152 506 154 506 155 507 b 155 496 152 486 149 476 b 145 463 143 449 142 436 b 141 423 140 411 138 399 b 134 374 132 349 134 323 b 134 320 134 316 134 313 b 135 298 135 283 137 267 b 141 241 142 215 147 189 b 142 189 140 188 140 185 b 140 183 140 181 140 179 b 143 159 148 139 153 119 b 155 111 157 103 159 95 b 159 95 160 95 161 95 b 163 98 160 104 163 108 b 165 101 167 95 169 89 b 170 85 171 80 169 77 b 167 73 167 69 168 65 b 173 49 175 33 181 18 b 182 15 180 10 177 9 b 174 8 170 6 166 5 b 158 3 150 2 142 1 b 138 1 135 1 131 2 b 124 5 117 9 111 14 b 102 22 95 31 89 41 b 79 57 73 74 69 92 b 67 100 66 109 64 117 b 57 144 55 170 59 197 b 60 201 60 205 60 209 b 61 226 61 244 67 260 b 68 265 69 270 69 276 b 70 281 72 286 73 291 b 76 303 80 315 84 326 b 95 355 107 383 125 408 b 127 410 129 413 130 416 b 131 418 130 421 129 422 b 128 425 126 427 124 429 b 120 434 115 436 109 435 b 105 434 101 434 97 433 b 84 430 73 425 68 411 b 61 392 51 374 47 353 b 45 347 42 340 41 334 l 41 334 b 41 333 41 333 41 333 b 41 333 41 333 41 333 b 44 331 43 328 42 325 b 42 325 42 325 42 326 b 42 325 42 325 42 325 l 42 325 b 41 323 41 320 38 318 b 37 318 36 316 37 315 b 38 310 38 304 36 299 b 31 281 29 262 26 243 b 23 220 20 197 21 174 b 21 171 21 168 20 165 b 19 155 20 145 21 134 b 22 127 23 121 23 114 b 26 76 42 43 67 14 b 79 0 93 -9 110 -15 b 118 -18 126 -20 134 -23 b 142 -26 150 -27 158 -24 b 165 -22 173 -22 180 -21 b 191 -20 194 -21 198 -31 b 203 -42 209 -53 213 -65 b 217 -75 222 -86 228 -95 b 243 -118 257 -140 272 -162 b 276 -167 280 -172 284 -178 b 295 -195 307 -212 321 -228 b 332 -242 345 -255 358 -268 b 369 -279 383 -284 397 -287 b 398 -287 399 -286 400 -285 b 400 -284 400 -283 400 -283 b 390 -274 382 -265 373 -255 b 372 -252 369 -250 367 -249 b 355 -238 345 -226 336 -212 b 332 -205 329 -197 321 -192 b 319 -191 317 -188 316 -185 b 314 -182 312 -179 311 -176 b 308 -171 305 -166 302 -161 b 300 -155 296 -150 290 -147 b 287 -145 285 -141 286 -138 b 288 -134 288 -132 286 -128 b 281 -119 276 -109 272 -99 b 271 -95 268 -92 266 -88 b 257 -74 251 -60 246 -45 b 244 -37 241 -29 238 -21 b 237 -18 235 -15 234 -11 b 232 -6 234 -2 238 1 b 241 4 244 6 247 8 b 253 13 259 17 265 21 b 275 29 283 37 289 48 b 292 54 297 60 301 66 b 305 70 309 75 312 80 b 321 91 329 103 338 115 b 339 117 340 120 341 122 b 341 123 341 124 340 124 b 339 125 338 126 337 126 b 335 126 334 125 333 125 b 332 124 330 124 329 123 b 327 123 324 124 324 125 b 323 127 323 128 323 129 b 328 141 332 152 337 163 b 343 176 349 189 357 202 b 364 211 368 222 372 232 b 379 248 385 265 391 281 b 395 291 398 301 400 312 b 403 328 405 344 412 359 b 413 362 412 366 410 369 b 405 373 403 378 403 384 b 403 390 402 395 403 401 b 403 414 401 427 399 440 b 395 454 391 469 390 483 b 390 488 388 493 385 497 b 382 504 379 512 378 519 b 378 525 375 529 371 532 b 370 532 370 533 369 533 b 364 541 358 549 353 558 b 352 559 353 561 354 561 b 355 562 357 562 358 561 b 363 559 366 555 369 551 b 376 541 383 531 389 520 b 393 514 397 507 399 499 b 401 492 404 485 411 480 b 410 483 410 487 409 489 z m 150 336 b 151 336 151 336 152 337 b 152 336 152 336 153 335 b 152 335 152 334 152 334 b 151 333 150 334 150 336 z m 164 190 b 161 198 161 198 163 213 b 164 205 164 199 165 194 b 165 192 165 191 164 190 z m 332 582 b 332 581 332 581 331 582 b 332 582 332 582 332 582 z m 169 469 b 167 464 166 459 164 455 b 163 463 165 472 167 480 b 167 481 169 481 169 482 b 170 477 170 473 169 469 z m 169 488 b 169 489 170 490 170 490 b 171 491 172 490 172 488 b 171 486 171 485 170 484 b 170 485 169 487 169 488 z m 166 535 b 166 536 167 538 168 539 b 167 538 166 536 166 535 z m 164 531 b 164 529 163 527 162 526 b 163 528 163 529 164 531 z m 161 523 b 160 521 159 519 159 517 b 159 519 159 522 161 523 z m 158 515 b 157 512 157 510 155 508 b 155 511 156 513 158 515 z m 171 152 b 171 154 170 155 170 156 b 170 157 171 157 171 158 b 171 156 171 155 172 154 b 172 153 171 153 171 152 z m 153 368 b 152 368 152 369 152 369 b 151 372 151 375 152 377 b 152 378 153 379 154 380 b 155 380 155 380 156 380 b 156 380 157 379 157 378 b 158 375 156 372 154 369 b 154 369 153 368 153 368 z m 181 107 b 181 107 180 106 179 105 b 179 106 178 106 178 107 b 178 109 177 112 177 115 b 177 115 178 116 179 117 b 179 116 180 116 180 115 b 181 114 181 113 181 111 b 181 110 182 109 181 107 z m 355 531 b 361 516 369 502 374 487 b 380 468 384 448 387 428 b 389 411 390 393 389 376 b 388 356 386 337 383 317 b 383 313 382 309 381 305 b 376 294 374 282 371 270 b 365 248 356 227 346 207 b 343 199 340 192 336 185 b 334 181 332 176 330 172 b 328 169 326 165 324 162 b 312 135 295 111 278 88 b 267 74 256 61 243 50 b 237 45 231 41 225 37 b 223 35 218 37 217 41 b 213 58 205 74 203 92 b 202 98 200 104 198 110 b 191 138 185 166 181 194 b 181 197 181 199 180 201 b 171 243 169 286 167 329 b 166 339 168 350 167 360 b 166 367 166 374 166 381 b 166 387 162 389 157 389 b 154 389 153 392 153 394 b 153 396 153 398 153 400 b 154 405 155 410 157 416 b 159 414 160 411 162 409 b 162 409 163 408 164 408 b 165 407 166 408 166 410 b 167 415 168 419 169 424 b 169 430 168 431 162 429 b 159 429 158 430 158 432 b 157 437 159 442 160 446 b 161 449 162 452 164 453 b 166 452 167 450 168 449 b 169 449 170 449 170 449 b 172 452 174 455 175 458 b 177 474 183 489 186 505 b 190 523 198 540 207 555 b 211 562 216 570 220 578 b 225 587 233 594 242 600 b 248 605 255 606 263 604 b 279 600 295 595 307 583 b 323 570 338 556 349 540 b 351 537 354 534 355 531 z m 411 479 b 411 474 411 470 413 465 b 413 465 414 464 414 464 b 415 464 416 465 416 466 b 416 471 415 475 411 479 z m 354 150 b 355 150 355 150 356 150 b 357 151 356 152 355 152 b 355 152 354 151 354 150 z m 42 326 b 41 328 41 330 41 333 b 39 329 39 328 42 326 z"},"w":{"x_min":0,"x_max":443,"ha":443,"o":"m 362 206 b 361 219 352 227 338 229 b 336 229 335 228 333 228 b 333 227 333 225 333 224 b 334 202 329 181 321 161 b 313 139 303 119 286 102 b 276 91 259 80 247 72 b 245 70 240 73 240 76 b 239 80 239 83 238 87 b 237 100 236 114 234 127 b 233 136 230 144 225 151 b 221 156 217 160 210 158 b 205 156 208 160 205 163 b 198 170 197 168 189 165 b 186 164 183 161 181 159 b 173 152 166 145 161 136 b 148 112 125 83 109 62 b 107 59 105 57 102 55 b 101 55 99 55 97 56 b 97 56 96 57 96 58 b 96 62 95 66 96 70 b 99 90 97 138 100 158 b 100 162 100 166 98 170 b 95 176 93 181 90 186 b 84 193 83 197 73 196 b 64 195 57 189 57 179 b 58 164 60 128 59 113 b 58 99 57 84 57 69 b 57 61 59 52 61 44 b 63 36 67 28 74 22 b 81 16 82 10 89 4 b 92 2 96 2 99 3 b 109 5 116 10 123 17 b 131 25 139 33 145 42 b 157 60 171 76 181 95 b 182 97 185 99 186 101 b 187 101 188 101 189 101 b 191 101 192 100 193 98 b 194 91 196 84 198 76 b 201 67 206 59 213 53 b 224 43 237 36 250 29 b 254 28 258 27 263 27 b 266 27 269 28 273 28 b 282 28 290 33 295 40 b 303 52 314 62 324 73 b 333 82 341 93 347 106 b 363 138 365 172 362 206 z m 338 132 b 338 130 336 129 335 130 b 335 131 334 133 335 134 b 335 135 337 135 338 136 b 338 134 338 133 338 132 z m 338 136 b 337 142 339 146 343 150 b 343 147 343 144 342 141 b 342 139 341 137 338 136 z m 347 157 b 346 156 345 154 344 153 b 344 154 345 156 345 158 b 345 160 345 161 347 160 b 347 159 347 158 347 157 z m 352 178 b 350 177 349 178 350 181 b 351 181 352 181 352 181 b 352 180 352 179 352 178 z m 331 234 b 330 233 330 232 330 232 b 331 231 332 230 333 229 b 333 231 333 233 331 234 z m 333 229 b 333 229 333 229 333 228 b 333 228 333 228 333 228 b 333 229 333 229 333 229 b 333 229 333 229 333 229 z"},"-":{"x_min":0,"x_max":445,"ha":445,"o":"m 371 196 b 369 198 366 200 362 203 b 365 205 367 207 369 209 b 363 217 356 223 345 223 b 325 222 304 222 284 222 b 229 223 210 222 155 220 b 150 220 146 220 141 219 b 110 216 80 215 49 222 b 45 218 40 213 36 209 b 37 205 39 202 39 199 b 38 187 45 183 53 179 b 64 175 74 175 85 175 b 115 175 143 184 173 186 b 205 187 201 189 233 191 b 251 192 269 190 287 190 b 313 190 340 192 366 184 b 369 183 373 185 377 186 b 378 187 378 189 379 191 b 377 193 374 194 371 196 z m 205 203 b 213 204 221 206 229 206 b 249 206 268 206 288 206 b 300 206 313 205 325 205 b 331 205 337 204 343 201 b 319 197 225 196 205 203 z"},"E":{"x_min":0,"x_max":399,"ha":399,"o":"m 363 -1 b 357 -2 352 -3 346 -4 b 341 -5 335 -5 330 -6 b 293 -11 256 -15 218 -17 b 204 -18 189 -18 175 -17 b 162 -17 148 -16 136 -11 b 121 -6 110 3 104 17 b 101 23 100 28 97 34 b 93 41 92 48 92 56 b 93 64 93 71 93 79 b 93 84 94 90 94 95 b 93 101 94 106 96 112 b 97 116 98 121 99 125 b 101 136 104 146 102 157 b 102 160 102 163 104 165 b 107 168 108 173 109 177 b 110 184 111 190 114 196 b 117 204 120 212 122 220 b 123 228 128 234 138 235 b 144 236 151 237 158 238 b 194 244 230 248 266 258 b 259 259 252 259 245 260 b 244 260 244 261 243 261 b 243 262 244 262 245 262 b 254 264 262 266 271 267 b 282 270 293 271 304 274 b 310 275 317 276 324 276 b 328 276 332 276 337 277 b 346 278 355 282 363 287 b 364 287 364 289 364 290 b 363 294 358 296 355 296 b 348 296 341 296 334 295 b 313 293 291 292 270 288 b 241 284 211 282 181 278 b 170 277 158 276 146 276 b 146 275 145 276 144 276 b 139 275 135 279 135 284 b 135 286 135 289 135 291 b 139 302 142 313 146 323 b 153 342 159 362 163 382 b 167 397 170 411 174 426 b 178 439 181 452 182 465 b 184 478 180 488 169 496 b 168 497 167 498 166 499 b 162 502 157 503 152 503 b 147 503 143 504 138 504 b 132 504 127 501 124 497 b 122 495 122 492 122 489 b 123 474 121 459 118 443 b 111 416 104 388 99 360 b 93 332 86 305 79 277 b 79 277 79 276 78 275 b 76 271 74 267 68 267 b 59 266 50 265 41 265 b 36 264 30 264 25 264 b 19 263 15 258 16 253 b 16 251 18 249 18 248 b 20 244 18 239 21 237 b 24 234 28 232 31 230 b 32 229 33 228 34 228 b 38 225 43 223 48 223 b 51 223 55 223 58 223 b 60 222 63 219 63 217 b 63 216 63 215 63 213 b 61 205 60 197 57 189 b 52 170 48 151 44 132 b 39 109 37 86 38 63 b 39 48 41 33 49 20 b 62 -2 80 -19 107 -26 b 113 -28 118 -30 123 -32 b 128 -33 134 -35 139 -36 b 148 -37 157 -38 166 -38 b 181 -38 196 -38 212 -38 b 245 -39 278 -36 311 -30 b 317 -29 324 -28 331 -25 b 340 -21 349 -20 358 -18 b 362 -17 366 -15 370 -14 b 370 -14 370 -13 370 -12 b 366 -11 362 -11 358 -10 b 360 -7 361 -4 363 -1 z m 124 362 b 125 362 125 361 125 361 b 124 359 123 358 122 357 b 122 359 122 360 123 361 b 123 363 123 363 124 362 z m 121 355 b 121 355 121 356 122 356 b 123 347 121 339 118 330 b 118 330 116 329 116 329 b 115 330 114 331 114 332 b 114 340 117 347 121 355 z m 98 281 b 102 292 105 302 107 313 b 107 314 108 315 109 316 b 109 317 111 317 112 317 b 112 317 113 316 113 316 b 113 315 113 314 113 314 b 110 301 107 289 103 277 b 103 276 101 275 100 275 b 99 275 99 275 98 276 b 98 278 98 280 98 281 z m 88 214 b 87 209 84 203 83 198 b 81 189 79 180 77 171 b 76 166 74 160 73 154 b 63 122 58 89 59 55 b 59 50 59 46 59 41 b 58 41 58 41 57 40 b 53 49 51 57 52 66 b 54 83 54 100 58 116 b 59 122 59 127 60 132 b 62 145 65 158 69 172 b 73 187 78 202 81 218 b 81 220 83 222 84 223 b 85 224 87 223 87 222 b 88 219 89 217 88 214 z m 588 584 b 585 589 581 593 574 594 b 555 598 536 599 516 598 b 492 597 468 596 444 593 b 406 590 368 588 330 585 b 300 583 271 581 241 579 b 199 576 157 573 115 570 b 96 569 78 568 59 572 b 54 574 49 576 43 577 b 42 578 39 577 37 577 b 35 576 33 574 30 573 b 24 570 22 566 22 560 b 22 555 23 549 24 542 b 26 540 28 539 30 538 b 40 530 51 527 64 528 b 78 529 92 529 106 530 b 114 531 122 531 131 531 b 139 532 147 532 156 533 b 186 536 216 539 246 543 b 248 543 250 543 252 543 b 268 542 283 543 297 547 b 322 548 346 551 370 554 b 387 556 404 557 421 559 b 438 560 454 563 471 563 b 475 563 480 564 485 565 b 492 565 499 566 506 567 b 519 567 532 569 545 569 b 559 569 572 574 586 574 b 588 574 590 578 590 580 b 589 581 589 583 588 584 z m 465 571 b 464 571 463 571 463 571 b 462 570 460 570 459 570 b 458 571 457 571 457 572 b 457 572 458 572 458 572 b 460 573 461 573 462 573 b 464 573 465 572 465 571 z m 285 262 b 291 259 296 260 301 262 b 302 262 303 263 304 263 b 297 265 291 264 285 262 z m 304 263 b 304 263 304 263 305 263 b 305 264 305 264 306 264 b 305 264 305 264 304 264 b 304 264 304 264 304 263 z m 308 265 b 308 265 308 265 307 266 b 307 265 306 265 306 264 b 306 264 307 264 308 265 z"},"s":{"x_min":0,"x_max":210,"ha":210,"o":"m 219 156 b 218 156 217 155 216 154 b 218 154 219 155 219 156 z m 220 156 b 220 156 220 156 220 156 b 220 156 220 156 219 156 b 220 156 220 156 220 156 b 220 156 220 156 220 156 z m 302 183 b 277 174 253 165 230 153 b 225 151 220 148 216 144 b 215 143 214 143 212 142 b 208 142 204 141 200 140 b 198 135 194 134 189 133 b 189 135 189 137 190 139 b 186 139 182 140 179 138 b 174 135 170 132 165 130 b 157 125 149 120 142 115 b 137 111 133 107 128 104 b 128 104 124 101 119 97 l 119 99 b 113 113 107 125 107 125 b 91 147 82 170 78 195 b 77 200 77 204 77 209 b 78 217 80 226 85 233 b 87 235 88 238 90 241 b 92 245 94 245 98 244 b 99 243 100 242 101 242 b 108 243 114 242 120 245 b 123 246 124 248 126 250 b 129 254 127 260 124 262 b 118 265 113 267 108 270 b 100 276 92 276 84 274 b 78 273 72 271 67 269 b 62 265 58 261 54 257 b 48 252 44 245 43 237 b 41 226 40 215 43 204 b 46 186 51 169 60 152 b 65 143 70 134 75 125 b 79 117 83 109 87 101 l 97 80 b 96 79 95 78 95 77 l 95 77 b 85 66 75 56 66 45 b 54 31 44 16 36 0 b 29 -15 22 -31 24 -47 b 24 -47 24 -47 24 -47 b 24 -50 25 -53 25 -56 b 25 -64 30 -71 34 -78 b 38 -84 44 -88 51 -89 b 56 -90 60 -90 65 -90 b 74 -90 83 -87 90 -81 b 94 -77 98 -74 102 -71 b 114 -62 123 -50 129 -36 b 135 -23 139 -11 139 4 b 139 12 141 20 139 29 b 137 39 136 48 133 58 b 133 60 132 63 132 65 b 134 67 136 69 138 72 b 139 72 139 73 140 73 b 142 75 143 76 145 77 b 158 89 171 99 185 108 b 189 111 193 113 197 117 b 195 117 194 118 195 119 b 195 120 196 120 197 120 b 202 127 208 134 217 136 b 220 136 222 137 225 138 b 228 140 232 142 236 144 b 254 155 273 164 293 173 b 300 176 307 179 312 184 b 309 185 305 184 302 183 z m 100 69 b 100 69 101 69 102 69 b 102 68 102 68 102 67 b 102 65 102 64 101 62 b 97 56 91 52 86 49 b 88 57 92 64 100 69 z m 70 37 b 73 40 75 43 78 45 b 80 47 82 48 85 48 b 85 47 84 45 84 45 b 76 34 68 23 59 14 b 59 13 59 13 58 13 b 60 24 64 31 70 37 z m 59 -62 b 55 -64 50 -61 50 -57 b 50 -56 50 -56 50 -55 b 50 -54 50 -52 51 -51 b 51 -50 51 -49 52 -47 b 59 -26 68 -5 83 14 b 89 22 95 30 102 38 b 103 40 105 42 108 43 b 108 39 109 36 109 33 b 109 29 109 25 109 25 b 110 11 108 1 105 -8 b 97 -32 83 -52 59 -62 z m 101 -46 b 97 -51 95 -57 89 -61 b 89 -62 88 -62 88 -61 b 87 -61 87 -60 87 -60 b 90 -54 94 -48 94 -40 b 95 -39 96 -37 97 -35 b 102 -28 106 -20 109 -11 b 109 -10 111 -8 112 -7 b 112 -8 112 -9 112 -10 b 114 -24 109 -36 101 -46 z m 172 108 b 172 109 173 110 174 110 b 174 109 173 109 172 108 z m 175 111 b 176 112 177 112 178 113 b 177 112 176 111 175 111 z m 179 113 b 179 113 179 113 179 113 b 179 113 180 114 180 114 b 180 114 180 113 179 113 z m 184 129 b 180 126 176 124 172 122 b 170 122 170 123 171 124 b 173 126 176 128 178 130 b 181 132 185 133 188 133 b 187 131 186 130 184 129 z m 231 160 b 231 160 231 160 231 160 b 232 161 233 162 234 163 b 235 163 235 163 235 163 b 235 163 234 163 234 163 b 233 162 232 161 231 160 b 230 160 230 160 229 159 b 230 160 230 160 231 160 b 231 160 231 160 231 160 z m 197 118 b 197 118 197 118 197 119 b 197 118 197 118 197 117 b 197 117 197 118 197 118 z m 226 157 b 224 158 222 158 220 156 b 222 156 224 156 226 157 z m 200 140 b 200 141 200 141 200 141 b 200 141 200 141 200 141 b 200 141 200 141 200 140 b 200 140 200 140 200 140 z m 229 159 b 228 159 227 158 227 158 b 226 158 226 157 226 157 b 226 157 227 157 227 157 b 227 158 228 159 229 159 z m 216 153 b 216 153 216 153 216 154 b 216 154 216 154 216 154 b 214 153 213 152 212 151 b 212 151 211 151 211 151 b 212 151 212 151 212 151 b 213 151 215 152 216 153 z m 324 188 b 324 188 324 188 323 188 b 324 188 324 188 324 188 l 325 188 b 324 188 324 188 324 188 z m 196 140 b 197 140 199 140 200 141 b 202 142 203 144 205 145 b 207 147 209 149 211 151 b 210 151 209 151 207 150 b 201 148 195 145 190 140 b 190 140 190 140 190 139 b 192 139 194 139 196 140 z m 312 184 b 313 184 313 184 313 184 b 313 184 313 184 313 185 b 313 185 313 185 313 185 b 313 185 312 184 312 184 z m 313 185 b 317 184 321 185 323 188 b 320 188 316 187 313 185 z m 190 139 b 190 139 190 139 190 139 b 190 139 190 139 190 139 b 190 139 190 139 190 139 b 190 139 190 139 190 139 z m 197 117 b 197 117 197 117 197 117 b 197 117 197 117 197 117 b 197 117 197 117 197 117 b 197 117 197 117 197 117 z m 197 120 b 197 119 197 119 197 119 b 197 119 198 120 198 120 b 198 120 197 120 197 120 b 197 120 197 120 197 120 b 197 120 197 120 197 120 z"},">":{"x_min":0,"x_max":353,"ha":353,"o":"m 95 48 b 95 48 95 48 95 48 b 95 48 95 48 95 48 z m 329 184 b 331 197 327 204 319 209 b 315 210 311 211 309 213 b 278 226 248 238 218 252 b 178 272 136 292 96 314 b 84 319 74 326 61 333 b 56 331 53 329 49 328 b 36 321 29 294 43 289 b 49 287 55 282 62 280 b 76 273 90 266 106 260 b 141 247 172 231 206 215 b 221 209 237 204 251 197 b 257 195 264 194 267 186 b 263 184 259 181 256 179 b 214 160 173 135 133 109 b 107 93 83 72 61 49 b 52 38 48 29 49 18 b 56 15 61 17 66 22 b 76 31 86 39 95 48 b 94 49 93 49 91 50 b 101 61 112 71 123 79 b 142 91 161 103 180 114 b 186 119 193 121 201 123 b 198 122 196 119 194 117 b 178 106 160 96 143 84 b 129 75 117 66 102 56 b 101 56 101 54 100 52 l 100 53 b 100 52 100 52 100 52 b 100 52 100 52 100 52 b 100 51 100 50 100 49 b 100 49 100 49 100 48 b 100 47 101 46 101 46 b 109 50 117 55 124 60 b 143 71 160 84 179 95 b 214 115 249 134 285 147 b 292 150 300 153 309 157 b 321 163 326 162 329 184 z m 205 125 b 204 125 203 124 202 124 b 203 125 203 126 204 127 b 204 127 205 126 206 126 b 205 126 205 125 205 125 z m 95 48 b 95 48 96 48 96 48 b 95 48 95 48 95 48 b 95 48 95 48 95 48 z m 99 48 b 99 48 99 48 99 48 b 99 48 99 48 100 48 b 100 48 100 48 99 48 b 99 48 99 48 99 48 z m 96 48 b 97 48 98 48 99 48 b 99 49 100 50 100 52 b 99 50 97 49 96 48 z"},"l":{"x_min":0,"x_max":280,"ha":280,"o":"m 219 503 b 219 502 219 502 219 501 b 220 502 220 502 219 503 z m 309 99 b 311 102 312 105 314 108 b 315 108 315 109 316 109 b 315 109 314 108 313 108 b 312 106 310 103 309 100 b 308 99 308 99 308 99 b 308 99 309 99 309 99 b 309 99 309 99 309 99 z m 324 118 b 325 118 325 118 325 118 b 325 118 325 119 326 119 b 325 119 325 119 325 119 b 325 118 325 118 324 118 z m 326 119 b 326 119 327 119 328 120 b 328 120 328 121 328 121 b 326 121 326 120 326 119 z m 303 93 b 303 93 303 93 303 93 b 303 92 302 92 302 92 b 303 92 303 92 303 92 b 303 93 303 93 303 93 z m 320 112 b 323 113 324 115 324 118 b 322 117 321 114 320 112 z m 317 110 b 318 110 319 110 320 111 b 320 111 320 112 320 112 b 320 112 320 112 319 111 b 319 111 318 110 317 110 z m 308 99 b 305 98 304 96 303 93 b 306 94 307 97 308 99 z m 287 75 b 287 75 287 75 287 75 b 287 74 287 74 286 74 b 287 74 287 74 287 74 b 287 74 287 75 287 75 z m 335 175 b 317 153 298 133 279 112 b 272 103 263 95 256 87 b 244 71 229 57 215 43 b 203 33 196 27 183 17 b 174 10 163 5 153 0 b 147 -2 142 0 138 5 b 132 14 117 37 115 48 b 113 63 109 77 108 91 b 106 101 107 110 106 120 b 105 128 105 137 105 145 b 106 148 107 152 109 154 b 120 164 126 176 132 188 b 140 204 148 221 157 236 b 160 241 163 246 165 251 b 169 260 173 270 179 279 b 187 294 196 309 198 326 b 200 328 201 330 202 332 b 206 340 209 347 212 355 b 216 365 219 374 222 384 b 227 401 231 418 234 435 b 237 445 238 455 239 465 b 242 488 241 510 241 532 b 241 539 240 547 239 554 b 238 561 236 568 233 574 b 231 579 227 584 222 587 b 219 588 216 590 213 592 b 208 595 203 596 197 596 b 183 595 171 588 164 575 b 160 568 156 560 153 553 b 150 544 147 536 144 527 b 136 500 129 473 120 446 b 118 441 118 436 117 432 b 107 406 100 379 92 352 b 89 343 88 334 85 324 b 82 314 79 303 77 292 b 76 283 74 273 72 264 b 66 243 65 221 61 200 b 62 188 59 176 57 163 b 57 159 55 157 51 155 b 50 155 49 154 48 153 b 47 151 46 149 47 147 b 47 146 48 144 49 144 b 55 137 57 130 56 121 b 56 116 57 111 57 106 b 57 91 59 76 62 61 b 65 49 70 38 76 27 b 87 8 116 -16 135 -24 b 139 -25 142 -26 146 -26 l 148 -17 b 148 -20 147 -23 146 -26 b 155 -28 156 -26 166 -25 b 176 -24 187 -22 194 -13 b 195 -11 197 -10 199 -9 b 211 -4 219 5 229 14 b 240 24 251 34 262 44 b 271 52 278 60 285 69 b 286 70 286 72 286 74 b 285 73 283 73 282 71 b 276 67 271 62 267 57 b 260 49 252 42 243 36 b 242 36 240 35 239 36 b 239 37 238 39 238 40 b 241 47 246 55 251 61 b 255 65 258 68 261 72 b 270 82 278 92 287 102 b 295 110 302 118 309 126 b 315 133 320 141 325 148 b 332 159 338 169 346 178 b 352 185 341 182 335 175 z m 107 306 b 107 308 107 310 107 312 b 109 309 108 308 107 306 z m 213 410 b 214 417 217 423 219 430 b 220 433 219 436 217 439 b 216 442 216 445 216 447 b 218 454 218 459 216 465 b 213 472 214 479 215 486 b 216 491 217 495 219 500 l 219 500 b 219 500 219 501 219 501 b 219 501 219 500 219 500 b 216 503 215 507 215 511 b 216 518 218 524 220 531 b 221 532 223 532 224 533 b 224 533 225 532 225 531 b 226 525 227 519 227 513 b 227 506 230 500 233 494 b 232 488 231 482 230 477 b 230 472 228 467 226 463 b 224 460 223 457 224 453 b 230 436 224 419 221 402 b 216 381 208 362 201 342 b 199 337 197 332 198 326 b 194 325 193 322 192 319 b 184 305 177 290 170 275 b 164 264 158 254 149 246 b 147 245 146 244 144 243 b 144 254 147 263 152 272 b 156 282 161 291 165 300 b 176 324 186 348 195 373 b 198 379 200 386 204 391 b 208 397 211 403 213 410 z m 174 478 b 178 490 181 502 185 514 b 189 524 192 535 197 544 b 198 545 200 546 201 546 b 201 546 202 545 202 544 b 203 542 204 539 204 536 b 205 497 202 459 193 421 b 189 404 183 387 177 371 b 166 342 153 312 137 285 b 132 274 127 264 121 253 b 120 252 119 250 117 249 b 116 248 114 249 113 249 b 113 249 112 250 112 251 b 111 252 111 253 111 254 b 115 275 119 295 125 315 b 125 316 125 318 125 319 b 125 322 124 324 123 326 b 123 326 123 326 123 326 b 124 328 126 331 127 333 b 130 336 131 339 130 342 b 127 349 128 355 132 360 b 138 367 140 376 143 384 b 144 386 144 389 144 392 b 144 392 144 392 144 392 b 146 395 146 398 144 401 b 144 401 144 401 144 401 b 144 405 143 409 148 411 b 151 412 153 415 154 417 b 156 425 159 433 161 441 b 164 454 170 465 174 478 z m 116 351 l 117 351 l 116 349 z m 120 363 l 121 364 l 121 363 z m 122 325 b 122 324 122 323 121 322 b 121 322 121 323 121 323 b 121 324 122 324 122 325 z m 143 400 b 143 398 143 395 143 393 b 141 396 141 397 143 400 z m 153 503 b 153 504 153 505 153 505 b 153 506 153 506 154 507 b 154 506 154 504 154 503 b 154 502 153 502 153 501 b 153 502 153 503 153 503 z m 152 499 b 151 495 151 491 148 488 b 148 492 148 496 152 499 z m 83 197 b 83 197 83 199 83 199 b 83 200 84 200 85 201 b 85 199 85 198 83 197 z m 88 204 b 88 203 86 203 86 202 b 85 211 84 221 86 230 b 87 231 89 234 92 233 b 92 232 92 231 92 230 b 91 221 89 213 88 204 z m 97 273 b 94 272 94 274 94 276 b 95 276 96 276 98 276 b 97 274 97 273 97 273 z m 94 284 b 94 281 94 278 93 276 b 93 275 92 274 92 273 b 88 259 84 245 85 230 b 85 230 85 230 86 230 b 81 220 80 209 78 198 b 77 194 76 190 75 186 b 75 185 73 184 72 184 b 71 184 70 185 69 186 b 69 188 69 189 69 190 b 69 192 69 195 69 197 b 73 212 73 228 77 244 b 78 250 77 256 78 262 b 81 276 84 289 87 303 b 89 308 90 313 92 319 b 95 329 94 341 99 351 b 104 361 106 372 109 382 b 112 393 116 403 120 414 b 120 415 121 416 121 418 b 125 435 133 452 138 469 b 140 473 140 478 142 483 b 143 485 145 487 148 487 b 149 480 145 474 143 468 b 138 448 133 429 128 410 b 126 403 124 397 122 390 b 116 372 110 354 106 335 b 105 328 103 321 101 315 b 98 308 98 300 97 292 b 97 292 97 292 98 292 b 95 290 94 287 94 284 z m 101 285 b 101 282 100 279 98 277 b 98 282 98 287 98 292 b 99 292 101 292 102 292 b 102 290 102 287 101 285 z m 106 303 b 105 300 105 296 103 293 b 103 297 103 301 106 303 z m 302 92 b 299 91 298 88 298 86 b 300 87 302 89 302 92 z m 298 86 b 298 85 297 85 297 85 b 297 85 297 85 297 84 b 297 84 297 85 298 85 b 298 85 298 85 298 86 z m 297 84 b 292 83 289 79 287 75 b 288 75 289 75 290 76 b 293 78 295 81 297 84 z"},"8":{"x_min":0,"x_max":435,"ha":435,"o":"m 188 240 b 188 240 188 240 188 240 b 189 241 191 243 192 245 b 192 245 193 245 193 245 b 192 245 192 245 192 245 l 192 245 b 192 245 192 245 192 245 b 190 243 189 242 188 240 l 188 240 b 187 240 187 240 187 240 b 188 240 188 240 188 240 l 188 240 z m 348 537 b 354 537 359 534 363 530 b 369 526 371 521 367 514 b 367 513 367 512 367 511 b 373 508 378 506 384 504 b 393 501 400 496 405 488 b 406 487 408 487 408 489 b 409 489 409 490 409 491 b 407 494 406 498 404 502 b 405 507 407 513 408 518 b 409 522 409 525 406 528 b 398 541 386 551 371 556 b 355 560 339 564 322 563 b 302 563 282 560 262 559 b 250 558 239 556 227 554 b 212 551 196 547 180 545 b 157 541 135 534 113 525 b 104 522 96 519 88 515 b 59 503 34 487 12 465 b 2 454 -4 442 -9 429 b -10 427 -11 424 -11 421 b -14 396 -10 372 -2 348 b 6 326 19 307 37 292 b 53 279 68 265 84 252 b 93 244 103 237 112 230 b 115 227 117 224 120 220 b 121 220 120 218 120 217 b 118 214 116 212 114 210 b 96 193 77 175 61 155 b 54 146 48 137 45 126 b 43 120 41 113 40 106 b 38 96 40 85 42 75 b 43 73 44 72 46 70 b 57 54 71 41 90 33 b 95 31 100 29 105 27 b 122 21 140 19 158 22 b 169 24 180 26 191 28 b 194 29 197 30 201 32 b 218 39 229 53 239 68 b 240 70 240 72 241 74 b 242 80 243 87 242 93 b 240 102 238 110 234 119 b 225 138 215 155 201 171 b 190 182 180 193 169 204 b 167 206 165 208 164 210 b 162 212 162 216 164 218 b 166 220 168 222 170 223 b 175 227 179 230 184 233 b 186 235 187 237 187 240 b 185 240 182 240 180 238 b 174 234 168 229 162 225 b 160 224 158 223 156 222 b 155 222 152 224 151 226 b 151 227 151 229 151 229 b 154 233 157 236 160 238 b 181 256 203 274 225 291 b 231 296 237 300 241 306 b 237 305 233 304 230 302 b 220 294 209 287 198 279 b 182 267 166 254 151 242 b 140 234 138 234 127 242 b 125 244 122 247 119 249 b 108 258 97 268 86 277 b 74 288 62 299 51 312 b 38 327 29 344 24 363 b 20 376 21 389 24 402 b 28 419 37 433 52 444 b 66 455 80 464 95 473 b 122 489 151 502 182 511 b 186 512 190 515 193 516 b 200 519 200 526 205 530 b 219 531 233 531 247 532 b 256 533 266 534 276 535 b 288 536 301 536 313 537 b 325 538 337 537 348 537 z m 225 66 b 225 65 225 65 225 65 b 223 64 223 65 225 66 z m 175 44 b 174 42 173 40 172 38 b 171 38 171 37 170 37 b 168 35 166 34 163 33 b 162 32 161 32 159 32 b 150 33 140 33 130 33 b 123 34 115 34 108 38 b 108 39 108 40 108 40 b 108 41 108 42 108 42 b 116 43 123 45 129 43 b 145 41 158 44 172 47 b 173 47 174 46 175 46 b 176 45 175 44 175 44 z m 200 53 b 199 52 199 51 199 51 b 198 52 199 52 200 53 z m 200 54 b 201 60 203 63 208 66 b 208 60 206 56 200 54 z m 215 78 b 216 77 216 77 216 76 b 216 71 214 67 209 66 b 209 70 210 74 212 77 b 213 78 214 79 215 78 z m 139 193 b 140 194 142 195 143 195 b 145 196 147 196 149 195 b 150 195 151 194 152 193 b 167 178 182 162 193 144 b 199 133 204 123 207 111 b 210 103 208 95 203 88 b 198 80 191 74 184 69 b 176 65 168 61 160 57 b 158 56 156 55 154 55 b 146 54 137 53 131 53 b 118 53 107 54 97 60 b 92 63 86 64 80 67 b 76 68 73 71 71 75 b 61 93 63 108 74 119 b 83 129 91 140 100 151 b 112 167 126 180 139 193 z m 134 208 b 136 206 136 204 135 202 b 134 201 133 199 131 197 b 117 184 102 171 87 158 b 86 157 85 156 83 156 b 83 156 82 156 82 156 b 81 157 81 157 81 158 b 83 164 87 169 91 173 b 102 185 114 197 125 209 b 128 211 132 211 134 208 z m 196 245 b 201 248 207 251 212 254 b 216 257 219 260 220 265 b 219 265 218 265 217 264 b 208 259 200 253 193 245 b 194 245 195 245 196 245 z m 370 373 b 370 373 371 373 371 373 b 371 373 371 373 371 374 b 371 373 371 373 371 373 b 370 373 370 373 370 373 z m 355 362 b 362 363 366 367 370 373 b 364 371 359 367 355 362 z m 383 386 b 383 386 383 386 383 386 b 383 386 383 386 383 386 l 383 386 z m 385 391 b 384 390 384 388 383 386 b 391 389 395 394 395 402 b 390 400 387 395 385 391 z m 395 402 b 395 402 395 402 396 402 b 396 402 396 403 396 403 b 396 403 395 403 395 403 b 395 402 395 402 395 402 z m 255 291 b 255 291 255 291 255 290 b 254 290 253 289 252 288 b 253 289 254 290 255 290 b 255 290 255 290 255 291 z m 263 296 b 262 297 261 297 259 296 b 258 295 256 293 255 291 b 257 292 260 293 262 294 b 262 294 263 295 263 296 z m 250 285 b 244 285 240 283 239 278 b 244 278 247 281 250 285 z m 239 278 b 238 278 238 278 238 278 b 238 278 237 277 237 277 b 238 277 238 277 238 277 b 238 278 239 278 239 278 z m 266 326 b 262 325 260 323 259 320 b 262 319 265 320 267 323 b 267 324 267 324 267 325 b 267 325 266 326 266 326 z m 237 277 b 233 276 228 274 226 270 b 231 270 234 274 237 277 z m 226 270 b 226 270 225 270 225 270 b 225 269 225 269 225 269 b 225 269 225 269 226 269 b 226 269 226 270 226 270 z m 319 335 b 317 335 316 334 315 333 b 316 334 317 334 319 335 z m 321 336 b 320 335 320 335 319 335 b 320 335 320 335 321 335 b 321 335 321 335 321 335 b 321 335 321 335 321 335 b 321 336 322 336 322 337 b 322 337 321 336 321 336 l 321 336 z m 342 353 b 340 352 339 350 337 348 b 334 347 332 346 329 345 b 328 343 326 342 325 340 b 325 340 324 339 324 339 b 324 339 325 340 326 340 b 327 341 328 343 329 344 b 332 346 335 347 338 348 b 339 349 341 351 342 353 b 345 354 347 355 350 356 l 350 356 b 347 355 344 354 342 353 z m 400 407 b 403 409 404 411 404 414 b 400 413 400 410 400 407 z m 404 414 b 404 414 404 414 404 415 b 404 415 404 415 404 415 b 404 415 404 415 404 415 b 404 415 404 414 404 414 z m 276 305 b 277 305 277 306 278 306 b 278 306 279 306 280 306 l 279 307 b 278 306 277 306 276 305 z m 364 508 b 364 509 365 509 366 510 b 365 510 364 510 363 509 b 363 509 363 509 364 508 z m 366 510 b 366 510 366 510 367 510 b 367 510 367 511 367 511 b 367 511 367 511 367 511 b 366 511 366 510 366 510 z m 409 427 b 409 426 409 426 409 425 b 409 425 410 426 409 427 z m 408 423 b 408 423 408 423 408 423 b 408 424 409 424 409 425 b 408 425 408 424 408 424 b 408 424 408 423 408 423 z m 408 423 b 405 421 404 418 404 415 b 407 417 407 420 408 423 z m 400 406 b 400 406 400 406 401 406 b 401 406 401 407 400 407 b 400 407 400 407 400 407 b 400 406 400 406 400 406 z m 396 403 b 398 403 399 404 400 406 b 398 406 397 405 396 403 z m 383 386 b 383 386 383 386 383 386 b 383 386 383 386 383 386 b 383 386 383 386 383 386 z m 379 382 b 382 382 383 383 383 386 b 381 386 379 384 379 382 z m 375 378 b 378 378 379 379 379 381 b 376 381 375 380 375 378 z m 379 381 b 379 381 379 382 379 382 b 379 382 379 382 379 382 l 379 382 b 379 382 379 382 379 382 b 379 382 379 382 379 382 b 379 382 379 382 379 381 z m 375 377 b 375 377 375 377 375 377 b 375 377 375 378 375 378 b 375 378 375 378 375 378 b 375 378 375 377 375 377 z m 371 374 b 373 374 375 375 375 377 b 372 377 371 376 371 374 z m 258 319 b 258 319 258 319 259 319 b 259 319 259 320 259 320 b 259 320 258 320 258 320 b 258 319 258 319 258 319 z m 257 318 b 257 318 257 319 258 319 b 258 319 257 319 257 319 b 257 319 257 318 257 318 z m 295 319 l 296 319 l 297 320 l 296 320 l 295 319 z m 246 311 l 247 312 l 246 312 b 244 310 243 308 241 307 b 241 306 241 306 241 306 b 241 306 241 306 242 306 b 243 308 245 310 246 311 z m 283 311 b 282 310 281 308 279 307 l 280 306 b 281 308 282 309 284 311 l 285 312 l 283 311 l 283 311 z m 252 288 b 251 287 251 286 250 286 b 250 286 250 285 250 285 b 250 285 250 285 250 285 b 251 286 251 287 252 288 z m 252 288 b 252 288 252 288 252 288 b 252 288 252 288 252 288 z m 225 269 b 223 268 222 267 222 266 b 223 266 224 267 225 269 z m 221 265 b 221 265 221 265 222 266 b 221 266 221 265 221 265 b 221 265 221 265 220 265 b 221 265 221 265 221 265 l 221 265 z m 354 361 b 353 360 351 358 350 356 l 350 356 b 352 358 353 359 354 361 b 355 361 355 361 355 362 b 355 362 354 361 354 361 l 354 361 z m 322 337 b 323 338 323 338 324 339 b 323 338 323 338 322 337 z m 311 330 b 311 331 311 331 312 331 b 312 331 311 331 311 331 b 311 331 311 331 311 330 z m 312 331 b 312 331 312 332 313 332 l 313 332 b 313 332 314 333 315 333 b 314 333 313 333 312 332 b 312 332 312 332 312 331 z"},"\\":{"x_min":0,"x_max":199,"ha":199,"o":"m 233 -59 b 225 -46 219 -34 215 -20 b 205 14 190 47 178 80 b 174 90 170 100 168 111 b 165 123 164 135 157 145 b 155 147 155 150 155 153 b 153 168 148 182 141 195 b 140 198 139 200 138 203 b 134 218 131 233 127 248 b 126 252 125 257 123 260 b 116 270 115 281 112 293 b 109 306 108 320 102 333 b 98 343 96 354 96 365 b 96 374 94 381 90 388 b 86 397 83 407 81 417 b 79 429 78 441 76 453 b 72 470 67 487 62 504 b 54 532 45 561 42 590 b 41 594 40 598 39 602 b 38 606 36 610 32 611 b 21 613 11 617 0 614 b -18 609 -21 605 -12 590 b -11 587 -8 585 -7 583 b -5 580 -3 576 -1 572 b 3 559 7 545 11 531 b 19 502 26 472 34 442 b 45 401 57 361 68 320 b 81 274 93 228 106 182 b 111 166 117 151 122 136 b 142 78 161 21 181 -37 b 185 -48 187 -60 184 -72 b 187 -74 190 -75 192 -77 b 200 -86 209 -87 220 -83 b 224 -81 230 -79 236 -77 b 236 -65 237 -65 233 -59 z m 161 109 l 161 108 l 160 108 z m 152 131 b 153 131 153 130 153 130 b 153 130 153 129 153 129 b 153 129 152 129 152 129 b 152 130 152 130 152 131 z m 149 143 b 149 142 149 141 149 140 b 148 141 148 142 148 142 b 148 142 149 142 149 143 z m 121 235 b 121 234 121 233 121 232 b 120 232 119 232 119 232 b 119 233 119 234 119 235 b 120 235 120 235 121 235 z m 112 261 l 112 260 l 111 260 z m 106 294 b 102 296 102 297 102 301 b 103 298 104 296 106 294 z m 100 309 b 100 307 101 305 101 304 b 100 305 100 306 99 307 b 99 307 100 308 100 309 z m 84 369 b 84 368 83 367 83 366 b 83 367 83 368 83 368 b 83 368 83 368 84 369 z m 44 442 b 40 458 37 474 33 490 b 33 491 34 492 34 494 b 36 491 37 489 38 486 b 42 472 47 458 51 444 b 52 437 54 431 52 424 b 47 429 46 436 44 442 z m 198 -56 b 198 -56 197 -55 197 -54 b 193 -44 188 -34 185 -24 b 178 -4 171 16 165 36 b 144 99 122 161 102 224 b 93 252 88 281 80 309 b 72 340 64 371 55 402 b 53 409 51 416 52 423 b 55 421 58 418 60 415 b 62 409 64 402 66 395 b 75 365 83 334 91 303 b 99 273 106 244 115 214 b 121 193 129 172 136 150 b 139 140 142 131 145 121 b 153 95 162 69 170 43 b 177 24 184 5 190 -15 b 195 -28 200 -41 201 -56 b 199 -56 199 -56 198 -56 z"},"e":{"x_min":0,"x_max":253,"ha":253,"o":"m 263 147 b 260 142 256 138 252 134 b 246 129 241 124 236 119 b 224 109 213 98 201 88 b 176 65 148 48 118 34 b 108 30 98 27 88 26 b 83 25 77 25 72 26 b 68 27 65 30 63 33 b 63 35 62 36 62 37 b 57 56 57 76 63 95 b 64 98 68 100 71 99 b 79 95 88 95 97 96 b 112 99 110 95 122 107 b 125 110 130 113 134 117 b 137 120 141 123 143 126 b 155 142 165 159 173 177 b 174 181 175 186 175 190 b 173 207 166 220 151 228 b 146 230 142 232 137 234 b 133 235 129 235 125 235 b 104 234 88 223 77 206 b 75 204 75 202 75 199 b 78 199 81 200 83 200 b 85 200 86 199 87 199 b 87 198 87 196 87 196 b 84 191 81 186 77 181 b 76 179 74 177 71 175 l 70 176 l 70 175 l 71 175 b 69 167 65 160 61 152 b 58 147 55 142 55 136 l 54 137 b 54 136 54 136 54 136 b 54 135 54 135 54 135 b 54 134 54 134 54 133 b 54 133 54 132 54 132 l 55 132 b 54 128 54 124 52 121 b 47 114 44 106 40 99 b 39 99 39 98 39 98 b 39 114 42 129 48 143 b 49 146 50 149 51 152 b 52 153 52 155 52 156 b 51 157 51 158 50 159 b 49 161 46 160 45 158 b 39 143 35 128 31 113 b 26 95 25 77 27 59 b 28 43 34 29 47 18 b 48 16 50 15 51 13 b 57 4 67 0 77 -1 b 81 -1 84 -2 87 -3 b 99 -6 111 -3 122 1 b 132 5 142 10 152 15 b 155 16 157 18 160 19 b 175 24 187 33 200 40 b 202 41 205 43 206 44 b 223 59 240 73 255 90 b 260 96 266 103 271 110 b 272 111 273 114 273 116 b 272 115 270 114 269 113 b 258 102 246 92 235 81 b 214 59 188 45 160 34 b 159 34 158 34 158 34 b 157 34 157 35 156 35 b 155 36 155 37 156 38 b 166 46 178 52 187 61 b 190 64 193 66 196 69 b 198 71 201 73 204 74 b 214 78 219 86 225 94 b 228 97 230 101 233 105 b 236 108 238 112 242 115 b 253 124 260 137 270 147 b 272 149 273 152 273 155 b 269 154 265 151 263 147 z m 76 134 b 77 138 79 142 80 145 b 84 153 89 160 92 168 b 96 178 102 186 110 193 b 116 198 121 204 128 208 b 131 209 135 208 135 204 b 135 203 136 202 136 200 b 137 189 132 179 125 170 b 118 161 111 153 103 145 b 97 138 89 133 81 129 b 80 129 78 129 77 129 b 76 129 75 132 76 134 z m 37 91 b 36 91 36 92 37 93 b 37 94 38 95 38 96 b 38 95 38 94 38 93 b 38 91 38 90 37 91 z m 289 173 b 283 171 279 167 278 160 b 285 161 288 166 290 172 b 290 172 289 173 289 173 z m 323 194 b 323 194 322 195 322 195 b 322 195 321 195 320 195 b 318 193 317 190 317 188 b 320 189 322 191 323 194 z m 281 123 b 280 123 279 122 278 121 b 279 122 280 122 281 123 z m 278 121 b 278 121 278 121 277 121 b 277 120 277 120 277 120 b 277 120 278 120 278 120 b 278 121 278 121 278 121 z m 274 117 b 274 117 273 117 273 117 b 273 117 273 116 273 116 b 273 116 273 116 273 116 b 274 117 274 117 274 117 z m 277 120 b 276 119 275 118 274 117 b 275 117 276 118 277 120 z m 282 125 b 282 125 281 125 281 124 b 281 124 281 124 281 123 b 281 123 281 124 282 124 b 282 124 282 125 282 125 z m 273 156 b 273 156 273 155 273 155 b 273 155 273 155 273 155 b 275 157 276 158 278 160 b 278 160 278 160 278 160 b 278 160 278 160 277 160 b 276 159 274 157 273 156 z m 62 183 b 63 183 63 183 63 184 b 63 184 62 183 62 183 b 60 182 59 181 58 179 l 57 178 l 58 179 b 60 180 61 181 62 183 z m 316 187 l 317 187 b 317 187 317 187 317 188 b 317 187 317 187 317 187 z m 74 199 l 74 198 b 74 199 74 199 74 199 b 74 199 75 199 75 199 b 74 199 74 199 74 199 z"},"b":{"x_min":0,"x_max":280,"ha":280,"o":"m 249 161 b 249 166 246 170 242 173 b 232 181 220 185 207 180 b 201 178 194 176 188 173 b 168 163 150 149 134 134 b 130 130 125 125 121 121 b 119 119 116 120 116 122 b 115 128 114 133 114 139 b 115 160 114 181 117 203 b 117 205 117 208 117 211 b 118 226 119 241 120 257 b 121 263 122 269 125 274 b 132 287 137 301 143 314 b 154 334 163 355 172 376 b 178 390 184 404 189 418 b 197 441 204 464 211 488 b 214 496 216 505 218 514 b 221 528 224 543 224 561 b 224 568 223 577 222 586 b 220 596 214 605 205 611 b 203 612 202 613 200 614 b 193 615 186 615 179 614 b 177 613 175 612 173 611 b 165 607 161 599 155 592 b 151 589 149 584 147 580 b 127 533 113 490 104 439 b 101 423 98 407 95 390 b 91 360 86 330 84 300 b 83 289 81 278 80 267 b 80 255 76 244 71 233 b 66 224 62 214 58 205 b 53 196 49 187 42 181 b 41 180 40 179 40 177 b 40 175 40 173 41 172 b 42 170 44 169 46 168 b 52 164 58 162 65 162 b 70 161 72 158 73 153 b 73 152 73 150 73 149 b 73 121 73 92 77 64 b 77 62 77 60 78 58 b 78 53 78 48 76 44 b 75 38 74 33 73 27 b 73 24 74 20 78 18 b 83 16 86 12 90 8 b 92 6 94 5 95 5 b 102 5 107 0 113 -2 b 118 -3 122 -3 127 0 b 128 0 129 1 129 3 b 130 4 130 5 130 7 b 128 13 131 17 136 20 b 156 33 174 48 193 62 b 201 68 208 75 214 82 b 224 95 233 109 242 123 b 249 135 251 148 249 161 z m 84 158 b 83 158 82 159 82 159 b 83 160 83 161 83 162 b 84 162 84 162 85 161 b 85 161 85 160 85 160 b 84 159 84 159 84 158 z m 208 559 l 208 558 l 207 559 z m 202 529 b 203 529 203 530 204 530 b 204 530 205 530 205 529 b 205 528 205 526 205 525 b 205 522 204 520 203 521 b 202 522 202 523 202 525 b 202 526 202 527 202 529 z m 200 508 l 199 506 l 199 508 z m 165 511 b 169 526 176 541 182 555 b 183 559 185 561 187 564 b 188 565 190 565 191 565 b 191 565 192 564 192 563 b 193 560 193 557 193 553 b 191 538 190 522 186 506 b 176 469 164 432 149 397 b 146 390 144 382 140 376 b 139 375 137 375 136 374 b 136 374 135 375 135 376 b 135 377 135 377 135 378 b 135 384 135 389 136 395 b 138 408 142 422 144 435 b 149 461 157 486 165 511 z m 113 404 b 110 379 104 355 102 330 b 101 319 99 307 97 296 b 96 292 95 289 91 287 b 90 289 90 292 90 293 b 91 303 92 313 93 322 b 97 351 102 380 106 408 b 107 412 107 415 108 419 b 110 431 113 443 115 455 b 119 476 126 495 133 515 b 136 523 137 532 142 540 b 143 540 144 540 145 540 b 146 540 146 539 146 539 b 146 538 146 537 146 537 b 144 530 142 523 140 517 b 132 495 127 472 122 449 b 120 444 120 439 119 435 b 117 426 116 418 114 410 b 114 408 113 406 113 404 z m 169 72 b 171 73 172 74 174 76 b 176 77 178 78 180 78 b 177 74 174 72 169 72 z m 181 79 b 181 82 182 82 184 82 b 184 81 183 80 181 79 z m 185 83 b 186 85 187 86 188 86 b 188 85 187 84 185 83 z m 202 128 b 202 127 201 125 200 125 b 192 122 189 114 184 109 b 167 93 150 78 131 65 b 130 64 129 64 127 64 b 127 65 126 65 126 66 b 126 68 127 71 128 74 b 137 94 151 111 168 126 b 179 135 190 144 203 151 b 206 152 208 152 209 151 b 209 150 210 148 210 147 b 207 140 205 134 202 128 z"},"%":{"x_min":0,"x_max":292,"ha":292,"o":"m 360 633 b 353 635 346 637 339 640 b 333 642 328 641 323 639 b 310 633 298 625 289 613 b 282 604 273 596 266 588 b 246 565 222 547 198 529 b 194 526 190 525 186 523 b 183 524 181 525 179 526 b 162 538 143 535 124 529 b 121 528 118 527 115 525 b 84 514 67 491 58 460 b 55 447 57 434 63 422 b 65 419 68 415 69 412 b 77 396 91 390 106 392 b 133 394 156 406 172 429 b 178 438 184 448 190 459 b 192 463 193 469 194 474 b 194 478 194 482 194 485 b 212 495 228 505 244 515 b 245 515 246 515 246 515 b 247 515 247 514 248 513 b 241 498 233 483 225 468 b 218 454 211 440 207 425 b 213 427 215 432 217 436 b 222 445 227 454 235 460 b 235 452 233 443 227 437 b 222 432 219 426 216 420 b 213 413 211 405 207 398 b 191 367 175 338 159 308 b 149 289 139 271 129 253 l 129 253 l 129 252 b 126 250 123 248 119 244 b 119 248 119 250 119 252 b 119 253 119 255 119 258 b 106 243 92 216 85 191 b 91 192 94 201 102 200 b 102 193 99 187 95 183 b 85 171 81 157 75 143 b 66 123 59 103 51 82 b 47 73 43 63 41 54 b 33 24 22 -4 12 -33 b 11 -30 10 -26 10 -23 b 11 -17 11 -11 14 -5 b 21 14 23 34 32 53 b 43 79 51 107 61 134 b 62 137 64 139 66 142 b 71 151 74 160 72 170 b 61 148 50 126 41 104 b 32 82 25 60 17 38 b 6 6 -2 -27 -10 -60 b -12 -69 -10 -78 -7 -86 b -7 -88 -6 -91 -4 -91 b 5 -96 14 -105 26 -96 b 26 -94 27 -91 28 -89 b 28 -86 28 -83 28 -80 b 29 -68 32 -56 36 -45 b 38 -36 42 -27 35 -18 b 35 -18 35 -18 35 -18 b 33 -9 34 -1 37 8 b 44 29 51 50 59 71 b 60 75 64 79 68 82 b 65 68 58 55 53 40 b 52 36 52 32 51 27 b 56 28 57 33 58 36 b 63 50 68 63 73 76 b 78 88 84 100 89 112 b 99 135 110 158 120 181 b 124 189 128 198 133 206 b 140 221 148 235 153 251 b 154 254 156 257 158 260 b 166 270 173 281 177 293 b 179 301 183 307 186 314 b 194 329 203 343 210 358 b 220 379 233 398 241 420 b 242 423 244 427 246 429 b 257 440 263 454 270 467 b 276 477 281 489 287 499 b 299 522 312 545 323 568 b 331 583 341 595 354 606 b 357 609 361 612 364 616 b 369 621 367 630 360 633 z m 159 471 b 152 461 144 452 136 442 b 128 433 119 426 107 421 b 101 419 96 423 96 429 b 96 435 96 442 98 447 b 105 465 112 484 128 497 b 130 499 131 502 132 504 b 147 498 153 487 163 479 b 162 477 161 474 159 471 z m 34 -19 b 34 -25 36 -33 29 -39 b 26 -30 30 -24 34 -19 z m 69 85 b 69 86 69 87 69 88 b 69 87 70 87 70 87 b 70 86 69 86 69 85 z m 113 221 b 112 221 111 222 110 222 b 110 223 111 224 112 225 b 112 225 113 224 114 224 b 114 223 114 221 113 221 z m 242 466 b 240 464 238 463 236 462 b 237 464 237 466 238 469 b 238 469 240 469 241 469 b 241 468 242 467 242 466 z m 300 225 b 298 234 291 240 281 240 b 268 241 255 240 244 231 b 237 226 230 221 222 216 b 200 202 188 180 177 157 b 171 143 170 128 174 113 b 180 91 195 80 218 80 b 220 80 225 80 229 82 b 249 91 269 102 282 122 b 288 132 295 141 301 151 b 303 155 305 159 308 163 b 315 178 315 193 307 208 b 304 213 301 218 300 225 z m 275 177 b 270 163 261 151 249 141 b 245 138 241 134 235 134 b 233 134 231 131 229 129 b 225 123 225 123 213 118 b 212 121 211 123 211 126 b 212 132 213 139 216 145 b 228 168 244 188 264 205 b 266 207 268 208 271 209 b 271 210 272 210 275 210 b 279 198 278 188 275 177 z m 206 424 b 207 424 207 424 207 425 b 207 425 207 425 207 425 b 207 425 207 425 207 425 b 207 424 206 424 206 424 z m 190 385 b 198 399 206 409 206 424 b 200 413 194 402 188 392 b 188 391 189 389 190 385 z m 143 305 b 139 299 137 297 135 294 b 136 293 137 292 138 291 b 140 293 141 295 142 297 b 143 298 143 300 143 305 z m 180 374 b 178 370 176 368 175 365 b 174 363 171 362 175 358 b 177 363 181 366 180 374 z m 79 174 b 80 175 79 177 78 178 b 78 178 75 178 75 177 b 74 175 73 173 72 171 b 75 170 78 170 79 174 z m 72 171 b 72 171 72 171 71 171 b 71 170 71 170 72 170 b 72 170 72 170 72 170 b 72 170 72 171 72 171 z m 155 324 b 160 328 162 333 162 337 b 157 335 155 332 155 324 z m 51 26 b 51 26 51 27 51 27 b 51 27 51 27 51 27 b 51 27 51 27 51 27 b 51 27 51 26 51 26 z m 47 12 b 52 15 50 21 51 26 b 48 22 47 17 47 12 z m 167 347 b 166 347 164 346 164 345 b 163 343 163 341 163 339 b 164 340 166 342 167 344 b 168 345 167 346 167 347 z m 163 339 b 162 339 162 338 162 338 b 162 338 162 338 162 337 b 162 337 162 338 162 338 b 162 338 163 338 163 339 z m 47 9 b 47 9 47 10 47 11 b 47 11 47 12 47 12 b 47 12 47 12 47 11 b 47 11 47 10 47 9 z m 47 9 b 46 6 45 3 44 0 b 46 3 46 6 47 9 z m 42 -8 b 42 -6 42 -5 42 -3 b 42 -4 41 -6 40 -7 b 40 -8 41 -8 42 -8 z m 42 -3 b 43 -2 43 -2 43 -1 b 43 -1 43 -1 43 -1 b 43 -1 43 -1 43 -1 b 43 -1 43 0 44 0 b 43 0 43 0 43 -1 b 43 -2 42 -2 42 -3 z m 131 282 b 131 282 130 281 130 281 b 130 280 131 280 131 279 b 131 279 132 280 132 280 b 132 281 132 281 131 282 z m 125 269 b 124 269 123 268 123 268 b 123 267 123 266 124 266 b 124 266 125 266 125 266 b 125 267 125 268 125 269 z m 84 190 l 84 191 b 84 191 85 191 85 191 b 84 191 84 191 84 191 l 84 190 z"},"m":{"x_min":0,"x_max":491,"ha":491,"o":"m 540 166 b 539 167 539 169 538 169 b 537 170 535 169 534 168 b 523 150 511 132 496 117 b 491 111 486 105 481 99 b 462 78 443 57 424 36 b 412 25 399 17 385 9 b 382 7 378 6 375 5 b 372 4 369 6 367 9 b 358 22 355 40 355 47 b 355 67 355 87 357 107 b 358 122 359 136 360 151 b 360 152 359 152 359 153 b 359 157 356 161 352 162 b 344 165 336 166 329 171 b 326 173 322 172 319 170 b 317 168 315 166 313 164 b 302 153 292 140 284 127 b 271 108 259 88 247 69 b 245 66 243 63 241 60 b 240 59 239 57 238 55 b 237 54 233 53 232 54 b 232 55 231 56 231 57 b 230 78 235 97 238 117 b 239 127 241 136 243 146 b 244 152 248 166 247 172 b 244 187 245 185 233 189 b 228 190 229 189 224 191 b 220 193 216 192 212 190 b 205 186 190 176 184 170 b 161 148 142 124 125 97 b 119 89 114 80 108 71 b 105 67 102 62 97 59 b 97 59 96 59 95 59 b 95 59 94 60 94 60 b 94 63 94 66 94 69 b 96 81 97 93 100 106 b 102 121 105 151 110 165 b 111 169 111 173 111 177 b 110 182 109 186 108 190 b 108 193 106 196 103 198 b 101 200 98 202 96 203 b 90 207 83 207 76 206 b 71 206 71 200 68 197 b 67 196 65 194 64 193 b 60 156 57 104 50 68 b 50 67 60 67 60 66 b 60 57 48 48 46 39 b 43 29 44 19 44 8 b 44 2 46 -4 49 -9 b 52 -14 55 -15 61 -14 b 63 -13 65 -13 67 -15 b 68 -16 69 -18 70 -20 b 77 -32 93 -28 97 -19 b 104 -3 113 10 123 23 b 127 29 131 35 135 41 b 145 57 155 74 165 90 b 170 99 178 107 182 117 b 182 117 182 118 183 118 b 184 118 185 118 187 118 b 187 118 188 117 188 117 b 187 102 186 88 185 73 b 184 64 183 55 183 46 b 183 36 186 27 190 18 b 193 12 198 9 205 7 b 210 10 214 6 217 3 b 221 -2 226 -3 232 -3 b 236 -3 240 -2 244 -1 b 247 0 250 1 251 3 b 257 16 266 26 275 37 b 279 41 282 46 284 50 b 291 63 298 76 305 89 b 306 90 307 91 307 92 b 308 93 310 93 311 92 b 312 92 312 92 312 91 b 313 89 314 87 314 85 b 312 73 314 61 315 50 b 316 40 325 17 331 9 b 334 6 336 2 338 -1 b 342 -7 347 -12 355 -13 b 357 -13 359 -14 360 -15 b 369 -22 380 -24 392 -24 b 394 -24 396 -25 398 -24 b 410 -20 421 -15 428 -4 b 431 1 434 5 439 8 b 442 10 445 12 447 15 b 461 27 473 42 485 56 b 486 57 486 59 487 61 b 482 60 480 57 478 54 b 466 41 453 30 440 18 b 438 17 435 15 433 14 b 432 13 430 13 430 14 b 429 15 428 17 429 18 b 434 28 439 37 447 45 b 455 54 462 63 470 71 b 479 80 485 90 493 99 b 495 101 496 103 498 105 b 509 117 519 129 529 142 b 533 147 536 153 539 160 b 539 161 540 162 540 164 b 540 164 540 165 540 166 z m 73 59 b 71 49 70 39 70 28 b 69 24 69 20 68 16 b 67 15 65 14 63 13 b 63 13 61 15 61 16 b 60 22 60 28 59 34 b 61 49 62 64 66 79 b 67 84 68 88 70 93 b 70 94 71 95 72 95 b 73 95 73 94 74 94 b 75 82 75 70 73 59 z m 190 140 b 187 135 183 130 179 125 b 173 119 167 112 162 104 b 155 94 146 85 138 76 b 138 76 137 76 136 76 b 137 77 136 79 137 80 b 150 102 165 122 183 141 b 183 142 185 143 186 143 b 187 144 189 144 189 142 b 189 142 190 141 190 140 z m 215 104 b 212 82 210 60 209 38 b 209 36 208 34 208 32 b 208 32 207 32 206 31 b 205 30 204 30 203 32 b 199 38 198 45 197 52 b 197 58 197 64 197 70 b 197 70 197 70 197 70 b 197 74 197 78 197 82 b 197 93 198 103 203 112 b 206 118 207 124 211 129 b 212 129 212 129 213 129 b 214 129 214 129 215 129 b 215 127 216 126 216 125 b 215 118 215 111 215 104 z m 310 113 b 305 105 300 98 294 92 b 291 89 288 86 284 83 b 284 83 283 83 282 84 b 282 85 280 88 281 89 b 288 96 293 106 295 116 b 296 122 301 125 307 126 b 308 127 309 126 310 125 b 312 121 312 117 310 113 z m 336 41 b 336 40 334 39 333 39 b 333 39 332 39 332 40 b 322 65 322 90 330 115 b 331 116 332 117 333 117 b 334 118 335 116 335 115 b 336 108 336 100 336 92 b 336 88 336 83 336 78 b 336 78 336 78 336 78 b 336 66 336 53 336 41 z m 491 65 b 489 64 488 63 487 62 b 489 62 490 63 491 65 z m 487 62 b 487 62 487 62 487 62 b 487 61 487 61 487 61 b 487 61 487 61 487 61 b 487 61 487 62 487 62 z m 496 70 l 497 71 b 494 68 493 67 491 65 b 491 65 491 65 491 65 b 491 65 491 65 492 65 b 493 66 495 68 496 70 z"},"#":{"x_min":0,"x_max":484,"ha":484,"o":"m 293 170 b 292 170 292 169 292 169 b 292 169 292 169 292 169 b 293 170 293 170 293 170 b 293 170 293 170 293 170 z m 487 355 b 479 356 471 358 463 358 b 444 357 425 356 406 355 b 372 352 338 350 304 347 b 302 347 301 348 300 349 b 296 354 298 359 300 365 b 306 392 313 419 320 446 b 322 454 326 461 327 469 b 329 476 329 484 329 491 b 329 496 325 499 322 500 b 311 505 301 506 290 507 b 286 507 282 504 281 499 b 279 489 277 479 275 469 b 274 465 273 461 273 457 b 275 445 272 434 270 423 b 266 404 263 385 259 367 b 257 359 258 350 250 343 b 214 338 177 334 139 330 b 138 329 136 331 134 332 b 134 334 133 336 134 338 b 142 373 151 407 159 441 b 160 445 162 449 162 453 b 164 464 161 472 150 476 b 140 481 129 480 118 479 b 112 470 107 462 112 450 b 113 448 111 445 111 442 b 104 408 98 373 91 338 b 90 333 88 328 86 322 b 52 317 19 313 -14 308 b -48 304 -81 297 -116 295 b -111 281 -107 267 -102 254 b -99 253 -97 252 -96 252 b -52 261 -9 270 33 278 b 38 287 40 289 42 290 b 54 292 65 293 77 295 b 78 286 80 279 78 272 b 72 238 68 204 64 169 b 63 158 58 154 47 152 b 22 148 -4 144 -29 140 b -46 138 -63 136 -80 134 b -93 132 -106 130 -119 132 b -125 133 -129 130 -133 125 b -131 113 -127 102 -120 92 b -108 89 -97 91 -87 93 b -55 98 -24 103 8 109 b 13 110 17 112 24 114 b 19 116 17 118 15 119 b 28 123 41 128 56 128 b 57 122 58 117 58 111 b 58 107 58 103 57 99 b 56 83 55 68 55 52 b 54 35 55 18 56 1 b 57 -8 61 -15 72 -19 b 75 -14 77 -10 78 -5 b 84 23 90 51 92 79 b 93 98 93 118 102 134 b 132 141 160 148 188 154 b 198 157 207 159 218 156 b 217 146 216 135 215 124 b 211 92 206 60 207 27 b 207 23 206 19 205 14 b 203 -2 205 -18 207 -34 b 210 -35 212 -37 215 -38 b 217 -39 219 -39 221 -40 b 227 -41 231 -39 233 -32 b 235 -20 238 -8 239 4 b 240 45 247 86 252 126 b 253 137 253 150 263 158 b 263 168 271 169 278 170 b 283 170 288 170 293 170 b 293 171 294 171 295 172 b 321 178 346 183 374 186 b 366 176 354 179 347 174 b 370 173 391 181 411 193 b 413 194 414 197 416 199 b 411 204 407 207 403 211 b 395 210 388 209 381 208 b 346 203 312 197 277 192 b 274 192 271 192 267 193 b 268 201 268 209 269 216 b 272 236 276 255 280 274 b 282 284 285 293 287 302 b 289 309 293 313 300 313 b 315 313 328 316 343 318 b 361 320 379 320 398 322 b 411 323 424 324 436 326 b 452 329 469 331 484 337 b 488 339 492 341 496 343 b 495 350 492 354 487 355 z m 76 168 b 76 173 76 179 77 184 b 79 195 78 207 83 218 b 81 201 80 184 79 168 b 78 168 77 168 76 168 z m 90 242 b 88 235 90 226 83 220 b 83 239 86 258 93 276 b 95 264 93 253 90 242 z m 229 328 b 234 328 238 328 243 328 b 243 328 243 327 243 326 b 238 326 234 326 229 326 b 229 327 229 328 229 328 z m 204 325 b 207 325 210 324 213 324 b 213 324 213 323 213 322 b 210 322 207 322 204 322 b 203 322 203 323 203 324 b 203 324 204 325 204 325 z m 189 323 b 190 319 187 319 184 318 b 176 318 168 317 159 317 b 162 318 164 320 167 320 b 174 321 182 322 189 323 z m 156 316 b 153 315 150 314 147 314 b 147 314 147 315 146 316 b 150 316 153 316 156 316 z m 189 164 b 194 165 198 165 201 165 b 198 162 195 161 189 164 z m 203 166 b 206 167 210 168 214 170 b 211 165 207 166 203 166 z m 225 102 b 225 102 224 102 224 102 b 224 105 224 108 224 111 b 224 111 225 111 226 111 b 226 108 226 105 225 102 z m 228 129 b 228 129 228 130 228 130 b 228 131 229 131 229 132 b 229 131 229 131 229 130 b 229 130 229 129 228 129 z m 246 223 b 245 223 245 223 244 223 b 244 226 244 228 245 230 b 245 230 246 230 246 230 b 246 228 246 225 246 223 z m 217 306 b 226 305 235 308 244 305 b 245 285 230 203 222 183 b 184 174 145 169 108 162 b 102 167 103 172 103 177 b 107 210 114 244 120 277 b 121 284 123 291 131 293 b 129 297 124 299 129 303 b 131 304 133 304 135 305 b 169 310 203 316 238 319 b 241 319 245 320 246 316 b 237 310 232 308 217 306 z m 338 193 l 338 192 l 337 192 l 338 193 z m 313 188 b 312 187 312 185 311 185 b 308 185 305 185 302 186 b 305 187 307 189 310 190 b 311 190 312 188 313 188 z m 388 344 b 388 344 389 344 390 344 b 390 344 390 343 389 343 b 389 343 388 343 388 343 b 388 343 388 344 388 344 z m 316 343 b 333 343 349 342 365 341 b 344 334 322 335 298 332 b 303 341 310 343 316 343 z m 296 318 b 296 318 295 319 293 320 b 296 322 299 324 302 325 b 318 326 334 328 350 329 b 365 331 380 332 395 333 b 401 334 408 333 415 333 b 415 332 415 331 415 330 b 375 326 336 322 296 318 z m 434 335 b 434 334 433 335 432 336 b 435 336 436 336 438 336 b 437 335 435 335 434 335 z m 345 174 b 345 173 345 173 346 173 b 346 174 346 174 347 174 b 346 174 346 174 345 174 b 345 174 345 174 345 174 z m 320 173 b 311 171 302 171 292 169 b 291 167 289 165 287 161 b 306 164 322 167 339 170 b 341 171 343 172 345 174 b 337 176 328 174 320 173 z m 206 147 b 204 148 202 148 200 148 b 199 148 199 147 199 147 b 201 146 203 146 205 146 b 205 146 206 147 206 147 z m 113 130 l 113 131 l 111 131 l 113 130 z m 187 302 b 189 302 191 302 193 302 b 193 303 193 303 193 303 b 191 303 189 303 187 303 b 187 303 187 303 187 302 z"},",":{"x_min":0,"x_max":162,"ha":162,"o":"m 100 36 b 99 44 95 49 89 53 b 78 61 67 65 53 60 b 52 57 52 56 52 56 b 59 20 52 -13 35 -45 b 26 -62 16 -78 6 -94 b 2 -101 -2 -106 -2 -115 b 2 -116 6 -118 8 -117 b 21 -112 36 -109 46 -98 b 53 -91 59 -84 65 -77 b 74 -65 83 -54 89 -41 b 103 -17 102 10 100 36 z"},"n":{"x_min":0,"x_max":326,"ha":326,"o":"m 391 164 b 385 159 378 154 372 149 b 364 142 356 136 349 130 b 347 129 345 130 344 132 b 342 134 340 136 338 139 b 324 130 310 120 297 109 b 282 97 267 87 251 76 b 246 73 240 72 235 71 b 229 70 224 73 222 77 b 217 87 214 97 213 107 b 213 120 212 132 212 144 b 212 152 210 160 208 167 b 207 171 204 173 201 172 b 196 171 192 170 188 173 b 184 175 180 174 176 172 b 173 171 169 169 166 167 b 153 157 141 146 130 134 b 122 125 115 116 107 107 b 106 105 104 103 102 101 b 101 100 99 100 97 99 b 97 100 96 101 96 103 b 99 119 101 136 108 152 b 109 156 110 161 112 165 b 115 172 115 179 115 186 b 115 189 113 192 110 194 b 102 199 94 202 85 205 b 78 207 73 204 70 196 b 69 193 68 190 67 187 b 65 176 63 165 60 154 b 59 149 58 144 58 139 b 58 127 56 116 54 104 b 53 91 52 77 52 63 b 53 57 54 51 58 47 b 64 39 70 31 80 29 b 83 28 85 27 87 26 b 91 25 94 26 96 29 b 104 37 111 47 117 57 b 125 67 133 78 139 89 b 142 94 145 98 147 102 b 154 112 162 120 171 128 b 172 129 175 128 176 126 b 177 123 177 120 178 116 b 180 105 183 93 188 83 b 192 74 197 67 206 63 b 211 61 214 57 219 54 b 221 53 223 51 225 50 b 234 47 242 45 252 49 b 262 53 273 55 283 59 b 286 60 289 62 292 64 b 314 81 336 99 356 118 b 360 122 364 126 366 132 b 368 135 369 138 372 140 b 380 145 386 154 392 161 b 393 162 393 163 391 164 z m 193 111 b 193 111 192 110 192 110 b 192 110 191 111 191 112 b 190 115 189 119 192 122 b 194 119 194 115 193 111 z m 409 209 b 409 210 409 210 409 211 b 408 210 407 210 406 209 b 406 208 406 207 406 206 b 407 207 407 207 408 208 b 409 208 409 209 409 209 z m 405 205 b 405 205 405 205 406 206 b 406 206 406 206 406 206 b 406 206 405 206 405 206 b 405 206 405 205 405 205 z m 402 203 b 403 203 404 204 405 205 b 403 205 402 204 402 203 z m 401 201 b 401 201 401 202 402 202 b 402 202 402 202 402 203 b 402 202 401 202 401 202 b 401 202 401 202 401 201 z m 398 199 b 399 199 400 200 401 201 b 399 201 399 200 398 199 z m 396 197 b 396 196 395 196 395 196 b 395 196 396 196 396 197 b 397 197 397 197 398 198 b 398 198 398 198 398 199 b 398 199 397 198 397 198 b 397 198 397 197 396 197 z m 394 194 b 394 195 394 195 395 196 b 394 195 394 195 393 195 z m 389 190 l 389 191 b 391 192 392 193 394 194 l 393 195 b 392 194 390 192 389 191 z m 370 171 l 371 172 b 368 170 367 169 366 168 l 365 166 l 366 167 b 367 168 369 170 370 171 z m 354 156 l 354 155 l 354 155 z m 343 143 l 344 144 l 342 144 b 341 142 339 141 338 139 b 338 139 338 139 338 139 b 338 139 338 139 338 139 b 340 140 341 142 343 143 z"},"h":{"x_min":0,"x_max":333,"ha":333,"o":"m 407 152 b 404 154 401 155 398 156 b 391 153 385 149 379 144 b 366 133 354 122 342 111 b 325 96 310 80 293 65 b 282 55 271 46 259 38 b 249 29 236 26 222 26 b 218 26 215 28 213 32 b 211 37 208 41 209 46 b 209 58 209 70 210 81 b 212 95 215 109 217 122 b 218 128 219 135 220 141 b 220 144 219 146 219 149 b 218 151 217 153 215 153 b 212 154 209 154 207 154 b 204 154 201 155 200 158 b 198 161 195 163 192 163 b 186 163 182 161 179 158 b 163 144 148 129 135 114 b 124 102 114 89 104 77 b 103 76 101 74 99 73 b 98 73 96 74 96 74 b 93 79 92 85 94 90 b 97 100 98 109 99 119 b 99 122 99 126 98 129 b 95 135 95 141 96 148 b 98 157 98 167 103 176 b 110 190 116 205 123 219 b 138 248 149 279 161 309 b 164 318 168 327 171 336 b 180 368 189 400 196 432 b 203 461 208 491 212 520 b 213 528 213 535 214 543 b 214 546 214 550 213 553 b 210 564 204 569 194 570 b 186 571 179 569 172 565 b 171 564 169 561 169 560 b 167 553 163 550 158 549 b 156 548 155 547 153 546 b 147 530 140 514 132 497 b 126 483 120 468 116 452 b 108 428 101 403 95 379 b 86 349 81 319 76 289 b 71 259 66 228 63 197 b 62 189 60 182 59 174 b 50 161 42 147 31 135 b 29 132 25 131 21 128 b 20 127 19 124 20 123 b 21 121 21 120 22 120 b 31 118 39 113 49 116 b 50 117 52 114 52 112 b 52 109 52 107 52 104 b 52 73 52 43 51 13 b 51 5 55 1 61 -2 b 66 -5 72 -7 78 -10 b 83 -13 88 -13 94 -11 b 99 -10 102 -6 103 -1 b 104 3 103 7 106 11 b 112 20 118 29 124 39 b 131 50 140 59 147 71 b 151 77 156 83 161 89 b 162 90 163 90 164 91 b 165 91 166 91 166 91 b 167 90 168 88 168 87 b 168 79 167 70 167 62 b 167 48 171 35 183 25 b 186 22 188 19 191 16 b 194 14 197 12 200 10 b 209 6 219 2 229 -1 b 244 -7 259 -6 273 2 b 280 6 287 10 293 15 b 309 28 324 41 337 57 b 340 60 343 64 347 67 b 359 77 366 91 375 103 b 375 103 375 104 375 105 b 371 104 368 102 365 99 b 356 88 344 79 333 71 b 331 69 328 69 326 68 b 328 73 330 77 333 80 b 337 84 341 88 345 92 b 364 110 382 129 405 143 b 406 143 407 144 408 145 b 410 147 410 151 407 152 z m 136 297 b 137 297 137 298 138 298 b 138 298 137 297 137 296 b 137 296 136 297 136 297 z m 139 301 b 139 301 139 301 139 301 b 139 302 140 303 140 304 b 140 304 140 303 140 303 b 140 302 139 301 139 301 z m 145 317 b 144 317 144 318 144 318 b 145 319 145 320 146 321 b 147 319 147 318 145 317 z m 195 503 b 196 493 195 485 190 476 b 187 486 190 494 195 503 z m 185 460 b 185 460 186 461 187 462 b 187 461 188 461 188 460 b 188 459 188 458 188 456 b 188 455 187 453 187 451 b 187 451 186 450 185 450 b 185 451 184 451 184 452 b 184 454 184 457 185 460 z m 182 438 b 183 437 184 435 183 434 b 177 410 172 386 164 362 b 160 351 156 339 151 328 b 150 325 149 323 147 322 b 147 327 148 332 150 337 b 155 352 160 366 163 381 b 163 383 164 385 165 387 b 169 394 170 402 172 410 b 174 419 175 428 179 436 b 180 437 181 437 182 438 z m 128 428 b 128 428 128 427 128 426 b 128 426 128 425 128 425 b 127 425 127 426 127 426 b 126 428 127 428 128 428 z m 124 407 b 123 406 123 406 122 405 b 122 406 122 407 123 408 b 123 407 123 407 124 407 z m 121 403 b 121 400 121 397 120 394 b 120 394 119 393 119 393 b 119 394 118 395 118 395 b 118 398 118 402 121 403 z m 120 325 b 122 337 126 348 127 360 b 131 374 136 389 140 403 b 142 410 144 416 146 423 b 150 446 160 466 168 488 b 169 489 171 490 173 491 b 173 492 174 491 174 491 b 174 489 175 487 175 485 b 168 451 161 417 151 384 b 145 365 138 346 131 327 b 129 320 125 313 122 307 b 121 306 120 305 119 305 b 118 305 118 306 118 307 b 117 308 117 310 117 312 b 118 316 119 320 120 325 z m 74 52 b 74 52 73 52 73 52 b 73 53 73 54 73 54 b 74 55 75 54 74 52 z m 73 74 b 73 82 73 90 73 98 b 74 100 75 99 75 97 b 75 90 75 82 73 74 z m 78 120 b 78 119 76 118 75 117 b 74 117 73 119 73 120 b 73 122 73 125 74 128 b 74 130 77 132 78 131 b 78 130 79 129 79 127 b 79 125 79 122 78 120 z m 90 247 b 90 248 89 249 88 250 b 88 252 89 254 89 260 b 90 268 91 281 94 293 b 96 302 95 312 100 321 b 101 323 101 325 101 327 b 101 331 101 336 102 339 b 105 348 104 358 108 367 b 109 369 110 371 111 373 b 111 373 112 373 113 373 b 113 373 114 372 114 371 b 114 365 114 359 112 353 b 110 347 110 341 108 335 b 105 327 104 319 102 311 b 99 290 95 269 92 248 b 92 248 91 247 90 247 z m 321 63 b 320 62 320 62 320 62 b 319 62 319 62 321 63 z m 389 119 l 388 118 b 388 117 387 117 387 117 b 387 117 388 117 388 117 z m 384 114 b 384 114 384 114 383 114 b 383 113 383 113 383 112 b 383 113 383 113 384 113 b 384 114 384 114 384 114 z m 387 117 b 386 116 385 115 384 114 b 386 115 387 116 387 117 z m 381 110 b 380 110 380 110 379 109 b 379 109 379 109 379 109 b 379 109 380 109 380 109 b 380 109 380 110 381 110 z m 383 112 b 382 112 381 111 381 110 b 381 111 382 111 383 112 z m 379 109 b 377 108 376 107 375 105 b 377 106 379 107 379 109 z m 375 105 b 375 105 375 105 375 105 b 375 105 375 105 375 105 b 375 105 375 105 375 105 b 375 105 375 105 375 105 z"},"z":{"x_min":0,"x_max":345,"ha":345,"o":"m 317 94 b 316 95 316 95 316 96 b 314 99 312 101 308 101 b 295 103 282 99 269 96 b 235 87 202 74 169 63 b 149 56 129 51 109 45 b 104 44 99 44 95 44 b 94 44 93 44 93 45 b 92 46 92 47 92 48 b 97 58 105 66 114 73 b 126 82 139 92 152 101 b 169 115 186 127 204 139 b 214 145 222 152 230 159 b 235 163 238 169 241 175 b 242 177 242 181 241 183 b 237 187 233 193 228 196 b 219 201 209 205 198 205 b 184 205 169 205 155 204 b 146 203 138 202 130 201 b 109 199 89 198 68 194 b 62 193 60 190 57 185 b 55 180 54 175 58 170 b 60 167 61 164 63 161 b 64 158 66 157 69 156 b 73 154 77 153 81 154 b 89 157 97 157 105 159 b 123 164 142 167 160 169 b 162 169 163 169 165 169 b 166 168 166 167 167 166 b 167 166 167 165 167 164 b 166 163 165 162 164 161 b 145 150 128 135 109 124 b 107 123 106 121 104 120 b 91 111 80 99 68 88 b 58 79 50 68 48 53 b 47 47 46 41 52 36 b 55 25 61 17 69 10 b 71 7 74 6 78 6 b 83 6 88 6 92 6 b 102 4 110 6 119 9 b 125 11 131 13 136 15 b 147 21 158 24 169 28 b 178 31 186 34 194 38 b 209 45 225 48 239 56 b 265 63 288 77 315 83 b 316 84 317 86 319 88 b 318 90 317 92 317 94 z m 242 67 b 231 61 219 56 206 55 b 205 55 205 56 205 56 b 206 58 207 60 209 61 b 219 64 229 68 240 71 b 240 71 241 71 242 71 b 242 70 242 70 243 69 b 242 68 242 68 242 67 z m 255 73 b 253 71 252 72 252 73 b 252 74 253 75 253 75 b 253 75 254 75 255 74 b 255 74 255 73 255 73 z m 267 77 b 269 82 273 83 278 83 b 278 83 279 82 278 81 b 276 77 272 77 267 77 z"},"B":{"x_min":0,"x_max":456,"ha":456,"o":"m 233 582 l 233 583 b 233 579 230 576 227 573 b 215 561 204 548 194 534 b 187 524 179 513 173 501 b 163 484 154 467 144 449 b 142 446 140 442 137 438 b 137 438 135 437 134 437 b 132 438 131 438 130 439 b 129 441 128 444 129 446 b 129 450 130 454 131 459 b 131 460 130 461 129 461 b 126 461 124 463 123 465 b 120 472 117 479 115 486 b 110 503 110 498 93 503 b 90 504 85 503 81 504 b 74 504 69 501 65 497 b 62 494 62 491 62 488 b 63 486 64 484 65 482 b 73 467 79 451 83 435 b 84 430 86 424 87 418 b 89 410 92 403 92 395 b 92 388 94 381 97 374 b 101 365 101 356 97 348 b 89 329 83 310 77 291 b 76 287 74 283 73 279 b 70 269 66 260 64 251 b 57 228 52 204 48 180 b 43 151 37 122 37 93 b 37 65 38 37 44 10 b 46 5 46 1 44 -4 b 43 -5 42 -6 41 -6 b 40 -6 39 -6 39 -5 b 33 1 31 8 29 16 b 25 31 22 47 22 62 b 21 100 22 137 30 174 b 32 184 33 195 36 206 b 39 217 41 228 42 240 l 42 239 b 38 233 36 226 34 219 b 31 207 28 196 26 184 b 19 146 13 109 14 71 b 15 42 17 13 23 -15 b 23 -18 24 -21 25 -24 b 29 -32 32 -41 35 -50 b 36 -52 37 -54 38 -56 b 43 -61 47 -65 52 -70 b 55 -73 59 -76 63 -77 b 68 -79 73 -82 78 -84 b 80 -85 82 -85 84 -85 b 91 -84 97 -81 100 -75 b 103 -70 106 -64 109 -58 b 110 -56 114 -55 117 -56 b 126 -61 136 -65 145 -69 b 153 -73 162 -76 172 -77 b 186 -79 201 -81 215 -79 b 218 -78 221 -78 224 -78 b 230 -78 236 -77 242 -75 b 278 -66 307 -46 333 -24 b 333 -23 334 -23 334 -22 b 338 -16 343 -10 351 -6 b 352 -5 354 -4 355 -2 b 368 13 382 26 392 43 b 402 58 411 73 420 89 b 431 112 437 136 440 161 b 441 164 441 167 442 170 b 444 182 445 195 442 207 b 443 222 439 237 436 252 b 435 260 433 267 429 274 b 422 288 412 299 402 311 b 401 313 399 314 396 316 b 389 321 382 327 374 332 b 369 335 363 337 358 340 b 354 341 350 343 346 344 b 342 346 337 347 334 350 b 333 354 338 358 337 362 b 336 363 335 364 335 365 b 338 365 335 362 336 361 b 341 369 344 377 348 384 b 349 387 348 389 347 391 b 346 394 346 397 348 400 b 349 403 350 406 351 408 b 355 407 356 407 357 409 b 359 412 361 416 362 420 b 362 424 362 426 359 428 b 358 429 357 430 357 431 b 358 437 359 443 360 449 b 360 450 362 451 362 452 b 363 460 360 468 364 477 b 367 468 366 460 362 452 b 361 440 361 440 364 436 b 367 444 370 452 369 461 b 369 464 370 467 370 470 b 375 490 374 511 372 532 b 371 543 369 553 362 563 b 359 568 356 574 353 579 b 350 586 345 590 339 594 b 331 598 323 601 315 605 b 311 608 306 609 302 609 b 292 608 282 608 273 607 b 270 607 267 606 265 605 b 256 599 246 594 239 587 b 238 585 235 584 233 582 z m 299 -31 b 298 -32 296 -34 295 -35 b 294 -36 293 -37 292 -38 b 292 -38 290 -38 289 -38 b 290 -38 290 -37 290 -37 b 290 -36 291 -36 292 -36 b 293 -36 294 -36 295 -36 b 297 -34 298 -33 300 -31 b 301 -30 302 -28 304 -28 b 304 -26 306 -25 308 -24 b 308 -22 310 -21 312 -21 b 313 -19 313 -16 314 -14 b 314 -13 315 -11 316 -10 b 313 -4 313 -4 321 1 b 320 6 322 9 326 13 b 338 25 347 39 356 53 b 357 55 358 56 360 58 b 361 59 364 61 366 62 b 366 63 367 65 367 65 b 370 66 369 63 370 62 b 372 63 374 64 376 64 b 376 64 377 64 378 64 b 378 64 379 63 379 63 b 378 61 378 59 377 57 b 369 45 361 32 352 20 b 348 13 342 7 336 1 b 331 -5 325 -10 320 -16 b 318 -18 316 -20 312 -20 b 312 -23 310 -24 308 -24 b 307 -26 306 -27 304 -28 b 302 -29 301 -30 299 -31 z m 383 95 b 383 96 383 97 384 98 b 384 98 385 98 385 98 b 384 97 383 96 382 95 b 382 92 381 90 378 88 b 378 87 378 86 377 85 b 377 85 377 85 376 85 b 377 86 378 87 378 87 b 379 90 380 93 383 95 z m 312 366 l 312 366 l 311 366 b 311 365 311 364 311 363 b 311 362 310 361 310 360 b 309 360 309 361 309 361 b 309 362 309 362 309 363 b 310 364 311 365 312 366 z m 250 572 b 254 575 259 578 263 581 b 270 585 278 588 286 590 b 291 592 295 591 299 587 b 302 585 304 583 306 581 b 317 565 326 548 328 529 b 329 508 329 488 324 468 b 322 457 319 446 316 436 b 310 417 304 398 293 380 b 290 376 288 372 285 367 b 281 359 275 353 266 348 b 265 348 263 346 262 345 b 261 344 261 343 260 342 b 260 341 261 341 261 340 b 265 324 265 324 280 311 b 284 308 292 308 297 311 b 299 312 301 314 303 316 b 307 320 312 324 316 328 b 320 331 325 331 330 330 b 333 329 336 328 339 326 b 362 310 381 291 392 267 b 393 263 394 260 394 256 b 395 249 395 242 397 235 b 401 211 399 187 396 163 b 396 161 396 159 395 157 b 390 144 384 131 379 118 b 377 114 374 109 373 105 b 366 89 357 74 347 60 b 343 54 339 47 332 42 b 331 41 329 40 328 38 b 320 26 309 15 298 4 b 295 0 291 -4 287 -7 b 276 -15 265 -23 253 -31 b 243 -37 233 -43 220 -45 b 211 -46 203 -49 194 -50 b 182 -53 170 -53 159 -51 b 143 -48 130 -41 121 -30 b 118 -26 117 -21 119 -16 b 121 -9 123 -2 121 5 b 121 7 122 9 123 10 b 123 12 124 13 125 13 b 131 20 134 28 133 37 b 131 39 129 42 129 45 b 130 46 130 47 132 47 b 132 47 133 46 133 46 b 133 43 133 40 133 37 b 134 38 135 40 136 41 b 137 47 136 52 135 57 b 133 61 134 64 137 68 b 143 74 146 82 146 91 b 146 95 148 98 152 100 b 154 102 157 104 160 105 b 173 112 186 117 199 122 b 209 126 220 124 230 125 b 230 125 231 125 231 126 b 231 126 231 127 230 127 b 230 128 229 128 229 128 b 211 134 211 134 193 129 b 187 128 181 126 175 124 b 170 121 164 119 159 116 b 154 114 151 115 148 118 b 147 119 145 119 144 119 b 143 122 146 124 147 126 b 150 131 151 137 152 143 b 153 146 151 147 148 148 b 144 149 144 151 147 153 b 150 155 152 157 152 160 b 153 165 153 170 153 175 b 153 180 152 185 152 192 b 150 190 149 189 147 187 b 147 190 147 193 147 196 b 147 197 147 199 148 199 b 153 203 154 207 154 212 b 154 224 154 236 153 248 b 153 252 153 257 153 261 b 155 281 150 301 149 322 b 148 333 148 343 146 354 b 145 361 144 367 143 374 b 141 385 139 396 138 408 b 138 414 140 421 144 427 b 150 437 154 448 161 457 b 163 460 165 462 167 465 b 173 469 176 475 178 482 b 178 484 179 487 179 489 b 180 495 183 499 188 503 b 194 507 197 512 199 518 b 202 527 207 534 215 541 b 221 546 225 554 234 556 b 241 561 246 566 250 572 b 249 573 248 572 247 573 b 246 574 247 574 248 573 b 249 573 249 572 250 572 z m 111 232 b 111 229 111 226 111 223 b 109 204 109 186 108 167 b 108 158 106 149 103 141 b 100 129 98 118 98 107 b 97 99 97 92 94 85 b 93 83 93 80 92 77 b 89 65 87 54 82 44 b 78 35 76 26 76 17 b 76 8 74 -1 71 -10 b 70 -12 68 -14 67 -16 b 67 -16 66 -17 65 -17 b 64 -17 63 -16 62 -15 b 62 -14 61 -13 60 -12 b 59 -7 56 -2 55 3 b 54 17 50 29 49 43 b 49 57 49 72 47 86 b 46 89 47 93 47 97 b 48 108 49 118 50 129 b 51 144 53 159 55 174 b 56 180 57 187 58 194 b 58 198 59 202 60 206 b 64 213 65 220 67 227 b 68 237 71 247 76 256 b 78 261 80 265 80 270 b 82 285 90 298 93 312 b 94 315 96 318 98 322 b 99 322 100 323 102 323 b 102 323 103 322 103 322 b 105 318 106 314 107 310 b 108 305 109 300 109 295 b 110 274 110 253 111 232 b 111 232 111 232 111 232 z m 318 378 b 318 380 317 382 317 383 b 319 389 321 394 323 399 b 324 403 326 408 327 412 b 330 424 332 436 336 448 b 337 450 338 452 337 455 b 337 467 341 480 339 492 b 339 493 339 494 340 494 b 340 495 341 496 342 496 b 343 496 345 495 345 494 b 345 490 346 487 345 483 b 344 467 343 451 339 435 b 338 431 339 426 337 421 b 333 408 329 395 323 382 b 322 380 320 379 318 378 z m 419 180 b 418 178 418 175 418 172 b 417 168 416 163 416 158 b 417 145 414 132 409 119 b 405 111 402 102 396 95 b 395 95 394 94 394 95 b 393 95 392 96 392 97 b 391 97 391 98 392 99 b 399 110 402 123 405 136 b 408 152 412 168 414 184 b 414 186 415 186 417 186 b 417 186 418 185 418 185 b 418 184 418 182 419 180 z m 126 221 b 127 220 128 220 128 219 b 130 212 131 204 129 197 b 129 196 127 195 127 194 b 126 195 126 195 125 196 b 125 198 124 199 124 201 b 124 203 125 206 125 208 b 125 212 126 216 126 221 z m 192 -63 b 192 -62 192 -61 192 -61 b 198 -58 204 -57 210 -58 b 210 -58 211 -58 211 -59 b 211 -60 211 -61 210 -61 b 204 -64 198 -63 192 -63 z m 431 225 b 431 225 430 224 430 224 b 429 224 429 224 428 224 b 427 225 426 226 426 227 b 426 228 427 230 428 230 b 429 231 430 230 431 229 b 431 227 431 226 431 225 z m 127 178 b 127 177 128 176 127 176 b 126 175 126 176 126 178 b 126 178 127 178 127 178 z m 83 -32 b 82 -31 82 -31 82 -31 b 82 -31 82 -30 82 -30 b 84 -30 84 -31 83 -32 z m 414 196 b 413 196 413 196 412 196 b 412 196 411 197 411 197 b 411 199 412 199 413 198 b 414 197 414 197 414 196 z m 50 265 l 51 264 b 43 255 42 252 42 239 l 42 240 b 44 241 46 243 46 245 b 48 252 49 258 50 265 z m 70 330 l 71 329 b 68 323 63 317 64 309 b 69 316 71 323 70 330 z m 89 371 b 89 372 89 373 89 373 b 89 373 88 373 87 373 b 87 372 86 371 85 370 b 85 369 85 368 85 367 b 86 367 87 367 88 369 b 88 370 89 370 89 371 z m 51 264 l 50 265 b 52 268 53 271 52 274 b 51 271 51 267 51 264 z m 204 561 l 205 560 b 203 560 202 560 201 560 b 200 560 200 559 199 559 b 199 559 198 558 198 558 b 199 558 200 558 201 559 b 202 559 203 560 204 561 z m 75 337 l 74 338 b 75 339 77 340 78 342 b 78 343 78 344 76 344 b 76 344 76 343 76 342 b 76 341 75 339 75 337 z m 223 577 b 223 578 223 578 223 579 b 222 579 221 579 220 578 b 219 578 220 578 219 577 b 221 577 222 577 223 577 z m 57 292 b 57 292 56 291 56 291 b 56 289 57 289 58 290 b 59 290 59 291 59 291 b 58 292 58 292 57 292 z m 146 485 b 146 486 147 487 147 488 b 147 488 147 487 147 487 b 146 487 146 486 146 486 l 146 485 z m 205 560 b 205 561 204 563 205 563 b 206 564 206 564 205 562 b 205 562 204 561 204 561 l 205 560 z m 74 338 l 75 337 b 72 336 71 332 71 329 l 70 330 b 74 332 75 335 74 338 z m 233 583 l 232 583 l 233 582 l 233 583 z m 146 486 l 146 485 l 145 485 z m 170 525 l 169 524 l 170 525 l 170 525 z m 170 525 l 171 526 l 170 525 l 170 525 z m 346 23 l 345 23 b 350 25 352 28 352 32 b 353 34 353 36 353 37 l 353 37 b 350 33 346 28 346 23 z m 320 -7 b 322 -4 324 -2 324 1 l 324 1 b 323 1 321 1 320 1 b 320 -1 320 -4 320 -7 z m 361 48 l 362 48 b 359 46 359 43 358 41 l 358 41 b 360 43 361 45 361 48 z m 353 37 b 355 38 357 40 358 41 l 358 41 b 356 40 355 39 353 37 l 353 37 z m 345 23 l 346 23 l 345 23 z m 338 12 l 337 12 l 338 12 z m 333 8 b 334 10 335 11 338 12 l 337 12 b 336 11 334 10 333 9 l 333 8 z m 333 9 b 331 8 330 6 329 5 l 329 5 b 330 7 331 8 333 8 l 333 9 z m 324 1 b 326 2 328 3 329 5 l 329 5 b 327 4 325 2 324 1 l 324 1 z m 362 48 b 362 48 362 49 362 49 b 362 49 362 49 361 48 l 362 48 z m 316 -10 b 318 -10 320 -8 321 -6 b 318 -6 316 -8 316 -10 z m 365 63 b 367 63 369 63 371 63 b 369 61 367 62 365 63 z"},"K":{"x_min":0,"x_max":411,"ha":411,"o":"m 470 -35 b 469 -34 468 -33 467 -32 b 466 -32 465 -31 463 -31 b 443 -27 425 -20 409 -7 b 371 15 371 22 344 48 b 341 51 338 54 336 57 b 333 61 329 64 326 68 b 314 82 302 97 290 111 b 290 112 290 112 289 113 b 279 127 269 141 259 155 b 234 188 208 220 187 256 b 185 259 183 261 182 263 b 174 274 166 284 157 294 b 155 296 155 299 156 302 b 158 307 161 312 163 317 b 172 330 180 343 188 355 b 195 365 201 375 209 384 b 222 401 236 417 249 434 b 255 441 261 447 268 454 b 280 467 293 479 306 492 b 309 496 313 499 316 502 b 335 521 357 535 379 550 b 387 556 395 560 404 565 b 413 569 422 572 431 566 b 435 564 440 565 444 565 b 447 565 451 569 449 572 b 448 576 446 580 444 583 b 442 586 439 588 435 589 b 425 590 413 591 403 588 b 382 583 363 575 345 564 b 307 539 271 511 240 477 b 223 460 206 442 192 423 b 171 395 151 367 133 337 b 130 333 128 329 125 325 b 123 324 121 321 120 322 b 117 323 117 326 117 329 b 117 334 117 340 117 345 b 118 372 120 399 122 426 b 124 443 125 460 126 478 b 127 496 127 514 129 532 b 130 536 130 540 130 543 b 130 550 130 557 129 563 b 128 572 119 580 109 582 b 99 583 90 580 84 571 b 83 570 82 569 81 568 b 78 563 75 557 76 551 b 79 535 79 519 77 503 b 77 500 77 497 77 495 b 77 456 77 417 75 378 b 75 375 75 371 75 368 b 77 359 76 350 76 341 b 75 317 72 294 71 271 b 70 258 68 246 67 233 b 66 215 64 198 61 180 b 59 170 56 160 53 149 b 48 124 42 98 38 72 b 36 63 34 55 34 45 b 34 36 33 28 30 19 b 28 8 25 -3 27 -14 b 26 -23 32 -30 36 -37 b 36 -38 38 -39 39 -39 b 45 -42 50 -45 56 -47 b 62 -50 68 -47 73 -44 b 76 -42 76 -38 76 -34 b 77 -28 77 -22 78 -16 b 84 23 89 61 95 99 b 96 107 96 115 98 122 b 101 138 103 155 104 171 b 106 185 108 199 110 213 b 111 221 113 229 118 236 b 119 238 121 240 123 242 b 126 244 131 244 133 242 b 138 236 143 230 148 224 b 164 203 181 182 196 159 b 200 153 205 147 209 141 b 232 111 255 82 281 55 b 298 37 316 19 335 3 b 356 -15 380 -29 407 -38 b 422 -43 438 -45 454 -45 b 459 -45 463 -44 468 -41 b 469 -40 471 -36 470 -35 z m 177 359 b 177 360 178 361 179 361 b 179 360 179 359 178 358 b 178 358 177 357 177 357 b 175 357 175 358 177 359 z"},"R":{"x_min":0,"x_max":417,"ha":417,"o":"m 426 -61 b 426 -56 423 -53 421 -50 b 418 -53 415 -53 412 -50 b 410 -48 408 -45 407 -41 l 408 -42 b 408 -42 408 -42 408 -42 b 408 -42 408 -42 408 -42 b 408 -41 408 -41 408 -41 b 408 -41 407 -41 407 -41 b 405 -41 404 -39 403 -37 b 395 -31 389 -24 387 -14 b 387 -14 387 -14 388 -14 b 392 -12 396 -12 399 -16 b 401 -19 402 -21 403 -24 b 403 -24 403 -24 403 -24 b 403 -24 403 -24 403 -25 b 403 -26 403 -27 403 -28 b 403 -28 403 -28 403 -28 b 403 -31 403 -34 403 -37 b 405 -37 406 -36 407 -36 b 407 -34 408 -31 408 -28 b 406 -28 405 -28 404 -28 b 404 -26 404 -25 404 -23 b 405 -23 406 -23 408 -23 b 406 -13 399 -6 392 1 b 391 2 388 2 387 3 l 387 4 b 387 4 387 4 386 4 b 386 4 386 3 387 3 b 384 1 384 1 382 4 l 383 3 b 382 3 382 4 382 4 b 383 4 385 4 386 4 b 386 9 383 13 380 17 b 372 27 363 37 354 46 b 351 50 349 55 344 57 b 344 55 345 53 345 51 b 349 46 352 42 355 37 b 358 34 360 30 360 26 b 359 26 357 26 356 26 b 357 24 359 24 360 26 b 366 25 368 22 369 17 b 369 17 369 17 369 17 b 369 16 369 14 369 13 b 369 13 369 13 369 13 b 367 7 366 6 364 7 b 354 15 346 25 340 35 b 339 36 339 38 339 39 b 340 39 342 39 343 39 b 344 37 345 36 347 35 b 348 32 350 31 352 30 b 351 33 350 34 347 35 b 346 37 345 38 343 39 b 343 39 344 39 344 39 b 343 41 341 43 339 44 b 338 47 338 50 336 52 b 325 64 314 77 303 89 b 301 91 298 92 296 93 b 295 98 292 101 287 102 b 287 104 285 106 283 107 b 283 109 283 112 283 115 b 288 115 291 113 294 110 b 302 101 309 92 317 84 b 320 81 323 79 326 76 b 326 77 325 78 325 79 b 314 94 303 109 291 124 b 288 129 282 133 275 133 b 275 130 277 128 278 126 b 280 123 283 120 283 116 b 281 116 279 117 277 117 b 275 118 273 119 270 120 b 270 125 266 128 263 132 b 261 135 257 137 257 142 b 255 143 252 144 250 146 b 247 149 244 151 240 151 b 239 157 236 160 231 160 b 231 166 227 168 223 169 b 222 172 220 174 220 177 b 219 179 219 180 219 182 b 220 182 222 182 222 181 b 231 171 242 165 250 155 b 253 151 258 148 257 142 b 262 141 266 140 270 138 b 269 152 254 157 252 170 b 252 172 249 174 247 177 b 246 178 245 179 244 180 b 236 187 228 194 223 204 b 221 208 217 211 214 214 b 203 224 192 234 181 244 b 175 249 169 255 164 260 b 162 262 161 264 160 266 b 160 267 161 269 162 270 b 166 272 171 274 176 275 b 190 279 204 283 217 289 b 227 293 238 296 249 301 b 269 309 290 315 308 328 b 312 330 316 332 321 334 b 335 340 348 350 360 360 b 376 374 387 391 392 411 b 393 415 393 419 395 422 b 401 431 401 441 400 450 b 398 466 392 480 388 495 b 388 496 388 497 387 497 b 378 512 368 527 354 538 b 339 549 324 559 307 566 b 289 574 270 581 251 586 b 228 593 205 597 181 600 b 157 603 132 602 108 602 b 104 602 100 602 96 601 b 71 597 46 594 21 590 b 11 588 1 584 -9 582 b -15 580 -19 577 -23 574 b -30 568 -30 555 -24 550 b -21 547 -18 546 -14 547 b 2 551 18 555 35 558 b 42 560 49 561 57 562 b 58 562 61 560 62 559 b 63 556 64 553 64 551 b 66 530 69 509 68 488 b 67 467 67 446 66 426 b 65 395 64 364 63 334 b 62 326 59 320 55 314 b 56 308 56 303 58 298 b 62 289 54 279 57 270 b 58 268 56 266 55 264 b 52 260 49 257 47 253 b 47 253 47 252 47 252 b 53 250 56 247 56 241 b 56 239 57 236 58 234 b 58 233 60 233 61 232 b 61 232 62 233 62 233 b 63 237 64 241 64 244 b 65 247 68 250 71 250 b 74 250 77 249 80 250 b 88 255 94 251 99 245 b 99 244 100 244 101 244 b 102 245 103 246 104 247 b 107 249 109 250 112 248 b 113 247 115 246 117 244 b 124 237 132 230 139 223 b 156 207 173 191 190 174 b 207 157 225 141 240 122 b 254 110 264 95 279 84 b 287 72 298 64 307 52 b 315 41 325 32 335 22 b 336 21 337 20 337 18 b 343 11 348 4 355 -2 b 358 -5 362 -9 365 -13 b 378 -30 393 -44 407 -61 b 412 -67 417 -71 424 -75 b 427 -77 428 -77 432 -72 b 428 -69 425 -66 426 -61 z m 72 270 b 72 270 71 271 71 271 b 71 273 72 274 73 274 b 74 274 75 274 75 273 b 75 271 74 270 72 270 z m 92 355 b 89 346 90 337 89 329 b 89 328 88 327 87 327 b 87 328 85 329 85 330 b 85 337 86 343 86 350 b 86 352 85 354 84 356 b 80 352 82 348 82 344 b 81 337 82 330 79 324 b 79 323 78 323 77 323 b 77 323 76 323 75 323 b 75 324 74 324 74 325 b 74 327 73 329 73 331 b 75 346 77 360 78 373 b 82 374 87 374 87 379 b 88 380 89 381 90 382 b 91 376 92 371 92 366 b 93 362 93 358 92 355 z m 209 583 l 207 583 l 207 583 l 209 583 z m 176 589 b 178 589 180 588 183 588 b 174 586 174 586 168 588 b 170 590 173 589 176 589 z m 116 309 b 114 311 112 314 112 318 b 113 330 115 341 114 352 b 114 354 115 356 117 358 b 120 363 121 368 120 373 b 120 379 120 385 120 391 b 119 401 119 412 120 422 b 123 443 127 463 129 484 b 131 498 131 512 129 526 b 128 532 128 537 128 542 b 128 550 127 558 123 566 b 122 567 125 571 126 571 b 142 574 157 577 169 576 b 195 576 216 574 237 569 b 245 567 253 565 261 563 b 271 561 281 558 290 552 b 291 551 293 550 295 549 b 313 544 326 532 340 522 b 351 514 358 503 362 490 b 365 482 367 475 369 467 b 372 456 373 445 365 435 b 362 431 360 427 358 423 b 352 411 343 402 333 394 b 308 374 279 360 251 345 b 232 336 212 330 192 322 b 190 321 188 320 186 320 b 171 317 157 312 143 306 b 140 305 137 304 134 304 b 127 302 121 303 116 309 z m 142 286 b 140 286 138 288 137 290 b 137 292 138 295 140 296 b 143 297 145 299 148 300 b 158 303 168 306 178 309 b 184 311 190 313 195 315 b 206 319 216 326 228 329 b 239 331 250 336 261 340 b 267 342 273 343 280 340 b 286 338 292 342 296 347 b 298 351 301 354 306 355 b 325 359 340 370 354 383 b 359 387 362 393 368 395 b 369 395 370 394 370 394 b 370 393 371 393 371 392 b 371 391 371 391 370 390 b 364 382 358 374 352 367 b 349 362 345 359 340 357 b 323 350 307 341 291 333 b 284 329 276 327 268 325 b 267 324 266 324 265 323 b 254 318 242 316 231 312 b 219 308 208 305 196 301 b 180 297 164 292 149 287 b 146 287 144 287 142 286 z m 218 183 b 218 183 217 183 217 183 b 217 184 217 184 218 183 z m 222 168 b 222 166 222 163 222 161 b 219 163 221 166 222 168 z m 241 136 b 234 143 227 151 223 160 b 225 160 228 160 231 160 b 232 155 235 152 240 151 b 246 139 259 132 266 121 b 267 120 268 120 270 120 b 271 112 276 108 283 106 b 283 104 285 102 287 102 b 287 99 287 96 287 93 b 284 93 281 95 279 97 b 267 110 253 122 241 136 z m 287 93 b 290 93 293 93 295 93 b 295 90 295 87 295 84 b 290 85 288 88 287 93 z m 296 84 b 298 83 299 82 299 80 b 297 81 296 82 296 84 z m 300 79 b 302 79 303 77 303 76 b 302 76 301 77 300 79 z m 324 55 b 323 55 323 55 323 56 b 323 55 323 55 324 55 z m 331 48 b 333 46 336 45 339 44 b 338 42 338 41 338 40 b 334 40 331 43 331 48 z m 374 12 l 374 12 l 374 12 l 374 12 z m 369 13 b 369 14 369 15 369 17 b 372 16 373 15 374 12 l 373 13 b 373 13 373 12 374 12 b 374 12 374 12 374 12 b 375 11 377 9 378 8 l 378 8 b 378 8 378 8 378 8 b 376 9 374 10 374 12 b 372 12 371 12 369 13 z m 386 -14 b 385 -14 385 -14 385 -14 b 385 -12 385 -13 386 -14 z m 432 -72 b 432 -72 432 -72 432 -72 b 432 -72 433 -72 433 -72 l 432 -72 b 433 -72 433 -72 433 -72 b 433 -72 433 -72 433 -72 b 433 -72 433 -72 432 -72 l 432 -72 z m 58 219 b 57 218 56 217 56 216 b 55 194 54 172 53 150 b 53 149 54 149 54 149 b 55 150 56 151 56 153 b 57 163 58 173 60 183 b 62 192 63 201 64 210 b 64 212 63 214 63 216 b 62 218 59 221 58 219 z m 77 -6 b 77 -14 77 -22 72 -28 l 73 -28 b 70 -34 71 -40 72 -45 b 74 -46 76 -47 78 -48 b 79 -48 80 -49 82 -50 b 84 -51 88 -48 88 -45 b 87 -33 86 -21 85 -9 b 85 -6 83 -5 77 -6 z m 275 133 b 275 133 275 133 275 133 b 275 133 275 134 274 134 b 274 134 275 133 275 133 b 275 133 275 133 275 133 z m 74 82 b 75 85 76 89 76 93 b 77 98 77 104 77 110 b 77 110 77 110 77 110 b 78 116 78 122 78 128 b 78 130 78 133 77 135 b 77 136 75 137 74 137 b 73 137 71 135 72 134 b 72 122 71 110 69 99 b 68 93 69 87 69 81 b 69 81 70 80 70 80 b 72 80 73 81 74 82 z m 453 -82 b 449 -79 446 -76 443 -73 b 440 -70 437 -70 433 -72 b 434 -72 435 -73 436 -74 b 444 -83 452 -91 457 -102 b 458 -103 459 -106 460 -107 b 461 -108 463 -109 464 -109 b 465 -109 466 -107 466 -106 b 465 -96 461 -87 453 -82 z m 81 62 b 82 50 83 38 84 26 b 84 25 85 24 86 23 b 89 52 89 52 82 73 b 82 69 81 65 81 62 z m 82 120 b 82 119 83 118 84 118 b 85 118 85 119 86 119 b 86 121 87 124 87 126 b 87 129 87 133 87 137 b 87 142 87 148 85 155 b 84 147 82 140 81 132 b 81 128 81 124 82 120 z m 54 123 b 52 117 52 112 52 106 b 52 104 52 102 52 100 b 54 99 55 100 55 102 b 55 103 56 103 56 104 b 55 110 54 117 54 123 z m 88 194 b 85 189 85 184 87 179 b 87 180 88 180 89 180 b 91 184 92 189 92 193 b 92 195 91 196 89 195 b 89 195 88 195 88 194 z m 55 81 b 54 73 54 64 54 55 b 54 55 55 54 55 53 b 55 54 56 55 56 55 b 57 64 57 72 57 81 b 56 81 55 81 55 81 z m 94 214 b 92 214 92 213 91 212 b 91 210 92 209 93 209 b 94 210 94 211 95 212 b 95 213 94 214 94 214 z m 59 25 b 58 23 58 22 58 21 b 58 20 58 19 59 18 b 59 19 59 20 59 20 b 59 21 60 22 59 22 b 59 23 59 24 59 25 z m 72 43 b 71 42 71 41 72 41 b 73 40 73 40 74 42 b 74 43 73 43 73 44 b 72 44 72 43 72 43 z m 77 -5 b 77 -5 77 -6 77 -6 b 77 -6 77 -6 77 -6 b 77 -6 77 -6 77 -6 b 77 -5 77 -5 77 -5 z m 76 3 b 75 2 74 0 74 -1 b 75 -2 76 -4 77 -5 b 77 -3 78 -2 78 0 b 78 1 76 2 76 3 z m 403 -37 b 403 -37 403 -37 403 -37 l 403 -37 b 403 -37 403 -37 403 -37 l 403 -37 l 403 -37 b 403 -37 403 -37 403 -37 b 403 -37 403 -37 403 -37 b 403 -37 403 -37 403 -37 z m 408 -28 b 408 -28 408 -28 408 -28 l 408 -28 b 408 -28 408 -27 408 -27 b 408 -27 408 -28 408 -28 b 408 -28 408 -28 408 -28 z m 271 137 b 271 137 271 138 271 138 b 271 138 270 138 270 138 b 270 138 270 138 270 138 b 271 137 271 137 271 137 z m 274 134 b 274 135 273 136 271 137 b 272 135 273 134 274 134 z m 409 -26 b 409 -26 408 -26 408 -25 b 408 -26 408 -27 408 -27 b 408 -27 409 -27 409 -26 z m 408 -25 b 408 -25 408 -24 408 -23 b 408 -23 408 -23 408 -23 b 408 -23 408 -23 408 -23 b 408 -24 408 -25 408 -25 z m 408 -40 b 408 -40 408 -39 408 -39 b 408 -40 408 -40 408 -41 b 408 -40 408 -40 408 -40 z m 408 -39 b 408 -38 408 -37 408 -36 b 408 -36 407 -36 407 -36 b 407 -37 407 -37 407 -37 b 407 -38 408 -38 408 -39 z m 71 -46 l 72 -46 b 72 -46 72 -45 72 -45 b 72 -45 72 -45 72 -45 l 71 -46 z m 421 -49 b 420 -50 420 -50 421 -50 b 421 -50 421 -50 421 -50 b 422 -50 422 -50 422 -50 b 421 -50 421 -49 421 -49 z m 341 60 b 340 60 340 61 340 62 l 339 61 b 340 61 340 60 341 60 z m 344 57 b 344 57 344 57 344 57 b 344 57 344 57 344 57 b 343 58 342 58 342 59 b 342 58 343 57 344 57 l 344 57 z m 342 59 b 341 59 341 59 341 60 b 341 59 341 59 342 59 z m 330 70 b 331 70 331 70 331 70 b 331 70 331 71 331 71 b 330 72 328 74 327 75 l 326 75 b 326 75 327 75 327 75 b 326 76 326 76 326 76 b 326 76 326 75 326 75 b 327 73 329 72 330 70 z m 335 66 b 335 69 333 70 331 70 b 332 68 333 67 335 66 z m 340 62 b 339 62 339 62 339 62 b 339 62 339 62 339 61 l 340 62 z m 339 62 b 339 64 338 66 335 66 b 335 63 337 62 339 62 z m 335 66 b 335 66 335 66 335 66 b 335 66 335 66 335 66 b 335 66 335 66 335 66 b 335 66 335 66 335 66 z m 267 332 b 267 332 266 332 265 331 b 265 330 264 328 265 328 b 265 327 267 326 268 326 b 268 327 269 328 269 330 b 270 331 269 332 267 332 z m 268 326 b 268 326 268 326 268 325 b 268 325 268 325 268 325 b 268 325 268 326 268 326 b 268 326 268 326 268 326 z"}}}
